M48
;GenerationSoftware,Autodesk,EAGLE,9.3.1*%
;CreationDate,2019-02-27T19:17:33Z*%
FMAT,2
ICI,OFF
METRIC,TZ,000.000
T8C0.350
T7C0.700
T6C0.813
T5C0.914
T4C1.000
T3C1.016
T2C2.800
T1C3.302
%
G90
M71
T1
X25375Y69088
T2
X6350Y69850
X6350Y5080
T3
X11430Y16510
X8890Y13970
X11430Y13970
X22835Y54102
X25375Y54102
X8890Y62230
X11430Y62230
X8890Y59690
X11430Y59690
X27915Y54102
X11430Y57150
X8890Y54610
X11430Y54610
X11430Y41910
X8890Y52070
X11430Y52070
X8890Y49530
X11430Y49530
X8890Y46990
X11430Y46990
X8890Y44450
X11430Y44450
X8890Y41910
X8890Y39370
X11430Y39370
X8890Y36830
X11430Y36830
X8890Y34290
X11430Y34290
X8890Y31750
X11430Y31750
X8890Y29210
X11430Y29210
X8890Y26670
X11430Y26670
X8890Y24130
X11430Y24130
X8890Y21590
X11430Y21590
X8890Y57150
X8890Y19050
X11430Y19050
X8890Y16510
T4
X38100Y8890
X38100Y29210
X38100Y31750
X24986Y5141
X38100Y49530
X17686Y5141
X38100Y34290
X38100Y69850
X38100Y67310
X38100Y64770
X38100Y62230
X38100Y59690
X38100Y57150
X38100Y54610
X38100Y52070
X38100Y46990
X38100Y44450
X38100Y41910
X38100Y39370
X38100Y6350
X38100Y36830
X38100Y11430
X38100Y13970
X38100Y16510
X38100Y19050
X38100Y21590
X38100Y24130
X38100Y26670
T5
X32512Y8636
X32512Y6096
T6
X20930Y31953
X28550Y31953
X28575Y36195
X20955Y36195
X22962Y47650
X20422Y47650
X30734Y47549
X28194Y47549
T7
X22136Y8991
X21336Y10191
X19736Y10191
X22936Y10191
X20536Y8991
T8
X26035Y43180
X24130Y50800
X26035Y20955
X22860Y22225
X6350Y24130
X29845Y21590
X24765Y33655
X17780Y34290
X27305Y39370
X24130Y10795
X34925Y67945
X13335Y59055
X29210Y64770
X31750Y33655
X16510Y33020
X6985Y27305
X21590Y5080
X12065Y20320
X27305Y38100
X26670Y64135
X28575Y20320
X13970Y20955
M30