G04 EAGLE Gerber RS-274X export*
G75*
%MOMM*%
%FSLAX34Y34*%
%LPD*%
%INTop Copper*%
%IPPOS*%
%AMOC8*
5,1,8,0,0,1.08239X$1,22.5*%
G01*
%ADD10P,1.632244X8X292.500000*%
%ADD11C,0.067500*%
%ADD12R,3.000000X2.600000*%
%ADD13R,1.508000X1.508000*%
%ADD14C,1.524000*%
%ADD15P,1.429621X8X112.500000*%
%ADD16P,1.429621X8X22.500000*%
%ADD17P,1.429621X8X202.500000*%
%ADD18C,2.400000*%
%ADD19C,1.400000*%
%ADD20P,1.429621X8X292.500000*%
%ADD21R,2.039800X0.600000*%
%ADD22P,1.632244X8X22.500000*%
%ADD23C,0.457200*%
%ADD24C,0.254000*%
%ADD25C,0.203200*%
%ADD26C,0.756400*%
%ADD27C,0.406400*%


D10*
X38100Y673100D03*
X38100Y647700D03*
X38100Y622300D03*
X38100Y596900D03*
X38100Y571500D03*
X38100Y546100D03*
X38100Y520700D03*
X38100Y495300D03*
X38100Y469900D03*
X38100Y444500D03*
X38100Y419100D03*
X38100Y393700D03*
X38100Y368300D03*
X38100Y342900D03*
X38100Y317500D03*
X38100Y292100D03*
X38100Y266700D03*
X38100Y241300D03*
X38100Y215900D03*
X38100Y190500D03*
X38100Y165100D03*
X38100Y139700D03*
X38100Y114300D03*
X38100Y88900D03*
X38100Y63500D03*
X38100Y38100D03*
X241300Y673100D03*
X241300Y647700D03*
X241300Y622300D03*
X241300Y596900D03*
X241300Y571500D03*
X241300Y546100D03*
X241300Y520700D03*
X241300Y495300D03*
X241300Y469900D03*
X241300Y444500D03*
X241300Y419100D03*
X241300Y393700D03*
X241300Y368300D03*
X241300Y342900D03*
X241300Y317500D03*
X241300Y292100D03*
X241300Y266700D03*
X241300Y241300D03*
X241300Y215900D03*
X241300Y190500D03*
X241300Y165100D03*
X241300Y139700D03*
X241300Y114300D03*
X241300Y88900D03*
X241300Y63500D03*
X241300Y38100D03*
D11*
X468613Y344987D02*
X468613Y352913D01*
X468613Y344987D02*
X466587Y344987D01*
X466587Y352913D01*
X468613Y352913D01*
X468613Y345628D02*
X466587Y345628D01*
X466587Y346269D02*
X468613Y346269D01*
X468613Y346910D02*
X466587Y346910D01*
X466587Y347551D02*
X468613Y347551D01*
X468613Y348192D02*
X466587Y348192D01*
X466587Y348833D02*
X468613Y348833D01*
X468613Y349474D02*
X466587Y349474D01*
X466587Y350115D02*
X468613Y350115D01*
X468613Y350756D02*
X466587Y350756D01*
X466587Y351397D02*
X468613Y351397D01*
X468613Y352038D02*
X466587Y352038D01*
X466587Y352679D02*
X468613Y352679D01*
X473613Y352913D02*
X473613Y344987D01*
X471587Y344987D01*
X471587Y352913D01*
X473613Y352913D01*
X473613Y345628D02*
X471587Y345628D01*
X471587Y346269D02*
X473613Y346269D01*
X473613Y346910D02*
X471587Y346910D01*
X471587Y347551D02*
X473613Y347551D01*
X473613Y348192D02*
X471587Y348192D01*
X471587Y348833D02*
X473613Y348833D01*
X473613Y349474D02*
X471587Y349474D01*
X471587Y350115D02*
X473613Y350115D01*
X473613Y350756D02*
X471587Y350756D01*
X471587Y351397D02*
X473613Y351397D01*
X473613Y352038D02*
X471587Y352038D01*
X471587Y352679D02*
X473613Y352679D01*
X478613Y352913D02*
X478613Y344987D01*
X476587Y344987D01*
X476587Y352913D01*
X478613Y352913D01*
X478613Y345628D02*
X476587Y345628D01*
X476587Y346269D02*
X478613Y346269D01*
X478613Y346910D02*
X476587Y346910D01*
X476587Y347551D02*
X478613Y347551D01*
X478613Y348192D02*
X476587Y348192D01*
X476587Y348833D02*
X478613Y348833D01*
X478613Y349474D02*
X476587Y349474D01*
X476587Y350115D02*
X478613Y350115D01*
X478613Y350756D02*
X476587Y350756D01*
X476587Y351397D02*
X478613Y351397D01*
X478613Y352038D02*
X476587Y352038D01*
X476587Y352679D02*
X478613Y352679D01*
X483613Y352913D02*
X483613Y344987D01*
X481587Y344987D01*
X481587Y352913D01*
X483613Y352913D01*
X483613Y345628D02*
X481587Y345628D01*
X481587Y346269D02*
X483613Y346269D01*
X483613Y346910D02*
X481587Y346910D01*
X481587Y347551D02*
X483613Y347551D01*
X483613Y348192D02*
X481587Y348192D01*
X481587Y348833D02*
X483613Y348833D01*
X483613Y349474D02*
X481587Y349474D01*
X481587Y350115D02*
X483613Y350115D01*
X483613Y350756D02*
X481587Y350756D01*
X481587Y351397D02*
X483613Y351397D01*
X483613Y352038D02*
X481587Y352038D01*
X481587Y352679D02*
X483613Y352679D01*
X488613Y352913D02*
X488613Y344987D01*
X486587Y344987D01*
X486587Y352913D01*
X488613Y352913D01*
X488613Y345628D02*
X486587Y345628D01*
X486587Y346269D02*
X488613Y346269D01*
X488613Y346910D02*
X486587Y346910D01*
X486587Y347551D02*
X488613Y347551D01*
X488613Y348192D02*
X486587Y348192D01*
X486587Y348833D02*
X488613Y348833D01*
X488613Y349474D02*
X486587Y349474D01*
X486587Y350115D02*
X488613Y350115D01*
X488613Y350756D02*
X486587Y350756D01*
X486587Y351397D02*
X488613Y351397D01*
X488613Y352038D02*
X486587Y352038D01*
X486587Y352679D02*
X488613Y352679D01*
X493613Y352913D02*
X493613Y344987D01*
X491587Y344987D01*
X491587Y352913D01*
X493613Y352913D01*
X493613Y345628D02*
X491587Y345628D01*
X491587Y346269D02*
X493613Y346269D01*
X493613Y346910D02*
X491587Y346910D01*
X491587Y347551D02*
X493613Y347551D01*
X493613Y348192D02*
X491587Y348192D01*
X491587Y348833D02*
X493613Y348833D01*
X493613Y349474D02*
X491587Y349474D01*
X491587Y350115D02*
X493613Y350115D01*
X493613Y350756D02*
X491587Y350756D01*
X491587Y351397D02*
X493613Y351397D01*
X493613Y352038D02*
X491587Y352038D01*
X491587Y352679D02*
X493613Y352679D01*
X498613Y352913D02*
X498613Y344987D01*
X496587Y344987D01*
X496587Y352913D01*
X498613Y352913D01*
X498613Y345628D02*
X496587Y345628D01*
X496587Y346269D02*
X498613Y346269D01*
X498613Y346910D02*
X496587Y346910D01*
X496587Y347551D02*
X498613Y347551D01*
X498613Y348192D02*
X496587Y348192D01*
X496587Y348833D02*
X498613Y348833D01*
X498613Y349474D02*
X496587Y349474D01*
X496587Y350115D02*
X498613Y350115D01*
X498613Y350756D02*
X496587Y350756D01*
X496587Y351397D02*
X498613Y351397D01*
X498613Y352038D02*
X496587Y352038D01*
X496587Y352679D02*
X498613Y352679D01*
X496587Y383687D02*
X496587Y391613D01*
X498613Y391613D01*
X498613Y383687D01*
X496587Y383687D01*
X496587Y384328D02*
X498613Y384328D01*
X498613Y384969D02*
X496587Y384969D01*
X496587Y385610D02*
X498613Y385610D01*
X498613Y386251D02*
X496587Y386251D01*
X496587Y386892D02*
X498613Y386892D01*
X498613Y387533D02*
X496587Y387533D01*
X496587Y388174D02*
X498613Y388174D01*
X498613Y388815D02*
X496587Y388815D01*
X496587Y389456D02*
X498613Y389456D01*
X498613Y390097D02*
X496587Y390097D01*
X496587Y390738D02*
X498613Y390738D01*
X498613Y391379D02*
X496587Y391379D01*
X491587Y391613D02*
X491587Y383687D01*
X491587Y391613D02*
X493613Y391613D01*
X493613Y383687D01*
X491587Y383687D01*
X491587Y384328D02*
X493613Y384328D01*
X493613Y384969D02*
X491587Y384969D01*
X491587Y385610D02*
X493613Y385610D01*
X493613Y386251D02*
X491587Y386251D01*
X491587Y386892D02*
X493613Y386892D01*
X493613Y387533D02*
X491587Y387533D01*
X491587Y388174D02*
X493613Y388174D01*
X493613Y388815D02*
X491587Y388815D01*
X491587Y389456D02*
X493613Y389456D01*
X493613Y390097D02*
X491587Y390097D01*
X491587Y390738D02*
X493613Y390738D01*
X493613Y391379D02*
X491587Y391379D01*
X486587Y391613D02*
X486587Y383687D01*
X486587Y391613D02*
X488613Y391613D01*
X488613Y383687D01*
X486587Y383687D01*
X486587Y384328D02*
X488613Y384328D01*
X488613Y384969D02*
X486587Y384969D01*
X486587Y385610D02*
X488613Y385610D01*
X488613Y386251D02*
X486587Y386251D01*
X486587Y386892D02*
X488613Y386892D01*
X488613Y387533D02*
X486587Y387533D01*
X486587Y388174D02*
X488613Y388174D01*
X488613Y388815D02*
X486587Y388815D01*
X486587Y389456D02*
X488613Y389456D01*
X488613Y390097D02*
X486587Y390097D01*
X486587Y390738D02*
X488613Y390738D01*
X488613Y391379D02*
X486587Y391379D01*
X481587Y391613D02*
X481587Y383687D01*
X481587Y391613D02*
X483613Y391613D01*
X483613Y383687D01*
X481587Y383687D01*
X481587Y384328D02*
X483613Y384328D01*
X483613Y384969D02*
X481587Y384969D01*
X481587Y385610D02*
X483613Y385610D01*
X483613Y386251D02*
X481587Y386251D01*
X481587Y386892D02*
X483613Y386892D01*
X483613Y387533D02*
X481587Y387533D01*
X481587Y388174D02*
X483613Y388174D01*
X483613Y388815D02*
X481587Y388815D01*
X481587Y389456D02*
X483613Y389456D01*
X483613Y390097D02*
X481587Y390097D01*
X481587Y390738D02*
X483613Y390738D01*
X483613Y391379D02*
X481587Y391379D01*
X476587Y391613D02*
X476587Y383687D01*
X476587Y391613D02*
X478613Y391613D01*
X478613Y383687D01*
X476587Y383687D01*
X476587Y384328D02*
X478613Y384328D01*
X478613Y384969D02*
X476587Y384969D01*
X476587Y385610D02*
X478613Y385610D01*
X478613Y386251D02*
X476587Y386251D01*
X476587Y386892D02*
X478613Y386892D01*
X478613Y387533D02*
X476587Y387533D01*
X476587Y388174D02*
X478613Y388174D01*
X478613Y388815D02*
X476587Y388815D01*
X476587Y389456D02*
X478613Y389456D01*
X478613Y390097D02*
X476587Y390097D01*
X476587Y390738D02*
X478613Y390738D01*
X478613Y391379D02*
X476587Y391379D01*
X471587Y391613D02*
X471587Y383687D01*
X471587Y391613D02*
X473613Y391613D01*
X473613Y383687D01*
X471587Y383687D01*
X471587Y384328D02*
X473613Y384328D01*
X473613Y384969D02*
X471587Y384969D01*
X471587Y385610D02*
X473613Y385610D01*
X473613Y386251D02*
X471587Y386251D01*
X471587Y386892D02*
X473613Y386892D01*
X473613Y387533D02*
X471587Y387533D01*
X471587Y388174D02*
X473613Y388174D01*
X473613Y388815D02*
X471587Y388815D01*
X471587Y389456D02*
X473613Y389456D01*
X473613Y390097D02*
X471587Y390097D01*
X471587Y390738D02*
X473613Y390738D01*
X473613Y391379D02*
X471587Y391379D01*
X466587Y391613D02*
X466587Y383687D01*
X466587Y391613D02*
X468613Y391613D01*
X468613Y383687D01*
X466587Y383687D01*
X466587Y384328D02*
X468613Y384328D01*
X468613Y384969D02*
X466587Y384969D01*
X466587Y385610D02*
X468613Y385610D01*
X468613Y386251D02*
X466587Y386251D01*
X466587Y386892D02*
X468613Y386892D01*
X468613Y387533D02*
X466587Y387533D01*
X466587Y388174D02*
X468613Y388174D01*
X468613Y388815D02*
X466587Y388815D01*
X466587Y389456D02*
X468613Y389456D01*
X468613Y390097D02*
X466587Y390097D01*
X466587Y390738D02*
X468613Y390738D01*
X468613Y391379D02*
X466587Y391379D01*
D12*
X482600Y368300D03*
D13*
X338300Y599600D03*
X338300Y619600D03*
X515800Y619600D03*
X515800Y599600D03*
X437050Y510850D03*
X417050Y510850D03*
D14*
X381000Y298450D02*
X381000Y283210D01*
X406400Y283210D02*
X406400Y298450D01*
X431800Y298450D02*
X431800Y283210D01*
X457200Y283210D02*
X457200Y298450D01*
X482600Y298450D02*
X482600Y283210D01*
X508000Y283210D02*
X508000Y298450D01*
X533400Y298450D02*
X533400Y283210D01*
X558800Y283210D02*
X558800Y298450D01*
X584200Y298450D02*
X584200Y283210D01*
X381000Y438150D02*
X381000Y453390D01*
X406400Y453390D02*
X406400Y438150D01*
X431800Y438150D02*
X431800Y453390D01*
X457200Y453390D02*
X457200Y438150D01*
X482600Y438150D02*
X482600Y453390D01*
X508000Y453390D02*
X508000Y438150D01*
X533400Y438150D02*
X533400Y453390D01*
X558800Y453390D02*
X558800Y438150D01*
X584200Y438150D02*
X584200Y453390D01*
D15*
X304800Y520700D03*
X304800Y622300D03*
D16*
X444500Y165100D03*
X546100Y165100D03*
X444500Y215900D03*
X546100Y215900D03*
D17*
X596900Y492760D03*
X495300Y492760D03*
D18*
X589280Y119380D03*
X314960Y439420D03*
D19*
X581660Y576580D03*
X581660Y601980D03*
X581660Y627380D03*
D16*
X497840Y706120D03*
X599440Y706120D03*
X525780Y548640D03*
X576580Y548640D03*
D20*
X325120Y703580D03*
X325120Y652780D03*
D16*
X299720Y48260D03*
X350520Y48260D03*
D21*
X328090Y158450D03*
X328090Y145950D03*
X328090Y133450D03*
X328090Y120950D03*
X357710Y120950D03*
X357710Y133450D03*
X357710Y145950D03*
X357710Y158450D03*
D22*
X101600Y734060D03*
X127000Y734060D03*
X152400Y734060D03*
X177800Y734060D03*
D16*
X330200Y762000D03*
X381000Y762000D03*
X241300Y762000D03*
X292100Y762000D03*
D23*
X558800Y290830D02*
X584200Y290830D01*
D24*
X531590Y314960D02*
X497600Y348950D01*
X531590Y314960D02*
X548640Y314960D01*
X558800Y304800D01*
X558800Y290830D01*
X467600Y348950D02*
X428022Y309372D01*
X427276Y309372D01*
X408734Y290830D02*
X406400Y290830D01*
X408734Y290830D02*
X427276Y309372D01*
X406400Y290830D02*
X381000Y290830D01*
D25*
X350520Y68580D02*
X350520Y48260D01*
X314843Y125213D02*
X316629Y126998D01*
X314843Y125213D02*
X314843Y104257D01*
X350520Y68580D01*
X321638Y126998D02*
X328090Y133450D01*
X321638Y126998D02*
X316629Y126998D01*
X482600Y387650D02*
X482600Y445770D01*
X599440Y619760D02*
X599440Y706120D01*
X599440Y619760D02*
X581660Y601980D01*
X528320Y548640D01*
X525780Y548640D01*
X482600Y505460D02*
X482600Y445770D01*
X482600Y505460D02*
X525780Y548640D01*
D24*
X477600Y348950D02*
X477600Y332820D01*
X457200Y312420D02*
X457200Y290830D01*
X457200Y312420D02*
X477600Y332820D01*
X457200Y290830D02*
X457200Y256540D01*
X429260Y228600D01*
X429260Y180340D01*
X431800Y177800D01*
X444500Y165100D01*
D25*
X300260Y215900D02*
X241300Y215900D01*
X381000Y177800D02*
X431800Y177800D01*
X357710Y158450D02*
X300260Y215900D01*
X357710Y158450D02*
X377060Y177800D01*
X381000Y177800D01*
X487600Y387650D02*
X488202Y388252D01*
X488202Y393762D01*
X490220Y395780D01*
X490220Y408940D02*
X508000Y426720D01*
X508000Y445770D01*
X490220Y408940D02*
X490220Y395780D01*
D24*
X508000Y445770D02*
X508000Y480060D01*
X495300Y492760D01*
D25*
X493202Y388252D02*
X492600Y387650D01*
X493202Y388252D02*
X493202Y393015D01*
X533400Y433213D02*
X533400Y445770D01*
X533400Y433213D02*
X493202Y393015D01*
D24*
X533400Y445770D02*
X580390Y492760D01*
X596900Y492760D01*
D25*
X467600Y387650D02*
X427768Y427482D01*
X427381Y427482D01*
X409093Y445770D02*
X406400Y445770D01*
X409093Y445770D02*
X427381Y427482D01*
D24*
X406400Y445770D02*
X331470Y520700D01*
X304800Y520700D01*
X472600Y348950D02*
X472600Y340520D01*
X431800Y299720D02*
X431800Y290830D01*
X431800Y299720D02*
X472600Y340520D01*
X487600Y348950D02*
X487948Y348602D01*
X487948Y342014D01*
X490220Y339742D01*
X508000Y307340D02*
X508000Y290830D01*
X490220Y325120D02*
X490220Y339742D01*
X490220Y325120D02*
X508000Y307340D01*
D25*
X472600Y387650D02*
X471998Y388252D01*
X471998Y393015D01*
X431800Y433213D02*
X431800Y445770D01*
X431800Y433213D02*
X471998Y393015D01*
D24*
X431800Y445770D02*
X398780Y478790D01*
X398780Y535940D01*
X398780Y539120D01*
D25*
X338300Y599600D01*
D24*
X482600Y348950D02*
X482600Y290830D01*
X482600Y254000D01*
X444500Y215900D01*
D25*
X457200Y203200D01*
X457200Y152400D01*
X450750Y145950D01*
X381100Y145950D01*
X381000Y146050D01*
D26*
X381000Y146050D03*
D25*
X380900Y145950D01*
X381100Y145950D02*
X357710Y145950D01*
X477600Y387650D02*
X477600Y398700D01*
X464820Y438150D02*
X457200Y445770D01*
X464820Y411480D02*
X477600Y398700D01*
X464820Y411480D02*
X464820Y438150D01*
D24*
X457200Y445770D02*
X457200Y541000D01*
X515800Y599600D01*
X515800Y619600D01*
X338300Y619600D02*
X335600Y622300D01*
X304800Y622300D01*
X388620Y388620D02*
X241300Y241300D01*
X388620Y388620D02*
X444500Y388620D01*
X497600Y387650D02*
X508000Y387650D01*
X508000Y388620D01*
D26*
X508000Y388620D03*
X444500Y388620D03*
D25*
X508000Y388620D02*
X558800Y439420D01*
X558800Y445770D01*
X241300Y673100D02*
X121920Y553720D01*
X121920Y116840D01*
X43180Y38100D01*
X325120Y703580D02*
X495300Y703580D01*
X299720Y48260D02*
X269240Y17780D01*
X58420Y17780D01*
X299720Y48260D02*
X304800Y53340D01*
X304800Y152400D01*
X311867Y159467D01*
X327074Y159467D01*
X495300Y703580D02*
X497840Y706120D01*
X38100Y38100D02*
X58420Y17780D01*
X492600Y348950D02*
X493202Y348348D01*
X493202Y343585D01*
X533400Y303387D02*
X533400Y290830D01*
X533400Y303387D02*
X493202Y343585D01*
X533400Y290830D02*
X533400Y228600D01*
X546100Y215900D01*
D27*
X241300Y673100D02*
X177800Y736600D01*
D25*
X177800Y734060D02*
X205740Y762000D01*
X241300Y762000D01*
X254000Y749300D01*
X317500Y749300D02*
X330200Y762000D01*
X317500Y749300D02*
X254000Y749300D01*
X325120Y703580D02*
X330200Y708660D01*
X330200Y762000D01*
X43180Y38100D02*
X38100Y38100D01*
X38100Y469900D02*
X76200Y508000D01*
X76200Y683260D02*
X127000Y734060D01*
X76200Y683260D02*
X76200Y508000D01*
M02*
