G04 EAGLE Gerber RS-274X export*
G75*
%MOMM*%
%FSLAX34Y34*%
%LPD*%
%INBottom Copper*%
%IPPOS*%
%AMOC8*
5,1,8,0,0,1.08239X$1,22.5*%
G01*
%ADD10P,1.632244X8X292.500000*%
%ADD11R,1.508000X1.508000*%
%ADD12C,1.524000*%
%ADD13P,1.429621X8X112.500000*%
%ADD14P,1.429621X8X22.500000*%
%ADD15P,1.429621X8X202.500000*%
%ADD16C,2.400000*%
%ADD17C,1.400000*%
%ADD18P,1.429621X8X292.500000*%
%ADD19P,1.632244X8X22.500000*%
%ADD20C,0.756400*%
%ADD21C,0.203200*%
%ADD22C,0.254000*%

G36*
X583972Y11950D02*
X583972Y11950D01*
X584043Y11952D01*
X584092Y11970D01*
X584144Y11979D01*
X584207Y12012D01*
X584274Y12037D01*
X584315Y12069D01*
X584361Y12094D01*
X584410Y12146D01*
X584466Y12190D01*
X584495Y12234D01*
X584530Y12272D01*
X584561Y12337D01*
X584599Y12397D01*
X584612Y12448D01*
X584634Y12495D01*
X584642Y12566D01*
X584659Y12636D01*
X584655Y12688D01*
X584661Y12739D01*
X584646Y12810D01*
X584640Y12881D01*
X584620Y12929D01*
X584609Y12980D01*
X584572Y13041D01*
X584544Y13107D01*
X584499Y13163D01*
X584483Y13191D01*
X584465Y13206D01*
X584439Y13238D01*
X582140Y15538D01*
X579489Y21937D01*
X579489Y28863D01*
X582140Y35262D01*
X587038Y40160D01*
X593437Y42811D01*
X600363Y42811D01*
X606762Y40160D01*
X609062Y37861D01*
X609120Y37819D01*
X609172Y37770D01*
X609219Y37748D01*
X609261Y37717D01*
X609330Y37696D01*
X609395Y37666D01*
X609447Y37660D01*
X609497Y37645D01*
X609568Y37647D01*
X609639Y37639D01*
X609690Y37650D01*
X609742Y37651D01*
X609810Y37676D01*
X609880Y37691D01*
X609924Y37718D01*
X609973Y37736D01*
X610029Y37781D01*
X610091Y37817D01*
X610125Y37857D01*
X610165Y37889D01*
X610204Y37950D01*
X610251Y38004D01*
X610270Y38053D01*
X610298Y38096D01*
X610316Y38166D01*
X610343Y38232D01*
X610351Y38304D01*
X610359Y38335D01*
X610357Y38358D01*
X610361Y38399D01*
X610361Y774700D01*
X610358Y774720D01*
X610360Y774739D01*
X610338Y774841D01*
X610322Y774943D01*
X610312Y774960D01*
X610308Y774980D01*
X610255Y775069D01*
X610206Y775160D01*
X610192Y775174D01*
X610182Y775191D01*
X610103Y775258D01*
X610028Y775330D01*
X610010Y775338D01*
X609995Y775351D01*
X609899Y775390D01*
X609805Y775433D01*
X609785Y775435D01*
X609767Y775443D01*
X609600Y775461D01*
X38399Y775461D01*
X38328Y775450D01*
X38257Y775448D01*
X38208Y775430D01*
X38156Y775422D01*
X38093Y775388D01*
X38026Y775363D01*
X37985Y775331D01*
X37939Y775306D01*
X37890Y775255D01*
X37834Y775210D01*
X37805Y775166D01*
X37770Y775128D01*
X37739Y775063D01*
X37701Y775003D01*
X37688Y774952D01*
X37666Y774905D01*
X37658Y774834D01*
X37641Y774764D01*
X37645Y774712D01*
X37639Y774661D01*
X37654Y774590D01*
X37660Y774519D01*
X37680Y774471D01*
X37691Y774420D01*
X37728Y774359D01*
X37756Y774293D01*
X37801Y774237D01*
X37817Y774209D01*
X37835Y774194D01*
X37861Y774162D01*
X40160Y771862D01*
X42811Y765463D01*
X42811Y758537D01*
X40160Y752138D01*
X35262Y747240D01*
X28863Y744589D01*
X21937Y744589D01*
X15538Y747240D01*
X13238Y749539D01*
X13180Y749581D01*
X13128Y749630D01*
X13081Y749652D01*
X13039Y749683D01*
X12970Y749704D01*
X12905Y749734D01*
X12853Y749740D01*
X12803Y749755D01*
X12732Y749753D01*
X12661Y749761D01*
X12610Y749750D01*
X12558Y749749D01*
X12490Y749724D01*
X12420Y749709D01*
X12376Y749682D01*
X12327Y749664D01*
X12271Y749619D01*
X12209Y749583D01*
X12175Y749543D01*
X12135Y749511D01*
X12096Y749450D01*
X12049Y749396D01*
X12030Y749347D01*
X12002Y749304D01*
X11984Y749234D01*
X11957Y749168D01*
X11949Y749096D01*
X11941Y749065D01*
X11943Y749042D01*
X11939Y749001D01*
X11939Y12700D01*
X11942Y12680D01*
X11940Y12661D01*
X11962Y12559D01*
X11979Y12457D01*
X11988Y12440D01*
X11992Y12420D01*
X12045Y12331D01*
X12094Y12240D01*
X12108Y12226D01*
X12118Y12209D01*
X12197Y12142D01*
X12272Y12071D01*
X12290Y12062D01*
X12305Y12049D01*
X12401Y12010D01*
X12495Y11967D01*
X12515Y11965D01*
X12533Y11957D01*
X12700Y11939D01*
X583901Y11939D01*
X583972Y11950D01*
G37*
%LPC*%
G36*
X296143Y39623D02*
X296143Y39623D01*
X291083Y44683D01*
X291083Y51837D01*
X296143Y56897D01*
X303385Y56897D01*
X303469Y56876D01*
X303568Y56845D01*
X303588Y56846D01*
X303607Y56841D01*
X303710Y56849D01*
X303814Y56852D01*
X303832Y56858D01*
X303852Y56860D01*
X303928Y56892D01*
X303930Y56893D01*
X303947Y56900D01*
X304045Y56936D01*
X304060Y56949D01*
X304079Y56956D01*
X304136Y57002D01*
X304146Y57007D01*
X304157Y57019D01*
X304210Y57061D01*
X400588Y153440D01*
X402597Y155449D01*
X440099Y155449D01*
X440170Y155460D01*
X440242Y155462D01*
X440291Y155480D01*
X440342Y155488D01*
X440405Y155522D01*
X440473Y155547D01*
X440513Y155579D01*
X440559Y155604D01*
X440609Y155656D01*
X440665Y155700D01*
X440693Y155744D01*
X440729Y155782D01*
X440759Y155847D01*
X440798Y155907D01*
X440810Y155958D01*
X440832Y156005D01*
X440840Y156076D01*
X440858Y156146D01*
X440854Y156198D01*
X440860Y156249D01*
X440844Y156320D01*
X440839Y156391D01*
X440818Y156439D01*
X440807Y156490D01*
X440770Y156551D01*
X440742Y156617D01*
X440698Y156673D01*
X440681Y156701D01*
X440663Y156716D01*
X440638Y156748D01*
X435863Y161523D01*
X435863Y168677D01*
X440923Y173737D01*
X448077Y173737D01*
X453137Y168677D01*
X453137Y161523D01*
X448362Y156748D01*
X448321Y156690D01*
X448271Y156638D01*
X448249Y156591D01*
X448219Y156549D01*
X448198Y156480D01*
X448168Y156415D01*
X448162Y156363D01*
X448147Y156313D01*
X448148Y156242D01*
X448140Y156171D01*
X448152Y156120D01*
X448153Y156068D01*
X448178Y156000D01*
X448193Y155930D01*
X448219Y155885D01*
X448237Y155837D01*
X448282Y155781D01*
X448319Y155719D01*
X448358Y155685D01*
X448391Y155645D01*
X448451Y155606D01*
X448506Y155559D01*
X448554Y155540D01*
X448598Y155512D01*
X448667Y155494D01*
X448734Y155467D01*
X448805Y155459D01*
X448836Y155451D01*
X448860Y155453D01*
X448901Y155449D01*
X531822Y155449D01*
X531912Y155463D01*
X532003Y155471D01*
X532033Y155483D01*
X532065Y155488D01*
X532145Y155531D01*
X532229Y155567D01*
X532261Y155593D01*
X532282Y155604D01*
X532304Y155627D01*
X532360Y155672D01*
X537299Y160610D01*
X537311Y160627D01*
X537326Y160639D01*
X537355Y160684D01*
X537385Y160716D01*
X537405Y160757D01*
X537442Y160810D01*
X537448Y160829D01*
X537459Y160846D01*
X537475Y160909D01*
X537489Y160939D01*
X537493Y160973D01*
X537515Y161045D01*
X537514Y161065D01*
X537519Y161085D01*
X537513Y161160D01*
X537516Y161183D01*
X537511Y161208D01*
X537508Y161291D01*
X537502Y161310D01*
X537500Y161330D01*
X537467Y161407D01*
X537464Y161424D01*
X537463Y161424D01*
X537463Y168677D01*
X542585Y173799D01*
X542659Y173843D01*
X542750Y173892D01*
X542764Y173906D01*
X542781Y173916D01*
X542848Y173995D01*
X542920Y174070D01*
X542928Y174088D01*
X542941Y174103D01*
X542980Y174199D01*
X543023Y174293D01*
X543025Y174313D01*
X543033Y174331D01*
X543051Y174498D01*
X543051Y206502D01*
X543048Y206522D01*
X543050Y206541D01*
X543028Y206643D01*
X543012Y206745D01*
X543002Y206762D01*
X542998Y206782D01*
X542945Y206871D01*
X542896Y206962D01*
X542882Y206976D01*
X542872Y206993D01*
X542793Y207060D01*
X542718Y207132D01*
X542700Y207140D01*
X542685Y207153D01*
X542598Y207188D01*
X537463Y212323D01*
X537463Y219477D01*
X542523Y224537D01*
X549677Y224537D01*
X554737Y219477D01*
X554737Y212323D01*
X549615Y207201D01*
X549541Y207157D01*
X549450Y207108D01*
X549436Y207094D01*
X549419Y207084D01*
X549352Y207005D01*
X549280Y206930D01*
X549272Y206912D01*
X549259Y206897D01*
X549220Y206800D01*
X549177Y206707D01*
X549175Y206687D01*
X549167Y206669D01*
X549149Y206502D01*
X549149Y174498D01*
X549152Y174478D01*
X549150Y174459D01*
X549172Y174357D01*
X549188Y174255D01*
X549198Y174238D01*
X549202Y174218D01*
X549255Y174129D01*
X549304Y174038D01*
X549318Y174024D01*
X549328Y174007D01*
X549407Y173940D01*
X549482Y173868D01*
X549500Y173860D01*
X549515Y173847D01*
X549602Y173812D01*
X554737Y168677D01*
X554737Y161523D01*
X549677Y156463D01*
X542435Y156463D01*
X542351Y156484D01*
X542252Y156515D01*
X542232Y156514D01*
X542213Y156519D01*
X542110Y156511D01*
X542006Y156508D01*
X541988Y156502D01*
X541968Y156500D01*
X541873Y156460D01*
X541775Y156424D01*
X541760Y156411D01*
X541741Y156404D01*
X541610Y156299D01*
X534663Y149351D01*
X405438Y149351D01*
X405348Y149337D01*
X405257Y149329D01*
X405227Y149317D01*
X405195Y149312D01*
X405115Y149269D01*
X405031Y149233D01*
X404999Y149207D01*
X404978Y149196D01*
X404956Y149173D01*
X404900Y149128D01*
X308521Y52750D01*
X308509Y52733D01*
X308494Y52721D01*
X308438Y52634D01*
X308378Y52550D01*
X308372Y52531D01*
X308361Y52514D01*
X308336Y52413D01*
X308305Y52315D01*
X308306Y52295D01*
X308301Y52275D01*
X308309Y52172D01*
X308312Y52069D01*
X308318Y52050D01*
X308320Y52030D01*
X308357Y51944D01*
X308357Y44683D01*
X303297Y39623D01*
X296143Y39623D01*
G37*
%LPD*%
%LPC*%
G36*
X379843Y140235D02*
X379843Y140235D01*
X377706Y141121D01*
X376048Y142778D01*
X375974Y142831D01*
X375905Y142891D01*
X375875Y142903D01*
X375849Y142922D01*
X375762Y142949D01*
X375677Y142983D01*
X375636Y142987D01*
X375614Y142994D01*
X375581Y142993D01*
X375510Y143001D01*
X284487Y143001D01*
X246451Y181037D01*
X246435Y181049D01*
X246423Y181064D01*
X246335Y181120D01*
X246252Y181181D01*
X246233Y181186D01*
X246216Y181197D01*
X246115Y181222D01*
X246017Y181253D01*
X245997Y181252D01*
X245977Y181257D01*
X245874Y181249D01*
X245771Y181247D01*
X245752Y181240D01*
X245732Y181238D01*
X245637Y181198D01*
X245540Y181162D01*
X245524Y181150D01*
X245506Y181142D01*
X245375Y181037D01*
X245265Y180927D01*
X237335Y180927D01*
X231727Y186535D01*
X231727Y194465D01*
X237335Y200073D01*
X245265Y200073D01*
X250873Y194465D01*
X250873Y186535D01*
X250763Y186425D01*
X250751Y186409D01*
X250736Y186396D01*
X250680Y186309D01*
X250619Y186225D01*
X250614Y186206D01*
X250603Y186190D01*
X250578Y186089D01*
X250547Y185990D01*
X250548Y185970D01*
X250543Y185951D01*
X250551Y185848D01*
X250553Y185744D01*
X250560Y185726D01*
X250562Y185706D01*
X250602Y185611D01*
X250638Y185513D01*
X250650Y185498D01*
X250658Y185480D01*
X250763Y185349D01*
X286790Y149322D01*
X286864Y149269D01*
X286933Y149209D01*
X286963Y149197D01*
X286990Y149178D01*
X287077Y149151D01*
X287161Y149117D01*
X287202Y149113D01*
X287225Y149106D01*
X287257Y149107D01*
X287328Y149099D01*
X375510Y149099D01*
X375600Y149113D01*
X375691Y149121D01*
X375721Y149133D01*
X375753Y149138D01*
X375834Y149181D01*
X375917Y149217D01*
X375950Y149243D01*
X375970Y149254D01*
X375992Y149277D01*
X376048Y149322D01*
X377706Y150979D01*
X379843Y151865D01*
X382157Y151865D01*
X384294Y150979D01*
X385929Y149344D01*
X386815Y147207D01*
X386815Y144893D01*
X385929Y142756D01*
X384294Y141121D01*
X382157Y140235D01*
X379843Y140235D01*
G37*
%LPD*%
%LPC*%
G36*
X408668Y501277D02*
X408668Y501277D01*
X407477Y502468D01*
X407477Y519232D01*
X408668Y520423D01*
X425432Y520423D01*
X426512Y519343D01*
X426528Y519331D01*
X426540Y519316D01*
X426628Y519260D01*
X426711Y519199D01*
X426730Y519194D01*
X426747Y519183D01*
X426848Y519158D01*
X426947Y519127D01*
X426966Y519128D01*
X426986Y519123D01*
X427089Y519131D01*
X427192Y519133D01*
X427211Y519140D01*
X427231Y519142D01*
X427326Y519182D01*
X427423Y519218D01*
X427439Y519230D01*
X427457Y519238D01*
X427588Y519343D01*
X428668Y520423D01*
X445432Y520423D01*
X446623Y519232D01*
X446623Y502468D01*
X445432Y501277D01*
X428668Y501277D01*
X427588Y502357D01*
X427572Y502369D01*
X427560Y502384D01*
X427472Y502440D01*
X427389Y502501D01*
X427370Y502506D01*
X427353Y502517D01*
X427252Y502542D01*
X427153Y502573D01*
X427134Y502572D01*
X427114Y502577D01*
X427011Y502569D01*
X426908Y502567D01*
X426889Y502560D01*
X426869Y502558D01*
X426774Y502518D01*
X426677Y502482D01*
X426661Y502470D01*
X426643Y502462D01*
X426512Y502357D01*
X425432Y501277D01*
X408668Y501277D01*
G37*
%LPD*%
%LPC*%
G36*
X329918Y590027D02*
X329918Y590027D01*
X328727Y591218D01*
X328727Y607982D01*
X329807Y609062D01*
X329819Y609078D01*
X329834Y609090D01*
X329890Y609178D01*
X329951Y609261D01*
X329956Y609280D01*
X329967Y609297D01*
X329992Y609398D01*
X330023Y609497D01*
X330022Y609516D01*
X330027Y609536D01*
X330019Y609639D01*
X330017Y609742D01*
X330010Y609761D01*
X330008Y609781D01*
X329968Y609876D01*
X329932Y609973D01*
X329920Y609989D01*
X329912Y610007D01*
X329807Y610138D01*
X328727Y611218D01*
X328727Y627982D01*
X329918Y629173D01*
X346682Y629173D01*
X347873Y627982D01*
X347873Y611218D01*
X346793Y610138D01*
X346781Y610122D01*
X346766Y610110D01*
X346710Y610022D01*
X346649Y609939D01*
X346644Y609920D01*
X346633Y609903D01*
X346608Y609802D01*
X346577Y609703D01*
X346578Y609684D01*
X346573Y609664D01*
X346581Y609561D01*
X346583Y609458D01*
X346590Y609439D01*
X346592Y609419D01*
X346632Y609324D01*
X346668Y609227D01*
X346680Y609211D01*
X346688Y609193D01*
X346793Y609062D01*
X347873Y607982D01*
X347873Y591218D01*
X346682Y590027D01*
X329918Y590027D01*
G37*
%LPD*%
%LPC*%
G36*
X507418Y590027D02*
X507418Y590027D01*
X506227Y591218D01*
X506227Y607982D01*
X507307Y609062D01*
X507319Y609078D01*
X507334Y609090D01*
X507390Y609178D01*
X507451Y609261D01*
X507456Y609280D01*
X507467Y609297D01*
X507492Y609398D01*
X507523Y609497D01*
X507522Y609516D01*
X507527Y609536D01*
X507519Y609639D01*
X507517Y609742D01*
X507510Y609761D01*
X507508Y609781D01*
X507468Y609876D01*
X507432Y609973D01*
X507420Y609989D01*
X507412Y610007D01*
X507307Y610138D01*
X506227Y611218D01*
X506227Y627982D01*
X507418Y629173D01*
X524182Y629173D01*
X525373Y627982D01*
X525373Y611218D01*
X524293Y610138D01*
X524281Y610122D01*
X524266Y610110D01*
X524210Y610022D01*
X524149Y609939D01*
X524144Y609920D01*
X524133Y609903D01*
X524108Y609802D01*
X524077Y609703D01*
X524078Y609684D01*
X524073Y609664D01*
X524081Y609561D01*
X524083Y609458D01*
X524090Y609439D01*
X524092Y609419D01*
X524132Y609324D01*
X524168Y609227D01*
X524180Y609211D01*
X524188Y609193D01*
X524293Y609062D01*
X525373Y607982D01*
X525373Y591218D01*
X524182Y590027D01*
X507418Y590027D01*
G37*
%LPD*%
%LPC*%
G36*
X429880Y428497D02*
X429880Y428497D01*
X426332Y429967D01*
X423617Y432682D01*
X422147Y436230D01*
X422147Y455310D01*
X423617Y458858D01*
X426332Y461573D01*
X429880Y463043D01*
X433720Y463043D01*
X437268Y461573D01*
X439983Y458858D01*
X441453Y455310D01*
X441453Y436230D01*
X439983Y432682D01*
X437268Y429967D01*
X433720Y428497D01*
X429880Y428497D01*
G37*
%LPD*%
%LPC*%
G36*
X404480Y428497D02*
X404480Y428497D01*
X400932Y429967D01*
X398217Y432682D01*
X396747Y436230D01*
X396747Y455310D01*
X398217Y458858D01*
X400932Y461573D01*
X404480Y463043D01*
X408320Y463043D01*
X411868Y461573D01*
X414583Y458858D01*
X416053Y455310D01*
X416053Y436230D01*
X414583Y432682D01*
X411868Y429967D01*
X408320Y428497D01*
X404480Y428497D01*
G37*
%LPD*%
%LPC*%
G36*
X556880Y428497D02*
X556880Y428497D01*
X553332Y429967D01*
X550617Y432682D01*
X549147Y436230D01*
X549147Y455310D01*
X550617Y458858D01*
X553332Y461573D01*
X556880Y463043D01*
X560720Y463043D01*
X564268Y461573D01*
X566983Y458858D01*
X568453Y455310D01*
X568453Y436230D01*
X566983Y432682D01*
X564268Y429967D01*
X560720Y428497D01*
X556880Y428497D01*
G37*
%LPD*%
%LPC*%
G36*
X455280Y428497D02*
X455280Y428497D01*
X451732Y429967D01*
X449017Y432682D01*
X447547Y436230D01*
X447547Y455310D01*
X449017Y458858D01*
X451732Y461573D01*
X455280Y463043D01*
X459120Y463043D01*
X462668Y461573D01*
X465383Y458858D01*
X466853Y455310D01*
X466853Y436230D01*
X465383Y432682D01*
X462668Y429967D01*
X459120Y428497D01*
X455280Y428497D01*
G37*
%LPD*%
%LPC*%
G36*
X531480Y273557D02*
X531480Y273557D01*
X527932Y275027D01*
X525217Y277742D01*
X523747Y281290D01*
X523747Y300370D01*
X525217Y303918D01*
X527932Y306633D01*
X531480Y308103D01*
X535320Y308103D01*
X538868Y306633D01*
X541583Y303918D01*
X543053Y300370D01*
X543053Y281290D01*
X541583Y277742D01*
X538868Y275027D01*
X535320Y273557D01*
X531480Y273557D01*
G37*
%LPD*%
%LPC*%
G36*
X506080Y273557D02*
X506080Y273557D01*
X502532Y275027D01*
X499817Y277742D01*
X498347Y281290D01*
X498347Y300370D01*
X499817Y303918D01*
X502532Y306633D01*
X506080Y308103D01*
X509920Y308103D01*
X513468Y306633D01*
X516183Y303918D01*
X517653Y300370D01*
X517653Y281290D01*
X516183Y277742D01*
X513468Y275027D01*
X509920Y273557D01*
X506080Y273557D01*
G37*
%LPD*%
%LPC*%
G36*
X429880Y273557D02*
X429880Y273557D01*
X426332Y275027D01*
X423617Y277742D01*
X422147Y281290D01*
X422147Y300370D01*
X423617Y303918D01*
X426332Y306633D01*
X429880Y308103D01*
X433720Y308103D01*
X437268Y306633D01*
X439983Y303918D01*
X441453Y300370D01*
X441453Y281290D01*
X439983Y277742D01*
X437268Y275027D01*
X433720Y273557D01*
X429880Y273557D01*
G37*
%LPD*%
%LPC*%
G36*
X455280Y273557D02*
X455280Y273557D01*
X451732Y275027D01*
X449017Y277742D01*
X447547Y281290D01*
X447547Y300370D01*
X449017Y303918D01*
X451732Y306633D01*
X455280Y308103D01*
X459120Y308103D01*
X462668Y306633D01*
X465383Y303918D01*
X466853Y300370D01*
X466853Y281290D01*
X465383Y277742D01*
X462668Y275027D01*
X459120Y273557D01*
X455280Y273557D01*
G37*
%LPD*%
%LPC*%
G36*
X480680Y273557D02*
X480680Y273557D01*
X477132Y275027D01*
X474417Y277742D01*
X472947Y281290D01*
X472947Y300370D01*
X474417Y303918D01*
X477132Y306633D01*
X480680Y308103D01*
X484520Y308103D01*
X488068Y306633D01*
X490783Y303918D01*
X492253Y300370D01*
X492253Y281290D01*
X490783Y277742D01*
X488068Y275027D01*
X484520Y273557D01*
X480680Y273557D01*
G37*
%LPD*%
%LPC*%
G36*
X480680Y428497D02*
X480680Y428497D01*
X477132Y429967D01*
X474417Y432682D01*
X472947Y436230D01*
X472947Y455310D01*
X474417Y458858D01*
X477132Y461573D01*
X480680Y463043D01*
X484520Y463043D01*
X488068Y461573D01*
X490783Y458858D01*
X492253Y455310D01*
X492253Y436230D01*
X490783Y432682D01*
X488068Y429967D01*
X484520Y428497D01*
X480680Y428497D01*
G37*
%LPD*%
%LPC*%
G36*
X506080Y428497D02*
X506080Y428497D01*
X502532Y429967D01*
X499817Y432682D01*
X498347Y436230D01*
X498347Y455310D01*
X499817Y458858D01*
X502532Y461573D01*
X506080Y463043D01*
X509920Y463043D01*
X513468Y461573D01*
X516183Y458858D01*
X517653Y455310D01*
X517653Y436230D01*
X516183Y432682D01*
X513468Y429967D01*
X509920Y428497D01*
X506080Y428497D01*
G37*
%LPD*%
%LPC*%
G36*
X531480Y428497D02*
X531480Y428497D01*
X527932Y429967D01*
X525217Y432682D01*
X523747Y436230D01*
X523747Y455310D01*
X525217Y458858D01*
X527932Y461573D01*
X531480Y463043D01*
X535320Y463043D01*
X538868Y461573D01*
X541583Y458858D01*
X543053Y455310D01*
X543053Y436230D01*
X541583Y432682D01*
X538868Y429967D01*
X535320Y428497D01*
X531480Y428497D01*
G37*
%LPD*%
%LPC*%
G36*
X443343Y382805D02*
X443343Y382805D01*
X441206Y383691D01*
X439571Y385326D01*
X438685Y387463D01*
X438685Y389777D01*
X439571Y391914D01*
X441206Y393549D01*
X443343Y394435D01*
X445657Y394435D01*
X447794Y393549D01*
X449198Y392146D01*
X449272Y392093D01*
X449341Y392033D01*
X449371Y392021D01*
X449397Y392002D01*
X449484Y391975D01*
X449569Y391941D01*
X449610Y391937D01*
X449632Y391930D01*
X449665Y391931D01*
X449736Y391923D01*
X502764Y391923D01*
X502854Y391937D01*
X502945Y391945D01*
X502975Y391957D01*
X503007Y391962D01*
X503088Y392005D01*
X503171Y392041D01*
X503204Y392067D01*
X503224Y392078D01*
X503246Y392101D01*
X503302Y392146D01*
X504706Y393549D01*
X506843Y394435D01*
X509157Y394435D01*
X511294Y393549D01*
X512929Y391914D01*
X513815Y389777D01*
X513815Y387463D01*
X512929Y385326D01*
X511294Y383691D01*
X509157Y382805D01*
X506843Y382805D01*
X504706Y383691D01*
X503302Y385094D01*
X503228Y385147D01*
X503159Y385207D01*
X503129Y385219D01*
X503103Y385238D01*
X503016Y385265D01*
X502931Y385299D01*
X502890Y385303D01*
X502868Y385310D01*
X502835Y385309D01*
X502764Y385317D01*
X449736Y385317D01*
X449646Y385303D01*
X449555Y385295D01*
X449525Y385283D01*
X449493Y385278D01*
X449412Y385235D01*
X449329Y385199D01*
X449296Y385173D01*
X449276Y385162D01*
X449254Y385139D01*
X449198Y385094D01*
X447794Y383691D01*
X445657Y382805D01*
X443343Y382805D01*
G37*
%LPD*%
%LPC*%
G36*
X237335Y434927D02*
X237335Y434927D01*
X231727Y440535D01*
X231727Y448465D01*
X237335Y454073D01*
X245265Y454073D01*
X250873Y448465D01*
X250873Y440535D01*
X245265Y434927D01*
X237335Y434927D01*
G37*
%LPD*%
%LPC*%
G36*
X34135Y434927D02*
X34135Y434927D01*
X28527Y440535D01*
X28527Y448465D01*
X34135Y454073D01*
X42065Y454073D01*
X47673Y448465D01*
X47673Y440535D01*
X42065Y434927D01*
X34135Y434927D01*
G37*
%LPD*%
%LPC*%
G36*
X34135Y485727D02*
X34135Y485727D01*
X28527Y491335D01*
X28527Y499265D01*
X34135Y504873D01*
X42065Y504873D01*
X47673Y499265D01*
X47673Y491335D01*
X42065Y485727D01*
X34135Y485727D01*
G37*
%LPD*%
%LPC*%
G36*
X237335Y612727D02*
X237335Y612727D01*
X231727Y618335D01*
X231727Y626265D01*
X237335Y631873D01*
X245265Y631873D01*
X250873Y626265D01*
X250873Y618335D01*
X245265Y612727D01*
X237335Y612727D01*
G37*
%LPD*%
%LPC*%
G36*
X34135Y28527D02*
X34135Y28527D01*
X28527Y34135D01*
X28527Y42065D01*
X34135Y47673D01*
X42065Y47673D01*
X47673Y42065D01*
X47673Y34135D01*
X42065Y28527D01*
X34135Y28527D01*
G37*
%LPD*%
%LPC*%
G36*
X237335Y53927D02*
X237335Y53927D01*
X231727Y59535D01*
X231727Y67465D01*
X237335Y73073D01*
X245265Y73073D01*
X250873Y67465D01*
X250873Y59535D01*
X245265Y53927D01*
X237335Y53927D01*
G37*
%LPD*%
%LPC*%
G36*
X34135Y79327D02*
X34135Y79327D01*
X28527Y84935D01*
X28527Y92865D01*
X34135Y98473D01*
X42065Y98473D01*
X47673Y92865D01*
X47673Y84935D01*
X42065Y79327D01*
X34135Y79327D01*
G37*
%LPD*%
%LPC*%
G36*
X237335Y104727D02*
X237335Y104727D01*
X231727Y110335D01*
X231727Y118265D01*
X237335Y123873D01*
X245265Y123873D01*
X250873Y118265D01*
X250873Y110335D01*
X245265Y104727D01*
X237335Y104727D01*
G37*
%LPD*%
%LPC*%
G36*
X237335Y79327D02*
X237335Y79327D01*
X231727Y84935D01*
X231727Y92865D01*
X237335Y98473D01*
X245265Y98473D01*
X250873Y92865D01*
X250873Y84935D01*
X245265Y79327D01*
X237335Y79327D01*
G37*
%LPD*%
%LPC*%
G36*
X34135Y130127D02*
X34135Y130127D01*
X28527Y135735D01*
X28527Y143665D01*
X34135Y149273D01*
X42065Y149273D01*
X47673Y143665D01*
X47673Y135735D01*
X42065Y130127D01*
X34135Y130127D01*
G37*
%LPD*%
%LPC*%
G36*
X237335Y130127D02*
X237335Y130127D01*
X231727Y135735D01*
X231727Y143665D01*
X237335Y149273D01*
X245265Y149273D01*
X250873Y143665D01*
X250873Y135735D01*
X245265Y130127D01*
X237335Y130127D01*
G37*
%LPD*%
%LPC*%
G36*
X34135Y155527D02*
X34135Y155527D01*
X28527Y161135D01*
X28527Y169065D01*
X34135Y174673D01*
X42065Y174673D01*
X47673Y169065D01*
X47673Y161135D01*
X42065Y155527D01*
X34135Y155527D01*
G37*
%LPD*%
%LPC*%
G36*
X237335Y155527D02*
X237335Y155527D01*
X231727Y161135D01*
X231727Y169065D01*
X237335Y174673D01*
X245265Y174673D01*
X250873Y169065D01*
X250873Y161135D01*
X245265Y155527D01*
X237335Y155527D01*
G37*
%LPD*%
%LPC*%
G36*
X173835Y724487D02*
X173835Y724487D01*
X168227Y730095D01*
X168227Y738025D01*
X173835Y743633D01*
X181765Y743633D01*
X187373Y738025D01*
X187373Y730095D01*
X181765Y724487D01*
X173835Y724487D01*
G37*
%LPD*%
%LPC*%
G36*
X123035Y724487D02*
X123035Y724487D01*
X117427Y730095D01*
X117427Y738025D01*
X123035Y743633D01*
X130965Y743633D01*
X136573Y738025D01*
X136573Y730095D01*
X130965Y724487D01*
X123035Y724487D01*
G37*
%LPD*%
%LPC*%
G36*
X34135Y180927D02*
X34135Y180927D01*
X28527Y186535D01*
X28527Y194465D01*
X34135Y200073D01*
X42065Y200073D01*
X47673Y194465D01*
X47673Y186535D01*
X42065Y180927D01*
X34135Y180927D01*
G37*
%LPD*%
%LPC*%
G36*
X34135Y460327D02*
X34135Y460327D01*
X28527Y465935D01*
X28527Y473865D01*
X34135Y479473D01*
X42065Y479473D01*
X47673Y473865D01*
X47673Y465935D01*
X42065Y460327D01*
X34135Y460327D01*
G37*
%LPD*%
%LPC*%
G36*
X237335Y460327D02*
X237335Y460327D01*
X231727Y465935D01*
X231727Y473865D01*
X237335Y479473D01*
X245265Y479473D01*
X250873Y473865D01*
X250873Y465935D01*
X245265Y460327D01*
X237335Y460327D01*
G37*
%LPD*%
%LPC*%
G36*
X34135Y409527D02*
X34135Y409527D01*
X28527Y415135D01*
X28527Y423065D01*
X34135Y428673D01*
X42065Y428673D01*
X47673Y423065D01*
X47673Y415135D01*
X42065Y409527D01*
X34135Y409527D01*
G37*
%LPD*%
%LPC*%
G36*
X34135Y206327D02*
X34135Y206327D01*
X28527Y211935D01*
X28527Y219865D01*
X34135Y225473D01*
X42065Y225473D01*
X47673Y219865D01*
X47673Y211935D01*
X42065Y206327D01*
X34135Y206327D01*
G37*
%LPD*%
%LPC*%
G36*
X237335Y409527D02*
X237335Y409527D01*
X231727Y415135D01*
X231727Y423065D01*
X237335Y428673D01*
X245265Y428673D01*
X250873Y423065D01*
X250873Y415135D01*
X245265Y409527D01*
X237335Y409527D01*
G37*
%LPD*%
%LPC*%
G36*
X237335Y231727D02*
X237335Y231727D01*
X231727Y237335D01*
X231727Y245265D01*
X237335Y250873D01*
X245265Y250873D01*
X250873Y245265D01*
X250873Y237335D01*
X245265Y231727D01*
X237335Y231727D01*
G37*
%LPD*%
%LPC*%
G36*
X34135Y231727D02*
X34135Y231727D01*
X28527Y237335D01*
X28527Y245265D01*
X34135Y250873D01*
X42065Y250873D01*
X47673Y245265D01*
X47673Y237335D01*
X42065Y231727D01*
X34135Y231727D01*
G37*
%LPD*%
%LPC*%
G36*
X237335Y663527D02*
X237335Y663527D01*
X231727Y669135D01*
X231727Y677065D01*
X237335Y682673D01*
X245265Y682673D01*
X250873Y677065D01*
X250873Y669135D01*
X245265Y663527D01*
X237335Y663527D01*
G37*
%LPD*%
%LPC*%
G36*
X34135Y612727D02*
X34135Y612727D01*
X28527Y618335D01*
X28527Y626265D01*
X34135Y631873D01*
X42065Y631873D01*
X47673Y626265D01*
X47673Y618335D01*
X42065Y612727D01*
X34135Y612727D01*
G37*
%LPD*%
%LPC*%
G36*
X237335Y206327D02*
X237335Y206327D01*
X231727Y211935D01*
X231727Y219865D01*
X237335Y225473D01*
X245265Y225473D01*
X250873Y219865D01*
X250873Y211935D01*
X245265Y206327D01*
X237335Y206327D01*
G37*
%LPD*%
%LPC*%
G36*
X237335Y282527D02*
X237335Y282527D01*
X231727Y288135D01*
X231727Y296065D01*
X237335Y301673D01*
X245265Y301673D01*
X250873Y296065D01*
X250873Y288135D01*
X245265Y282527D01*
X237335Y282527D01*
G37*
%LPD*%
%LPC*%
G36*
X34135Y282527D02*
X34135Y282527D01*
X28527Y288135D01*
X28527Y296065D01*
X34135Y301673D01*
X42065Y301673D01*
X47673Y296065D01*
X47673Y288135D01*
X42065Y282527D01*
X34135Y282527D01*
G37*
%LPD*%
%LPC*%
G36*
X34135Y663527D02*
X34135Y663527D01*
X28527Y669135D01*
X28527Y677065D01*
X34135Y682673D01*
X42065Y682673D01*
X47673Y677065D01*
X47673Y669135D01*
X42065Y663527D01*
X34135Y663527D01*
G37*
%LPD*%
%LPC*%
G36*
X237335Y587327D02*
X237335Y587327D01*
X231727Y592935D01*
X231727Y600865D01*
X237335Y606473D01*
X245265Y606473D01*
X250873Y600865D01*
X250873Y592935D01*
X245265Y587327D01*
X237335Y587327D01*
G37*
%LPD*%
%LPC*%
G36*
X34135Y587327D02*
X34135Y587327D01*
X28527Y592935D01*
X28527Y600865D01*
X34135Y606473D01*
X42065Y606473D01*
X47673Y600865D01*
X47673Y592935D01*
X42065Y587327D01*
X34135Y587327D01*
G37*
%LPD*%
%LPC*%
G36*
X34135Y104727D02*
X34135Y104727D01*
X28527Y110335D01*
X28527Y118265D01*
X34135Y123873D01*
X42065Y123873D01*
X47673Y118265D01*
X47673Y110335D01*
X42065Y104727D01*
X34135Y104727D01*
G37*
%LPD*%
%LPC*%
G36*
X237335Y257127D02*
X237335Y257127D01*
X231727Y262735D01*
X231727Y270665D01*
X237335Y276273D01*
X245265Y276273D01*
X250873Y270665D01*
X250873Y262735D01*
X245265Y257127D01*
X237335Y257127D01*
G37*
%LPD*%
%LPC*%
G36*
X237335Y561927D02*
X237335Y561927D01*
X231727Y567535D01*
X231727Y575465D01*
X237335Y581073D01*
X245265Y581073D01*
X250873Y575465D01*
X250873Y567535D01*
X245265Y561927D01*
X237335Y561927D01*
G37*
%LPD*%
%LPC*%
G36*
X34135Y561927D02*
X34135Y561927D01*
X28527Y567535D01*
X28527Y575465D01*
X34135Y581073D01*
X42065Y581073D01*
X47673Y575465D01*
X47673Y567535D01*
X42065Y561927D01*
X34135Y561927D01*
G37*
%LPD*%
%LPC*%
G36*
X34135Y307927D02*
X34135Y307927D01*
X28527Y313535D01*
X28527Y321465D01*
X34135Y327073D01*
X42065Y327073D01*
X47673Y321465D01*
X47673Y313535D01*
X42065Y307927D01*
X34135Y307927D01*
G37*
%LPD*%
%LPC*%
G36*
X237335Y307927D02*
X237335Y307927D01*
X231727Y313535D01*
X231727Y321465D01*
X237335Y327073D01*
X245265Y327073D01*
X250873Y321465D01*
X250873Y313535D01*
X245265Y307927D01*
X237335Y307927D01*
G37*
%LPD*%
%LPC*%
G36*
X34135Y333327D02*
X34135Y333327D01*
X28527Y338935D01*
X28527Y346865D01*
X34135Y352473D01*
X42065Y352473D01*
X47673Y346865D01*
X47673Y338935D01*
X42065Y333327D01*
X34135Y333327D01*
G37*
%LPD*%
%LPC*%
G36*
X237335Y333327D02*
X237335Y333327D01*
X231727Y338935D01*
X231727Y346865D01*
X237335Y352473D01*
X245265Y352473D01*
X250873Y346865D01*
X250873Y338935D01*
X245265Y333327D01*
X237335Y333327D01*
G37*
%LPD*%
%LPC*%
G36*
X34135Y358727D02*
X34135Y358727D01*
X28527Y364335D01*
X28527Y372265D01*
X34135Y377873D01*
X42065Y377873D01*
X47673Y372265D01*
X47673Y364335D01*
X42065Y358727D01*
X34135Y358727D01*
G37*
%LPD*%
%LPC*%
G36*
X237335Y536527D02*
X237335Y536527D01*
X231727Y542135D01*
X231727Y550065D01*
X237335Y555673D01*
X245265Y555673D01*
X250873Y550065D01*
X250873Y542135D01*
X245265Y536527D01*
X237335Y536527D01*
G37*
%LPD*%
%LPC*%
G36*
X34135Y536527D02*
X34135Y536527D01*
X28527Y542135D01*
X28527Y550065D01*
X34135Y555673D01*
X42065Y555673D01*
X47673Y550065D01*
X47673Y542135D01*
X42065Y536527D01*
X34135Y536527D01*
G37*
%LPD*%
%LPC*%
G36*
X237335Y358727D02*
X237335Y358727D01*
X231727Y364335D01*
X231727Y372265D01*
X237335Y377873D01*
X245265Y377873D01*
X250873Y372265D01*
X250873Y364335D01*
X245265Y358727D01*
X237335Y358727D01*
G37*
%LPD*%
%LPC*%
G36*
X34135Y638127D02*
X34135Y638127D01*
X28527Y643735D01*
X28527Y651665D01*
X34135Y657273D01*
X42065Y657273D01*
X47673Y651665D01*
X47673Y643735D01*
X42065Y638127D01*
X34135Y638127D01*
G37*
%LPD*%
%LPC*%
G36*
X34135Y384127D02*
X34135Y384127D01*
X28527Y389735D01*
X28527Y397665D01*
X34135Y403273D01*
X42065Y403273D01*
X47673Y397665D01*
X47673Y389735D01*
X42065Y384127D01*
X34135Y384127D01*
G37*
%LPD*%
%LPC*%
G36*
X237335Y511127D02*
X237335Y511127D01*
X231727Y516735D01*
X231727Y524665D01*
X237335Y530273D01*
X245265Y530273D01*
X250873Y524665D01*
X250873Y516735D01*
X245265Y511127D01*
X237335Y511127D01*
G37*
%LPD*%
%LPC*%
G36*
X34135Y511127D02*
X34135Y511127D01*
X28527Y516735D01*
X28527Y524665D01*
X34135Y530273D01*
X42065Y530273D01*
X47673Y524665D01*
X47673Y516735D01*
X42065Y511127D01*
X34135Y511127D01*
G37*
%LPD*%
%LPC*%
G36*
X237335Y384127D02*
X237335Y384127D01*
X231727Y389735D01*
X231727Y397665D01*
X237335Y403273D01*
X245265Y403273D01*
X250873Y397665D01*
X250873Y389735D01*
X245265Y384127D01*
X237335Y384127D01*
G37*
%LPD*%
%LPC*%
G36*
X34135Y257127D02*
X34135Y257127D01*
X28527Y262735D01*
X28527Y270665D01*
X34135Y276273D01*
X42065Y276273D01*
X47673Y270665D01*
X47673Y262735D01*
X42065Y257127D01*
X34135Y257127D01*
G37*
%LPD*%
%LPC*%
G36*
X237335Y485727D02*
X237335Y485727D01*
X231727Y491335D01*
X231727Y499265D01*
X237335Y504873D01*
X245265Y504873D01*
X250873Y499265D01*
X250873Y491335D01*
X245265Y485727D01*
X237335Y485727D01*
G37*
%LPD*%
%LPC*%
G36*
X579863Y618347D02*
X579863Y618347D01*
X576543Y619722D01*
X574002Y622263D01*
X572627Y625583D01*
X572627Y629177D01*
X574002Y632497D01*
X576543Y635038D01*
X579863Y636413D01*
X583457Y636413D01*
X586777Y635038D01*
X589318Y632497D01*
X590693Y629177D01*
X590693Y625583D01*
X589318Y622263D01*
X586777Y619722D01*
X583457Y618347D01*
X579863Y618347D01*
G37*
%LPD*%
%LPC*%
G36*
X579863Y592947D02*
X579863Y592947D01*
X576543Y594322D01*
X574002Y596863D01*
X572627Y600183D01*
X572627Y603777D01*
X574002Y607097D01*
X576543Y609638D01*
X579863Y611013D01*
X583457Y611013D01*
X586777Y609638D01*
X589318Y607097D01*
X590693Y603777D01*
X590693Y600183D01*
X589318Y596863D01*
X586777Y594322D01*
X583457Y592947D01*
X579863Y592947D01*
G37*
%LPD*%
%LPC*%
G36*
X326623Y753363D02*
X326623Y753363D01*
X321563Y758423D01*
X321563Y765577D01*
X326623Y770637D01*
X333777Y770637D01*
X338837Y765577D01*
X338837Y758423D01*
X333777Y753363D01*
X326623Y753363D01*
G37*
%LPD*%
%LPC*%
G36*
X237723Y753363D02*
X237723Y753363D01*
X232663Y758423D01*
X232663Y765577D01*
X237723Y770637D01*
X244877Y770637D01*
X249937Y765577D01*
X249937Y758423D01*
X244877Y753363D01*
X237723Y753363D01*
G37*
%LPD*%
%LPC*%
G36*
X440923Y207263D02*
X440923Y207263D01*
X435863Y212323D01*
X435863Y219477D01*
X440923Y224537D01*
X448077Y224537D01*
X453137Y219477D01*
X453137Y212323D01*
X448077Y207263D01*
X440923Y207263D01*
G37*
%LPD*%
%LPC*%
G36*
X301223Y613663D02*
X301223Y613663D01*
X296163Y618723D01*
X296163Y625877D01*
X301223Y630937D01*
X308377Y630937D01*
X313437Y625877D01*
X313437Y618723D01*
X308377Y613663D01*
X301223Y613663D01*
G37*
%LPD*%
%LPC*%
G36*
X595863Y697483D02*
X595863Y697483D01*
X590803Y702543D01*
X590803Y709697D01*
X595863Y714757D01*
X603017Y714757D01*
X608077Y709697D01*
X608077Y702543D01*
X603017Y697483D01*
X595863Y697483D01*
G37*
%LPD*%
%LPC*%
G36*
X494263Y697483D02*
X494263Y697483D01*
X489203Y702543D01*
X489203Y709697D01*
X494263Y714757D01*
X501417Y714757D01*
X506477Y709697D01*
X506477Y702543D01*
X501417Y697483D01*
X494263Y697483D01*
G37*
%LPD*%
%LPC*%
G36*
X321543Y694943D02*
X321543Y694943D01*
X316483Y700003D01*
X316483Y707157D01*
X321543Y712217D01*
X328697Y712217D01*
X333757Y707157D01*
X333757Y700003D01*
X328697Y694943D01*
X321543Y694943D01*
G37*
%LPD*%
%LPC*%
G36*
X491723Y484123D02*
X491723Y484123D01*
X486663Y489183D01*
X486663Y496337D01*
X491723Y501397D01*
X498877Y501397D01*
X503937Y496337D01*
X503937Y489183D01*
X498877Y484123D01*
X491723Y484123D01*
G37*
%LPD*%
%LPC*%
G36*
X522203Y540003D02*
X522203Y540003D01*
X517143Y545063D01*
X517143Y552217D01*
X522203Y557277D01*
X529357Y557277D01*
X534417Y552217D01*
X534417Y545063D01*
X529357Y540003D01*
X522203Y540003D01*
G37*
%LPD*%
%LPC*%
G36*
X593323Y484123D02*
X593323Y484123D01*
X588263Y489183D01*
X588263Y496337D01*
X593323Y501397D01*
X600477Y501397D01*
X605537Y496337D01*
X605537Y489183D01*
X600477Y484123D01*
X593323Y484123D01*
G37*
%LPD*%
%LPC*%
G36*
X301223Y512063D02*
X301223Y512063D01*
X296163Y517123D01*
X296163Y524277D01*
X301223Y529337D01*
X308377Y529337D01*
X313437Y524277D01*
X313437Y517123D01*
X308377Y512063D01*
X301223Y512063D01*
G37*
%LPD*%
%LPC*%
G36*
X590803Y120903D02*
X590803Y120903D01*
X590803Y133861D01*
X592685Y133563D01*
X594862Y132855D01*
X596901Y131816D01*
X598753Y130471D01*
X600371Y128853D01*
X601716Y127001D01*
X602755Y124962D01*
X603463Y122785D01*
X603761Y120903D01*
X590803Y120903D01*
G37*
%LPD*%
%LPC*%
G36*
X316483Y440943D02*
X316483Y440943D01*
X316483Y453901D01*
X318365Y453603D01*
X320542Y452895D01*
X322581Y451856D01*
X324433Y450511D01*
X326051Y448893D01*
X327396Y447041D01*
X328435Y445002D01*
X329143Y442825D01*
X329441Y440943D01*
X316483Y440943D01*
G37*
%LPD*%
%LPC*%
G36*
X590803Y117857D02*
X590803Y117857D01*
X603761Y117857D01*
X603463Y115975D01*
X602755Y113798D01*
X601716Y111759D01*
X600371Y109907D01*
X598753Y108289D01*
X596901Y106944D01*
X594862Y105905D01*
X592685Y105197D01*
X590803Y104899D01*
X590803Y117857D01*
G37*
%LPD*%
%LPC*%
G36*
X300479Y440943D02*
X300479Y440943D01*
X300777Y442825D01*
X301485Y445002D01*
X302524Y447041D01*
X303869Y448893D01*
X305487Y450511D01*
X307339Y451856D01*
X309378Y452895D01*
X311555Y453603D01*
X313437Y453901D01*
X313437Y440943D01*
X300479Y440943D01*
G37*
%LPD*%
%LPC*%
G36*
X574799Y120903D02*
X574799Y120903D01*
X575097Y122785D01*
X575805Y124962D01*
X576844Y127001D01*
X578189Y128853D01*
X579807Y130471D01*
X581659Y131816D01*
X583698Y132855D01*
X585875Y133563D01*
X587757Y133861D01*
X587757Y120903D01*
X574799Y120903D01*
G37*
%LPD*%
%LPC*%
G36*
X316483Y437897D02*
X316483Y437897D01*
X329441Y437897D01*
X329143Y436015D01*
X328435Y433838D01*
X327396Y431799D01*
X326051Y429947D01*
X324433Y428329D01*
X322581Y426984D01*
X320542Y425945D01*
X318365Y425237D01*
X316483Y424939D01*
X316483Y437897D01*
G37*
%LPD*%
%LPC*%
G36*
X585875Y105197D02*
X585875Y105197D01*
X583698Y105905D01*
X581659Y106944D01*
X579807Y108289D01*
X578189Y109907D01*
X576844Y111759D01*
X575805Y113798D01*
X575097Y115975D01*
X574799Y117857D01*
X587757Y117857D01*
X587757Y104899D01*
X585875Y105197D01*
G37*
%LPD*%
%LPC*%
G36*
X311555Y425237D02*
X311555Y425237D01*
X309378Y425945D01*
X307339Y426984D01*
X305487Y428329D01*
X303869Y429947D01*
X302524Y431799D01*
X301485Y433838D01*
X300777Y436015D01*
X300479Y437897D01*
X313437Y437897D01*
X313437Y424939D01*
X311555Y425237D01*
G37*
%LPD*%
%LPC*%
G36*
X585723Y292353D02*
X585723Y292353D01*
X585723Y308496D01*
X586579Y308361D01*
X588100Y307866D01*
X589525Y307140D01*
X590819Y306200D01*
X591950Y305069D01*
X592890Y303775D01*
X593616Y302350D01*
X594111Y300829D01*
X594361Y299250D01*
X594361Y292353D01*
X585723Y292353D01*
G37*
%LPD*%
%LPC*%
G36*
X585723Y447293D02*
X585723Y447293D01*
X585723Y463436D01*
X586579Y463301D01*
X588100Y462806D01*
X589525Y462080D01*
X590819Y461140D01*
X591950Y460009D01*
X592890Y458715D01*
X593616Y457290D01*
X594111Y455769D01*
X594361Y454190D01*
X594361Y447293D01*
X585723Y447293D01*
G37*
%LPD*%
%LPC*%
G36*
X382523Y447293D02*
X382523Y447293D01*
X382523Y463436D01*
X383379Y463301D01*
X384900Y462806D01*
X386325Y462080D01*
X387619Y461140D01*
X388750Y460009D01*
X389690Y458715D01*
X390416Y457290D01*
X390911Y455769D01*
X391161Y454190D01*
X391161Y447293D01*
X382523Y447293D01*
G37*
%LPD*%
%LPC*%
G36*
X382523Y292353D02*
X382523Y292353D01*
X382523Y308496D01*
X383379Y308361D01*
X384900Y307866D01*
X386325Y307140D01*
X387619Y306200D01*
X388750Y305069D01*
X389690Y303775D01*
X390416Y302350D01*
X390911Y300829D01*
X391161Y299250D01*
X391161Y292353D01*
X382523Y292353D01*
G37*
%LPD*%
%LPC*%
G36*
X407923Y292353D02*
X407923Y292353D01*
X407923Y308496D01*
X408779Y308361D01*
X410300Y307866D01*
X411725Y307140D01*
X413019Y306200D01*
X414150Y305069D01*
X415090Y303775D01*
X415816Y302350D01*
X416311Y300829D01*
X416561Y299250D01*
X416561Y292353D01*
X407923Y292353D01*
G37*
%LPD*%
%LPC*%
G36*
X560323Y292353D02*
X560323Y292353D01*
X560323Y308496D01*
X561179Y308361D01*
X562700Y307866D01*
X564125Y307140D01*
X565419Y306200D01*
X566550Y305069D01*
X567490Y303775D01*
X568216Y302350D01*
X568711Y300829D01*
X568961Y299250D01*
X568961Y292353D01*
X560323Y292353D01*
G37*
%LPD*%
%LPC*%
G36*
X585723Y289307D02*
X585723Y289307D01*
X594361Y289307D01*
X594361Y282410D01*
X594111Y280831D01*
X593616Y279310D01*
X592890Y277885D01*
X591950Y276591D01*
X590819Y275460D01*
X589525Y274520D01*
X588100Y273794D01*
X586579Y273299D01*
X585723Y273164D01*
X585723Y289307D01*
G37*
%LPD*%
%LPC*%
G36*
X382523Y444247D02*
X382523Y444247D01*
X391161Y444247D01*
X391161Y437350D01*
X390911Y435771D01*
X390416Y434250D01*
X389690Y432825D01*
X388750Y431531D01*
X387619Y430400D01*
X386325Y429460D01*
X384900Y428734D01*
X383379Y428239D01*
X382523Y428104D01*
X382523Y444247D01*
G37*
%LPD*%
%LPC*%
G36*
X585723Y444247D02*
X585723Y444247D01*
X594361Y444247D01*
X594361Y437350D01*
X594111Y435771D01*
X593616Y434250D01*
X592890Y432825D01*
X591950Y431531D01*
X590819Y430400D01*
X589525Y429460D01*
X588100Y428734D01*
X586579Y428239D01*
X585723Y428104D01*
X585723Y444247D01*
G37*
%LPD*%
%LPC*%
G36*
X407923Y289307D02*
X407923Y289307D01*
X416561Y289307D01*
X416561Y282410D01*
X416311Y280831D01*
X415816Y279310D01*
X415090Y277885D01*
X414150Y276591D01*
X413019Y275460D01*
X411725Y274520D01*
X410300Y273794D01*
X408779Y273299D01*
X407923Y273164D01*
X407923Y289307D01*
G37*
%LPD*%
%LPC*%
G36*
X560323Y289307D02*
X560323Y289307D01*
X568961Y289307D01*
X568961Y282410D01*
X568711Y280831D01*
X568216Y279310D01*
X567490Y277885D01*
X566550Y276591D01*
X565419Y275460D01*
X564125Y274520D01*
X562700Y273794D01*
X561179Y273299D01*
X560323Y273164D01*
X560323Y289307D01*
G37*
%LPD*%
%LPC*%
G36*
X382523Y289307D02*
X382523Y289307D01*
X391161Y289307D01*
X391161Y282410D01*
X390911Y280831D01*
X390416Y279310D01*
X389690Y277885D01*
X388750Y276591D01*
X387619Y275460D01*
X386325Y274520D01*
X384900Y273794D01*
X383379Y273299D01*
X382523Y273164D01*
X382523Y289307D01*
G37*
%LPD*%
%LPC*%
G36*
X370839Y292353D02*
X370839Y292353D01*
X370839Y299250D01*
X371089Y300829D01*
X371584Y302350D01*
X372310Y303775D01*
X373250Y305069D01*
X374381Y306200D01*
X375675Y307140D01*
X377100Y307866D01*
X378621Y308361D01*
X379477Y308496D01*
X379477Y292353D01*
X370839Y292353D01*
G37*
%LPD*%
%LPC*%
G36*
X574039Y447293D02*
X574039Y447293D01*
X574039Y454190D01*
X574289Y455769D01*
X574784Y457290D01*
X575510Y458715D01*
X576450Y460009D01*
X577581Y461140D01*
X578875Y462080D01*
X580300Y462806D01*
X581821Y463301D01*
X582677Y463436D01*
X582677Y447293D01*
X574039Y447293D01*
G37*
%LPD*%
%LPC*%
G36*
X396239Y292353D02*
X396239Y292353D01*
X396239Y299250D01*
X396489Y300829D01*
X396984Y302350D01*
X397710Y303775D01*
X398650Y305069D01*
X399781Y306200D01*
X401075Y307140D01*
X402500Y307866D01*
X404021Y308361D01*
X404877Y308496D01*
X404877Y292353D01*
X396239Y292353D01*
G37*
%LPD*%
%LPC*%
G36*
X370839Y447293D02*
X370839Y447293D01*
X370839Y454190D01*
X371089Y455769D01*
X371584Y457290D01*
X372310Y458715D01*
X373250Y460009D01*
X374381Y461140D01*
X375675Y462080D01*
X377100Y462806D01*
X378621Y463301D01*
X379477Y463436D01*
X379477Y447293D01*
X370839Y447293D01*
G37*
%LPD*%
%LPC*%
G36*
X574039Y292353D02*
X574039Y292353D01*
X574039Y299250D01*
X574289Y300829D01*
X574784Y302350D01*
X575510Y303775D01*
X576450Y305069D01*
X577581Y306200D01*
X578875Y307140D01*
X580300Y307866D01*
X581821Y308361D01*
X582677Y308496D01*
X582677Y292353D01*
X574039Y292353D01*
G37*
%LPD*%
%LPC*%
G36*
X548639Y292353D02*
X548639Y292353D01*
X548639Y299250D01*
X548889Y300829D01*
X549384Y302350D01*
X550110Y303775D01*
X551050Y305069D01*
X552181Y306200D01*
X553475Y307140D01*
X554900Y307866D01*
X556421Y308361D01*
X557277Y308496D01*
X557277Y292353D01*
X548639Y292353D01*
G37*
%LPD*%
%LPC*%
G36*
X581821Y428239D02*
X581821Y428239D01*
X580300Y428734D01*
X578875Y429460D01*
X577581Y430400D01*
X576450Y431531D01*
X575510Y432825D01*
X574784Y434250D01*
X574289Y435771D01*
X574039Y437350D01*
X574039Y444247D01*
X582677Y444247D01*
X582677Y428104D01*
X581821Y428239D01*
G37*
%LPD*%
%LPC*%
G36*
X378621Y428239D02*
X378621Y428239D01*
X377100Y428734D01*
X375675Y429460D01*
X374381Y430400D01*
X373250Y431531D01*
X372310Y432825D01*
X371584Y434250D01*
X371089Y435771D01*
X370839Y437350D01*
X370839Y444247D01*
X379477Y444247D01*
X379477Y428104D01*
X378621Y428239D01*
G37*
%LPD*%
%LPC*%
G36*
X581821Y273299D02*
X581821Y273299D01*
X580300Y273794D01*
X578875Y274520D01*
X577581Y275460D01*
X576450Y276591D01*
X575510Y277885D01*
X574784Y279310D01*
X574289Y280831D01*
X574039Y282410D01*
X574039Y289307D01*
X582677Y289307D01*
X582677Y273164D01*
X581821Y273299D01*
G37*
%LPD*%
%LPC*%
G36*
X556421Y273299D02*
X556421Y273299D01*
X554900Y273794D01*
X553475Y274520D01*
X552181Y275460D01*
X551050Y276591D01*
X550110Y277885D01*
X549384Y279310D01*
X548889Y280831D01*
X548639Y282410D01*
X548639Y289307D01*
X557277Y289307D01*
X557277Y273164D01*
X556421Y273299D01*
G37*
%LPD*%
%LPC*%
G36*
X378621Y273299D02*
X378621Y273299D01*
X377100Y273794D01*
X375675Y274520D01*
X374381Y275460D01*
X373250Y276591D01*
X372310Y277885D01*
X371584Y279310D01*
X371089Y280831D01*
X370839Y282410D01*
X370839Y289307D01*
X379477Y289307D01*
X379477Y273164D01*
X378621Y273299D01*
G37*
%LPD*%
%LPC*%
G36*
X404021Y273299D02*
X404021Y273299D01*
X402500Y273794D01*
X401075Y274520D01*
X399781Y275460D01*
X398650Y276591D01*
X397710Y277885D01*
X396984Y279310D01*
X396489Y280831D01*
X396239Y282410D01*
X396239Y289307D01*
X404877Y289307D01*
X404877Y273164D01*
X404021Y273299D01*
G37*
%LPD*%
%LPC*%
G36*
X242823Y39623D02*
X242823Y39623D01*
X242823Y48181D01*
X245476Y48181D01*
X251381Y42276D01*
X251381Y39623D01*
X242823Y39623D01*
G37*
%LPD*%
%LPC*%
G36*
X242823Y649223D02*
X242823Y649223D01*
X242823Y657781D01*
X245476Y657781D01*
X251381Y651876D01*
X251381Y649223D01*
X242823Y649223D01*
G37*
%LPD*%
%LPC*%
G36*
X153923Y735583D02*
X153923Y735583D01*
X153923Y744141D01*
X156576Y744141D01*
X162481Y738236D01*
X162481Y735583D01*
X153923Y735583D01*
G37*
%LPD*%
%LPC*%
G36*
X39623Y65023D02*
X39623Y65023D01*
X39623Y73581D01*
X42276Y73581D01*
X48181Y67676D01*
X48181Y65023D01*
X39623Y65023D01*
G37*
%LPD*%
%LPC*%
G36*
X103123Y735583D02*
X103123Y735583D01*
X103123Y744141D01*
X105776Y744141D01*
X111681Y738236D01*
X111681Y735583D01*
X103123Y735583D01*
G37*
%LPD*%
%LPC*%
G36*
X39623Y61977D02*
X39623Y61977D01*
X48181Y61977D01*
X48181Y59324D01*
X42276Y53419D01*
X39623Y53419D01*
X39623Y61977D01*
G37*
%LPD*%
%LPC*%
G36*
X142319Y735583D02*
X142319Y735583D01*
X142319Y738236D01*
X148224Y744141D01*
X150877Y744141D01*
X150877Y735583D01*
X142319Y735583D01*
G37*
%LPD*%
%LPC*%
G36*
X91519Y735583D02*
X91519Y735583D01*
X91519Y738236D01*
X97424Y744141D01*
X100077Y744141D01*
X100077Y735583D01*
X91519Y735583D01*
G37*
%LPD*%
%LPC*%
G36*
X153923Y723979D02*
X153923Y723979D01*
X153923Y732537D01*
X162481Y732537D01*
X162481Y729884D01*
X156576Y723979D01*
X153923Y723979D01*
G37*
%LPD*%
%LPC*%
G36*
X242823Y28019D02*
X242823Y28019D01*
X242823Y36577D01*
X251381Y36577D01*
X251381Y33924D01*
X245476Y28019D01*
X242823Y28019D01*
G37*
%LPD*%
%LPC*%
G36*
X103123Y723979D02*
X103123Y723979D01*
X103123Y732537D01*
X111681Y732537D01*
X111681Y729884D01*
X105776Y723979D01*
X103123Y723979D01*
G37*
%LPD*%
%LPC*%
G36*
X242823Y637619D02*
X242823Y637619D01*
X242823Y646177D01*
X251381Y646177D01*
X251381Y643524D01*
X245476Y637619D01*
X242823Y637619D01*
G37*
%LPD*%
%LPC*%
G36*
X28019Y65023D02*
X28019Y65023D01*
X28019Y67676D01*
X33924Y73581D01*
X36577Y73581D01*
X36577Y65023D01*
X28019Y65023D01*
G37*
%LPD*%
%LPC*%
G36*
X231219Y649223D02*
X231219Y649223D01*
X231219Y651876D01*
X237124Y657781D01*
X239777Y657781D01*
X239777Y649223D01*
X231219Y649223D01*
G37*
%LPD*%
%LPC*%
G36*
X231219Y39623D02*
X231219Y39623D01*
X231219Y42276D01*
X237124Y48181D01*
X239777Y48181D01*
X239777Y39623D01*
X231219Y39623D01*
G37*
%LPD*%
%LPC*%
G36*
X237124Y28019D02*
X237124Y28019D01*
X231219Y33924D01*
X231219Y36577D01*
X239777Y36577D01*
X239777Y28019D01*
X237124Y28019D01*
G37*
%LPD*%
%LPC*%
G36*
X237124Y637619D02*
X237124Y637619D01*
X231219Y643524D01*
X231219Y646177D01*
X239777Y646177D01*
X239777Y637619D01*
X237124Y637619D01*
G37*
%LPD*%
%LPC*%
G36*
X148224Y723979D02*
X148224Y723979D01*
X142319Y729884D01*
X142319Y732537D01*
X150877Y732537D01*
X150877Y723979D01*
X148224Y723979D01*
G37*
%LPD*%
%LPC*%
G36*
X33924Y53419D02*
X33924Y53419D01*
X28019Y59324D01*
X28019Y61977D01*
X36577Y61977D01*
X36577Y53419D01*
X33924Y53419D01*
G37*
%LPD*%
%LPC*%
G36*
X97424Y723979D02*
X97424Y723979D01*
X91519Y729884D01*
X91519Y732537D01*
X100077Y732537D01*
X100077Y723979D01*
X97424Y723979D01*
G37*
%LPD*%
%LPC*%
G36*
X583183Y578103D02*
X583183Y578103D01*
X583183Y586005D01*
X584443Y585754D01*
X586179Y585035D01*
X587742Y583991D01*
X589071Y582662D01*
X590115Y581099D01*
X590834Y579363D01*
X591085Y578103D01*
X583183Y578103D01*
G37*
%LPD*%
%LPC*%
G36*
X572235Y578103D02*
X572235Y578103D01*
X572486Y579363D01*
X573205Y581099D01*
X574249Y582662D01*
X575578Y583991D01*
X577141Y585035D01*
X578877Y585754D01*
X580137Y586005D01*
X580137Y578103D01*
X572235Y578103D01*
G37*
%LPD*%
%LPC*%
G36*
X583183Y575057D02*
X583183Y575057D01*
X591085Y575057D01*
X590834Y573797D01*
X590115Y572061D01*
X589071Y570498D01*
X587742Y569169D01*
X586179Y568125D01*
X584443Y567406D01*
X583183Y567155D01*
X583183Y575057D01*
G37*
%LPD*%
%LPC*%
G36*
X578877Y567406D02*
X578877Y567406D01*
X577141Y568125D01*
X575578Y569169D01*
X574249Y570498D01*
X573205Y572061D01*
X572486Y573797D01*
X572235Y575057D01*
X580137Y575057D01*
X580137Y567155D01*
X578877Y567406D01*
G37*
%LPD*%
%LPC*%
G36*
X352043Y49783D02*
X352043Y49783D01*
X352043Y57405D01*
X354308Y57405D01*
X359665Y52048D01*
X359665Y49783D01*
X352043Y49783D01*
G37*
%LPD*%
%LPC*%
G36*
X382523Y763523D02*
X382523Y763523D01*
X382523Y771145D01*
X384788Y771145D01*
X390145Y765788D01*
X390145Y763523D01*
X382523Y763523D01*
G37*
%LPD*%
%LPC*%
G36*
X326643Y654303D02*
X326643Y654303D01*
X326643Y661925D01*
X328908Y661925D01*
X334265Y656568D01*
X334265Y654303D01*
X326643Y654303D01*
G37*
%LPD*%
%LPC*%
G36*
X578103Y550163D02*
X578103Y550163D01*
X578103Y557785D01*
X580368Y557785D01*
X585725Y552428D01*
X585725Y550163D01*
X578103Y550163D01*
G37*
%LPD*%
%LPC*%
G36*
X293623Y763523D02*
X293623Y763523D01*
X293623Y771145D01*
X295888Y771145D01*
X301245Y765788D01*
X301245Y763523D01*
X293623Y763523D01*
G37*
%LPD*%
%LPC*%
G36*
X371855Y763523D02*
X371855Y763523D01*
X371855Y765788D01*
X377212Y771145D01*
X379477Y771145D01*
X379477Y763523D01*
X371855Y763523D01*
G37*
%LPD*%
%LPC*%
G36*
X567435Y550163D02*
X567435Y550163D01*
X567435Y552428D01*
X572792Y557785D01*
X575057Y557785D01*
X575057Y550163D01*
X567435Y550163D01*
G37*
%LPD*%
%LPC*%
G36*
X282955Y763523D02*
X282955Y763523D01*
X282955Y765788D01*
X288312Y771145D01*
X290577Y771145D01*
X290577Y763523D01*
X282955Y763523D01*
G37*
%LPD*%
%LPC*%
G36*
X341375Y49783D02*
X341375Y49783D01*
X341375Y52048D01*
X346732Y57405D01*
X348997Y57405D01*
X348997Y49783D01*
X341375Y49783D01*
G37*
%LPD*%
%LPC*%
G36*
X326643Y643635D02*
X326643Y643635D01*
X326643Y651257D01*
X334265Y651257D01*
X334265Y648992D01*
X328908Y643635D01*
X326643Y643635D01*
G37*
%LPD*%
%LPC*%
G36*
X293623Y752855D02*
X293623Y752855D01*
X293623Y760477D01*
X301245Y760477D01*
X301245Y758212D01*
X295888Y752855D01*
X293623Y752855D01*
G37*
%LPD*%
%LPC*%
G36*
X578103Y539495D02*
X578103Y539495D01*
X578103Y547117D01*
X585725Y547117D01*
X585725Y544852D01*
X580368Y539495D01*
X578103Y539495D01*
G37*
%LPD*%
%LPC*%
G36*
X382523Y752855D02*
X382523Y752855D01*
X382523Y760477D01*
X390145Y760477D01*
X390145Y758212D01*
X384788Y752855D01*
X382523Y752855D01*
G37*
%LPD*%
%LPC*%
G36*
X315975Y654303D02*
X315975Y654303D01*
X315975Y656568D01*
X321332Y661925D01*
X323597Y661925D01*
X323597Y654303D01*
X315975Y654303D01*
G37*
%LPD*%
%LPC*%
G36*
X352043Y39115D02*
X352043Y39115D01*
X352043Y46737D01*
X359665Y46737D01*
X359665Y44472D01*
X354308Y39115D01*
X352043Y39115D01*
G37*
%LPD*%
%LPC*%
G36*
X321332Y643635D02*
X321332Y643635D01*
X315975Y648992D01*
X315975Y651257D01*
X323597Y651257D01*
X323597Y643635D01*
X321332Y643635D01*
G37*
%LPD*%
%LPC*%
G36*
X377212Y752855D02*
X377212Y752855D01*
X371855Y758212D01*
X371855Y760477D01*
X379477Y760477D01*
X379477Y752855D01*
X377212Y752855D01*
G37*
%LPD*%
%LPC*%
G36*
X572792Y539495D02*
X572792Y539495D01*
X567435Y544852D01*
X567435Y547117D01*
X575057Y547117D01*
X575057Y539495D01*
X572792Y539495D01*
G37*
%LPD*%
%LPC*%
G36*
X288312Y752855D02*
X288312Y752855D01*
X282955Y758212D01*
X282955Y760477D01*
X290577Y760477D01*
X290577Y752855D01*
X288312Y752855D01*
G37*
%LPD*%
%LPC*%
G36*
X346732Y39115D02*
X346732Y39115D01*
X341375Y44472D01*
X341375Y46737D01*
X348997Y46737D01*
X348997Y39115D01*
X346732Y39115D01*
G37*
%LPD*%
%LPC*%
G36*
X558799Y290829D02*
X558799Y290829D01*
X558799Y290831D01*
X558801Y290831D01*
X558801Y290829D01*
X558799Y290829D01*
G37*
%LPD*%
%LPC*%
G36*
X584199Y290829D02*
X584199Y290829D01*
X584199Y290831D01*
X584201Y290831D01*
X584201Y290829D01*
X584199Y290829D01*
G37*
%LPD*%
%LPC*%
G36*
X325119Y652779D02*
X325119Y652779D01*
X325119Y652781D01*
X325121Y652781D01*
X325121Y652779D01*
X325119Y652779D01*
G37*
%LPD*%
%LPC*%
G36*
X380999Y290829D02*
X380999Y290829D01*
X380999Y290831D01*
X381001Y290831D01*
X381001Y290829D01*
X380999Y290829D01*
G37*
%LPD*%
%LPC*%
G36*
X584199Y445769D02*
X584199Y445769D01*
X584199Y445771D01*
X584201Y445771D01*
X584201Y445769D01*
X584199Y445769D01*
G37*
%LPD*%
%LPC*%
G36*
X589279Y119379D02*
X589279Y119379D01*
X589279Y119381D01*
X589281Y119381D01*
X589281Y119379D01*
X589279Y119379D01*
G37*
%LPD*%
%LPC*%
G36*
X292099Y761999D02*
X292099Y761999D01*
X292099Y762001D01*
X292101Y762001D01*
X292101Y761999D01*
X292099Y761999D01*
G37*
%LPD*%
%LPC*%
G36*
X38099Y63499D02*
X38099Y63499D01*
X38099Y63501D01*
X38101Y63501D01*
X38101Y63499D01*
X38099Y63499D01*
G37*
%LPD*%
%LPC*%
G36*
X314959Y439419D02*
X314959Y439419D01*
X314959Y439421D01*
X314961Y439421D01*
X314961Y439419D01*
X314959Y439419D01*
G37*
%LPD*%
%LPC*%
G36*
X581659Y576579D02*
X581659Y576579D01*
X581659Y576581D01*
X581661Y576581D01*
X581661Y576579D01*
X581659Y576579D01*
G37*
%LPD*%
%LPC*%
G36*
X152399Y734059D02*
X152399Y734059D01*
X152399Y734061D01*
X152401Y734061D01*
X152401Y734059D01*
X152399Y734059D01*
G37*
%LPD*%
%LPC*%
G36*
X350519Y48259D02*
X350519Y48259D01*
X350519Y48261D01*
X350521Y48261D01*
X350521Y48259D01*
X350519Y48259D01*
G37*
%LPD*%
%LPC*%
G36*
X380999Y445769D02*
X380999Y445769D01*
X380999Y445771D01*
X381001Y445771D01*
X381001Y445769D01*
X380999Y445769D01*
G37*
%LPD*%
%LPC*%
G36*
X101599Y734059D02*
X101599Y734059D01*
X101599Y734061D01*
X101601Y734061D01*
X101601Y734059D01*
X101599Y734059D01*
G37*
%LPD*%
%LPC*%
G36*
X380999Y761999D02*
X380999Y761999D01*
X380999Y762001D01*
X381001Y762001D01*
X381001Y761999D01*
X380999Y761999D01*
G37*
%LPD*%
%LPC*%
G36*
X576579Y548639D02*
X576579Y548639D01*
X576579Y548641D01*
X576581Y548641D01*
X576581Y548639D01*
X576579Y548639D01*
G37*
%LPD*%
%LPC*%
G36*
X241299Y38099D02*
X241299Y38099D01*
X241299Y38101D01*
X241301Y38101D01*
X241301Y38099D01*
X241299Y38099D01*
G37*
%LPD*%
%LPC*%
G36*
X241299Y647699D02*
X241299Y647699D01*
X241299Y647701D01*
X241301Y647701D01*
X241301Y647699D01*
X241299Y647699D01*
G37*
%LPD*%
%LPC*%
G36*
X406399Y290829D02*
X406399Y290829D01*
X406399Y290831D01*
X406401Y290831D01*
X406401Y290829D01*
X406399Y290829D01*
G37*
%LPD*%
D10*
X38100Y673100D03*
X38100Y647700D03*
X38100Y622300D03*
X38100Y596900D03*
X38100Y571500D03*
X38100Y546100D03*
X38100Y520700D03*
X38100Y495300D03*
X38100Y469900D03*
X38100Y444500D03*
X38100Y419100D03*
X38100Y393700D03*
X38100Y368300D03*
X38100Y342900D03*
X38100Y317500D03*
X38100Y292100D03*
X38100Y266700D03*
X38100Y241300D03*
X38100Y215900D03*
X38100Y190500D03*
X38100Y165100D03*
X38100Y139700D03*
X38100Y114300D03*
X38100Y88900D03*
X38100Y63500D03*
X38100Y38100D03*
X241300Y673100D03*
X241300Y647700D03*
X241300Y622300D03*
X241300Y596900D03*
X241300Y571500D03*
X241300Y546100D03*
X241300Y520700D03*
X241300Y495300D03*
X241300Y469900D03*
X241300Y444500D03*
X241300Y419100D03*
X241300Y393700D03*
X241300Y368300D03*
X241300Y342900D03*
X241300Y317500D03*
X241300Y292100D03*
X241300Y266700D03*
X241300Y241300D03*
X241300Y215900D03*
X241300Y190500D03*
X241300Y165100D03*
X241300Y139700D03*
X241300Y114300D03*
X241300Y88900D03*
X241300Y63500D03*
X241300Y38100D03*
D11*
X338300Y599600D03*
X338300Y619600D03*
X515800Y619600D03*
X515800Y599600D03*
X437050Y510850D03*
X417050Y510850D03*
D12*
X381000Y298450D02*
X381000Y283210D01*
X406400Y283210D02*
X406400Y298450D01*
X431800Y298450D02*
X431800Y283210D01*
X457200Y283210D02*
X457200Y298450D01*
X482600Y298450D02*
X482600Y283210D01*
X508000Y283210D02*
X508000Y298450D01*
X533400Y298450D02*
X533400Y283210D01*
X558800Y283210D02*
X558800Y298450D01*
X584200Y298450D02*
X584200Y283210D01*
X381000Y438150D02*
X381000Y453390D01*
X406400Y453390D02*
X406400Y438150D01*
X431800Y438150D02*
X431800Y453390D01*
X457200Y453390D02*
X457200Y438150D01*
X482600Y438150D02*
X482600Y453390D01*
X508000Y453390D02*
X508000Y438150D01*
X533400Y438150D02*
X533400Y453390D01*
X558800Y453390D02*
X558800Y438150D01*
X584200Y438150D02*
X584200Y453390D01*
D13*
X304800Y520700D03*
X304800Y622300D03*
D14*
X444500Y165100D03*
X546100Y165100D03*
X444500Y215900D03*
X546100Y215900D03*
D15*
X596900Y492760D03*
X495300Y492760D03*
D16*
X589280Y119380D03*
X314960Y439420D03*
D17*
X581660Y576580D03*
X581660Y601980D03*
X581660Y627380D03*
D14*
X497840Y706120D03*
X599440Y706120D03*
X525780Y548640D03*
X576580Y548640D03*
D18*
X325120Y703580D03*
X325120Y652780D03*
D14*
X299720Y48260D03*
X350520Y48260D03*
D19*
X101600Y734060D03*
X127000Y734060D03*
X152400Y734060D03*
X177800Y734060D03*
D14*
X330200Y762000D03*
X381000Y762000D03*
X241300Y762000D03*
X292100Y762000D03*
D20*
X381000Y146050D03*
D21*
X285750Y146050D01*
X241300Y190500D01*
D20*
X508000Y388620D03*
X444500Y388620D03*
D22*
X508000Y388620D01*
D21*
X403860Y152400D02*
X299720Y48260D01*
X403860Y152400D02*
X533400Y152400D01*
X546100Y165100D01*
X546100Y215900D01*
M02*
