G04 EAGLE Gerber RS-274X export*
G75*
%MOMM*%
%FSLAX34Y34*%
%LPD*%
%INSoldermask Top*%
%IPPOS*%
%AMOC8*
5,1,8,0,0,1.08239X$1,22.5*%
G01*
%ADD10C,1.653200*%
%ADD11P,1.852186X8X292.500000*%
%ADD12C,0.269722*%
%ADD13R,3.203200X2.803200*%
%ADD14R,1.711200X1.711200*%
%ADD15C,1.727200*%
%ADD16P,1.649562X8X112.500000*%
%ADD17P,1.649562X8X22.500000*%
%ADD18P,1.649562X8X202.500000*%
%ADD19C,2.603200*%
%ADD20C,1.603200*%
%ADD21P,1.649562X8X292.500000*%
%ADD22R,2.243000X0.803200*%
%ADD23P,1.852186X8X22.500000*%
%ADD24C,0.959600*%


D10*
X25400Y762000D03*
X596900Y25400D03*
D11*
X38100Y673100D03*
X38100Y647700D03*
X38100Y622300D03*
X38100Y596900D03*
X38100Y571500D03*
X38100Y546100D03*
X38100Y520700D03*
X38100Y495300D03*
X38100Y469900D03*
X38100Y444500D03*
X38100Y419100D03*
X38100Y393700D03*
X38100Y368300D03*
X38100Y342900D03*
X38100Y317500D03*
X38100Y292100D03*
X38100Y266700D03*
X38100Y241300D03*
X38100Y215900D03*
X38100Y190500D03*
X38100Y165100D03*
X38100Y139700D03*
X38100Y114300D03*
X38100Y88900D03*
X38100Y63500D03*
X38100Y38100D03*
X241300Y673100D03*
X241300Y647700D03*
X241300Y622300D03*
X241300Y596900D03*
X241300Y571500D03*
X241300Y546100D03*
X241300Y520700D03*
X241300Y495300D03*
X241300Y469900D03*
X241300Y444500D03*
X241300Y419100D03*
X241300Y393700D03*
X241300Y368300D03*
X241300Y342900D03*
X241300Y317500D03*
X241300Y292100D03*
X241300Y266700D03*
X241300Y241300D03*
X241300Y215900D03*
X241300Y190500D03*
X241300Y165100D03*
X241300Y139700D03*
X241300Y114300D03*
X241300Y88900D03*
X241300Y63500D03*
X241300Y38100D03*
D12*
X468618Y344982D02*
X468618Y352918D01*
X468618Y344982D02*
X466582Y344982D01*
X466582Y352918D01*
X468618Y352918D01*
X468618Y347544D02*
X466582Y347544D01*
X466582Y350106D02*
X468618Y350106D01*
X468618Y352668D02*
X466582Y352668D01*
X473618Y352918D02*
X473618Y344982D01*
X471582Y344982D01*
X471582Y352918D01*
X473618Y352918D01*
X473618Y347544D02*
X471582Y347544D01*
X471582Y350106D02*
X473618Y350106D01*
X473618Y352668D02*
X471582Y352668D01*
X478618Y352918D02*
X478618Y344982D01*
X476582Y344982D01*
X476582Y352918D01*
X478618Y352918D01*
X478618Y347544D02*
X476582Y347544D01*
X476582Y350106D02*
X478618Y350106D01*
X478618Y352668D02*
X476582Y352668D01*
X483618Y352918D02*
X483618Y344982D01*
X481582Y344982D01*
X481582Y352918D01*
X483618Y352918D01*
X483618Y347544D02*
X481582Y347544D01*
X481582Y350106D02*
X483618Y350106D01*
X483618Y352668D02*
X481582Y352668D01*
X488618Y352918D02*
X488618Y344982D01*
X486582Y344982D01*
X486582Y352918D01*
X488618Y352918D01*
X488618Y347544D02*
X486582Y347544D01*
X486582Y350106D02*
X488618Y350106D01*
X488618Y352668D02*
X486582Y352668D01*
X493618Y352918D02*
X493618Y344982D01*
X491582Y344982D01*
X491582Y352918D01*
X493618Y352918D01*
X493618Y347544D02*
X491582Y347544D01*
X491582Y350106D02*
X493618Y350106D01*
X493618Y352668D02*
X491582Y352668D01*
X498618Y352918D02*
X498618Y344982D01*
X496582Y344982D01*
X496582Y352918D01*
X498618Y352918D01*
X498618Y347544D02*
X496582Y347544D01*
X496582Y350106D02*
X498618Y350106D01*
X498618Y352668D02*
X496582Y352668D01*
X496582Y383682D02*
X496582Y391618D01*
X498618Y391618D01*
X498618Y383682D01*
X496582Y383682D01*
X496582Y386244D02*
X498618Y386244D01*
X498618Y388806D02*
X496582Y388806D01*
X496582Y391368D02*
X498618Y391368D01*
X491582Y391618D02*
X491582Y383682D01*
X491582Y391618D02*
X493618Y391618D01*
X493618Y383682D01*
X491582Y383682D01*
X491582Y386244D02*
X493618Y386244D01*
X493618Y388806D02*
X491582Y388806D01*
X491582Y391368D02*
X493618Y391368D01*
X486582Y391618D02*
X486582Y383682D01*
X486582Y391618D02*
X488618Y391618D01*
X488618Y383682D01*
X486582Y383682D01*
X486582Y386244D02*
X488618Y386244D01*
X488618Y388806D02*
X486582Y388806D01*
X486582Y391368D02*
X488618Y391368D01*
X481582Y391618D02*
X481582Y383682D01*
X481582Y391618D02*
X483618Y391618D01*
X483618Y383682D01*
X481582Y383682D01*
X481582Y386244D02*
X483618Y386244D01*
X483618Y388806D02*
X481582Y388806D01*
X481582Y391368D02*
X483618Y391368D01*
X476582Y391618D02*
X476582Y383682D01*
X476582Y391618D02*
X478618Y391618D01*
X478618Y383682D01*
X476582Y383682D01*
X476582Y386244D02*
X478618Y386244D01*
X478618Y388806D02*
X476582Y388806D01*
X476582Y391368D02*
X478618Y391368D01*
X471582Y391618D02*
X471582Y383682D01*
X471582Y391618D02*
X473618Y391618D01*
X473618Y383682D01*
X471582Y383682D01*
X471582Y386244D02*
X473618Y386244D01*
X473618Y388806D02*
X471582Y388806D01*
X471582Y391368D02*
X473618Y391368D01*
X466582Y391618D02*
X466582Y383682D01*
X466582Y391618D02*
X468618Y391618D01*
X468618Y383682D01*
X466582Y383682D01*
X466582Y386244D02*
X468618Y386244D01*
X468618Y388806D02*
X466582Y388806D01*
X466582Y391368D02*
X468618Y391368D01*
D13*
X482600Y368300D03*
D14*
X338300Y599600D03*
X338300Y619600D03*
X515800Y619600D03*
X515800Y599600D03*
X437050Y510850D03*
X417050Y510850D03*
D15*
X381000Y298450D02*
X381000Y283210D01*
X406400Y283210D02*
X406400Y298450D01*
X431800Y298450D02*
X431800Y283210D01*
X457200Y283210D02*
X457200Y298450D01*
X482600Y298450D02*
X482600Y283210D01*
X508000Y283210D02*
X508000Y298450D01*
X533400Y298450D02*
X533400Y283210D01*
X558800Y283210D02*
X558800Y298450D01*
X584200Y298450D02*
X584200Y283210D01*
X381000Y438150D02*
X381000Y453390D01*
X406400Y453390D02*
X406400Y438150D01*
X431800Y438150D02*
X431800Y453390D01*
X457200Y453390D02*
X457200Y438150D01*
X482600Y438150D02*
X482600Y453390D01*
X508000Y453390D02*
X508000Y438150D01*
X533400Y438150D02*
X533400Y453390D01*
X558800Y453390D02*
X558800Y438150D01*
X584200Y438150D02*
X584200Y453390D01*
D16*
X304800Y520700D03*
X304800Y622300D03*
D17*
X444500Y165100D03*
X546100Y165100D03*
X444500Y215900D03*
X546100Y215900D03*
D18*
X596900Y492760D03*
X495300Y492760D03*
D19*
X589280Y119380D03*
X314960Y439420D03*
D20*
X581660Y576580D03*
X581660Y601980D03*
X581660Y627380D03*
D17*
X497840Y706120D03*
X599440Y706120D03*
X525780Y548640D03*
X576580Y548640D03*
D21*
X325120Y703580D03*
X325120Y652780D03*
D17*
X299720Y48260D03*
X350520Y48260D03*
D22*
X328090Y158450D03*
X328090Y145950D03*
X328090Y133450D03*
X328090Y120950D03*
X357710Y120950D03*
X357710Y133450D03*
X357710Y145950D03*
X357710Y158450D03*
D23*
X101600Y734060D03*
X127000Y734060D03*
X152400Y734060D03*
X177800Y734060D03*
D17*
X330200Y762000D03*
X381000Y762000D03*
X241300Y762000D03*
X292100Y762000D03*
D24*
X381000Y146050D03*
X508000Y388620D03*
X444500Y388620D03*
M02*
