G04 EAGLE Gerber RS-274X export*
G75*
%MOMM*%
%FSLAX34Y34*%
%LPD*%
%INSoldermask Bottom*%
%IPPOS*%
%AMOC8*
5,1,8,0,0,1.08239X$1,22.5*%
G01*
%ADD10C,1.653200*%
%ADD11P,1.852186X8X292.500000*%
%ADD12R,1.711200X1.711200*%
%ADD13C,1.727200*%
%ADD14P,1.649562X8X112.500000*%
%ADD15P,1.649562X8X22.500000*%
%ADD16P,1.649562X8X202.500000*%
%ADD17C,2.603200*%
%ADD18C,1.603200*%
%ADD19P,1.649562X8X292.500000*%
%ADD20P,1.852186X8X22.500000*%
%ADD21C,0.959600*%


D10*
X25400Y762000D03*
X596900Y25400D03*
D11*
X38100Y673100D03*
X38100Y647700D03*
X38100Y622300D03*
X38100Y596900D03*
X38100Y571500D03*
X38100Y546100D03*
X38100Y520700D03*
X38100Y495300D03*
X38100Y469900D03*
X38100Y444500D03*
X38100Y419100D03*
X38100Y393700D03*
X38100Y368300D03*
X38100Y342900D03*
X38100Y317500D03*
X38100Y292100D03*
X38100Y266700D03*
X38100Y241300D03*
X38100Y215900D03*
X38100Y190500D03*
X38100Y165100D03*
X38100Y139700D03*
X38100Y114300D03*
X38100Y88900D03*
X38100Y63500D03*
X38100Y38100D03*
X241300Y673100D03*
X241300Y647700D03*
X241300Y622300D03*
X241300Y596900D03*
X241300Y571500D03*
X241300Y546100D03*
X241300Y520700D03*
X241300Y495300D03*
X241300Y469900D03*
X241300Y444500D03*
X241300Y419100D03*
X241300Y393700D03*
X241300Y368300D03*
X241300Y342900D03*
X241300Y317500D03*
X241300Y292100D03*
X241300Y266700D03*
X241300Y241300D03*
X241300Y215900D03*
X241300Y190500D03*
X241300Y165100D03*
X241300Y139700D03*
X241300Y114300D03*
X241300Y88900D03*
X241300Y63500D03*
X241300Y38100D03*
D12*
X338300Y599600D03*
X338300Y619600D03*
X515800Y619600D03*
X515800Y599600D03*
X437050Y510850D03*
X417050Y510850D03*
D13*
X381000Y298450D02*
X381000Y283210D01*
X406400Y283210D02*
X406400Y298450D01*
X431800Y298450D02*
X431800Y283210D01*
X457200Y283210D02*
X457200Y298450D01*
X482600Y298450D02*
X482600Y283210D01*
X508000Y283210D02*
X508000Y298450D01*
X533400Y298450D02*
X533400Y283210D01*
X558800Y283210D02*
X558800Y298450D01*
X584200Y298450D02*
X584200Y283210D01*
X381000Y438150D02*
X381000Y453390D01*
X406400Y453390D02*
X406400Y438150D01*
X431800Y438150D02*
X431800Y453390D01*
X457200Y453390D02*
X457200Y438150D01*
X482600Y438150D02*
X482600Y453390D01*
X508000Y453390D02*
X508000Y438150D01*
X533400Y438150D02*
X533400Y453390D01*
X558800Y453390D02*
X558800Y438150D01*
X584200Y438150D02*
X584200Y453390D01*
D14*
X304800Y520700D03*
X304800Y622300D03*
D15*
X444500Y165100D03*
X546100Y165100D03*
X444500Y215900D03*
X546100Y215900D03*
D16*
X596900Y492760D03*
X495300Y492760D03*
D17*
X589280Y119380D03*
X314960Y439420D03*
D18*
X581660Y576580D03*
X581660Y601980D03*
X581660Y627380D03*
D15*
X497840Y706120D03*
X599440Y706120D03*
X525780Y548640D03*
X576580Y548640D03*
D19*
X325120Y703580D03*
X325120Y652780D03*
D15*
X299720Y48260D03*
X350520Y48260D03*
D20*
X101600Y734060D03*
X127000Y734060D03*
X152400Y734060D03*
X177800Y734060D03*
D15*
X330200Y762000D03*
X381000Y762000D03*
X241300Y762000D03*
X292100Y762000D03*
D21*
X381000Y146050D03*
X508000Y388620D03*
X444500Y388620D03*
M02*
