M48
;GenerationSoftware,Autodesk,EAGLE,9.4.2*%
;CreationDate,2019-07-19T20:14:33Z*%
FMAT,2
ICI,OFF
METRIC,TZ,000.000
T8C0.350
T7C0.700
T6C0.813
T5C1.000
T4C1.016
T3C1.600
T2C3.000
T1C3.302
%
G90
M71
T1
X4699Y45085
T2
X5080Y63500
X71120Y63500
X5080Y-5080
X71120Y-5080
T3
X72390Y31750
X72390Y55118
X14732Y-7366
X3810Y54356
X59690Y-7366
T4
X39370Y64770
X36830Y62230
X36830Y64770
X34290Y62230
X34290Y64770
X31750Y62230
X31750Y64770
X29210Y62230
X29210Y64770
X26670Y62230
X26670Y64770
X13970Y64770
X13970Y62230
X16510Y64770
X16510Y62230
X19050Y64770
X19050Y62230
X44450Y62230
X44450Y64770
X41910Y62230
X41910Y64770
X39370Y62230
X21590Y64770
X21590Y62230
X24130Y64770
X24130Y62230
X19685Y42545
X19685Y45085
X19685Y47625
X62230Y62230
X62230Y64770
X59690Y62230
X59690Y64770
X57150Y62230
X57150Y64770
X54610Y62230
X54610Y64770
X52070Y62230
X52070Y64770
X49530Y62230
X49530Y64770
X46990Y62230
X46990Y64770
T5
X29210Y0
X31750Y0
X34290Y0
X36830Y0
X39370Y0
X41910Y0
X44450Y0
X46990Y0
X49530Y0
X52070Y0
X54610Y0
X57150Y0
X59690Y0
X62230Y0
X64770Y0
X21590Y0
X72075Y41435
X72075Y48735
X13970Y22860
X16510Y22860
X19050Y22860
X21590Y22860
X24130Y22860
X26670Y22860
X29210Y22860
X31750Y22860
X34290Y22860
X36830Y22860
X39370Y22860
X41910Y22860
X44450Y22860
X46990Y22860
X49530Y22860
X52070Y22860
X54610Y22860
X57150Y22860
X59690Y22860
X62230Y22860
X64770Y22860
X13970Y0
X16510Y0
X19050Y0
X24130Y0
X26670Y0
T6
X33655Y50800
X52705Y49530
X45085Y49530
X33655Y40640
X33655Y48260
X52705Y39370
X45085Y39370
X33655Y38100
T7
X68225Y45885
X67025Y45085
X67025Y43485
X67025Y46685
X68225Y44285
T8
X43180Y56515
X40640Y33655
X43815Y36830
X38100Y53975
X39370Y55245
X50165Y60960
X52832Y33020
X50165Y66040
X57150Y34290
X11176Y56388
X36830Y24892
X47625Y24130
X51435Y60325
X59690Y33020
X56134Y38354
X53340Y43180
X46990Y20955
X30480Y62865
X30480Y48895
X30480Y43180
X48895Y60960
X37465Y49530
X57023Y41783
X12700Y56388
X53340Y44450
X32385Y60960
X48895Y21590
M30