M48
;GenerationSoftware,Autodesk,EAGLE,9.4.2*%
;CreationDate,2019-07-08T20:34:29Z*%
FMAT,2
ICI,OFF
METRIC,TZ,000.000
T9C0.350
T8C0.700
T7C0.813
T6C1.000
T5C1.016
T4C1.118
T3C1.600
T2C3.302
T1C4.100
%
G90
M71
T1
X5080Y-16510
X95250Y86360
X95250Y-16510
X5080Y86360
T2
X31750Y66294
T3
X7366Y-3810
X91186Y-4064
X6350Y25146
X96266Y73406
T4
X24638Y89662
X16510Y89662
T5
X31750Y51308
X29210Y51308
X34290Y51308
T6
X14224Y29718
X74930Y-13970
X77470Y-13970
X80010Y-13970
X82550Y-13970
X75532Y88585
X68232Y88585
X26670Y6350
X14224Y22098
X16764Y22098
X14224Y24638
X16764Y24638
X14224Y27178
X16764Y27178
X16764Y29718
X14224Y32258
X16764Y32258
X14224Y34798
X16764Y34798
X14224Y37338
X16764Y37338
X14224Y39878
X16764Y39878
X14224Y42418
X16764Y42418
X14224Y44958
X16764Y44958
X14224Y47498
X16764Y47498
X14224Y50038
X16764Y50038
X14224Y52578
X16764Y52578
X14224Y55118
X16764Y55118
X14224Y57658
X16764Y57658
X14224Y60198
X16764Y60198
X16764Y62738
X14224Y65278
X16764Y65278
X14224Y67818
X16764Y67818
X14224Y70358
X16764Y70358
X14224Y72898
X16764Y72898
X83820Y22098
X86360Y22098
X83820Y24638
X86360Y24638
X83820Y27178
X86360Y27178
X83820Y29718
X86360Y29718
X83820Y32258
X86360Y32258
X83820Y34798
X86360Y34798
X83820Y37338
X86360Y37338
X83820Y39878
X86360Y39878
X83820Y42418
X86360Y42418
X83820Y44958
X86360Y44958
X83820Y47498
X86360Y47498
X83820Y50038
X86360Y50038
X83820Y52578
X86360Y52578
X83820Y55118
X86360Y55118
X83820Y57658
X86360Y57658
X83820Y60198
X86360Y60198
X83820Y62738
X86360Y62738
X83820Y65278
X86360Y65278
X83820Y67818
X86360Y67818
X83820Y70358
X86360Y70358
X83820Y72898
X86360Y72898
X19050Y6350
X21590Y6350
X24130Y6350
X14224Y62738
X29210Y6350
X31750Y6350
X34290Y6350
X36830Y6350
X39370Y6350
X41910Y6350
X44450Y6350
X46990Y6350
X49530Y6350
X52070Y6350
X54610Y6350
X57150Y6350
X59690Y6350
X62230Y6350
X64770Y6350
X67310Y6350
X69850Y6350
X72390Y6350
X74930Y6350
X77470Y6350
X80010Y6350
X82550Y6350
X19050Y-13970
X21590Y-13970
X24130Y-13970
X26670Y-13970
X29210Y-13970
X31750Y-13970
X34290Y-13970
X36830Y-13970
X39370Y-13970
X41910Y-13970
X44450Y-13970
X46990Y-13970
X49530Y-13970
X52070Y-13970
X54610Y-13970
X57150Y-13970
X59690Y-13970
X62230Y-13970
X64770Y-13970
X67310Y-13970
X69850Y-13970
X72390Y-13970
T7
X31750Y47498
X64262Y26416
X64262Y18796
X69342Y43942
X76962Y43942
X69342Y49022
X76962Y49022
X52070Y23876
X31750Y42418
X69342Y54102
X41148Y49276
X76962Y54102
X69342Y59182
X76962Y59182
X64770Y56642
X31750Y35052
X24130Y35052
X41148Y54356
X72898Y78232
X72898Y73152
X29210Y23876
X24130Y23876
X29210Y14986
X24130Y14986
X31750Y30226
X24130Y30226
X44450Y13716
X52070Y13716
X44450Y18796
X52070Y18796
X44450Y23876
X57150Y56642
X44450Y28956
X52070Y28956
X20828Y85598
X20828Y80518
X55372Y52832
X50292Y52832
X55372Y47752
X50292Y47752
X57150Y61722
X64770Y61722
T8
X71082Y84735
X73482Y83535
X70282Y83535
X72682Y84735
X71882Y83535
T9
X43688Y76708
X25552Y60909
X66802Y49378
X37897Y24282
X17983Y43383
X36170Y24994
X63500Y3048
X39878Y85852
X63398Y42672
X55118Y85598
X64110Y45415
X65735Y14732
X62687Y47650
X37592Y26416
X37592Y18898
M30