G04 EAGLE Gerber RS-274X export*
G75*
%MOMM*%
%FSLAX34Y34*%
%LPD*%
%INBottom Copper*%
%IPPOS*%
%AMOC8*
5,1,8,0,0,1.08239X$1,22.5*%
G01*
%ADD10C,1.524000*%
%ADD11P,1.429621X8X112.500000*%
%ADD12R,1.650000X1.650000*%
%ADD13C,1.650000*%
%ADD14P,1.429621X8X292.500000*%
%ADD15C,2.184400*%
%ADD16P,1.632244X8X22.500000*%
%ADD17P,1.429621X8X202.500000*%
%ADD18P,1.429621X8X22.500000*%
%ADD19C,1.651000*%
%ADD20C,0.381000*%
%ADD21C,0.756400*%

G36*
X546120Y-322576D02*
X546120Y-322576D01*
X546139Y-322578D01*
X546241Y-322556D01*
X546343Y-322540D01*
X546360Y-322530D01*
X546380Y-322526D01*
X546469Y-322473D01*
X546560Y-322424D01*
X546574Y-322410D01*
X546591Y-322400D01*
X546658Y-322321D01*
X546730Y-322246D01*
X546738Y-322228D01*
X546751Y-322213D01*
X546790Y-322117D01*
X546833Y-322023D01*
X546835Y-322003D01*
X546843Y-321985D01*
X546861Y-321818D01*
X546861Y-152478D01*
X546850Y-152408D01*
X546848Y-152336D01*
X546830Y-152287D01*
X546822Y-152236D01*
X546788Y-152172D01*
X546763Y-152105D01*
X546731Y-152064D01*
X546706Y-152018D01*
X546655Y-151969D01*
X546610Y-151913D01*
X546566Y-151885D01*
X546528Y-151849D01*
X546463Y-151819D01*
X546403Y-151780D01*
X546352Y-151767D01*
X546305Y-151745D01*
X546234Y-151737D01*
X546164Y-151720D01*
X546112Y-151724D01*
X546061Y-151718D01*
X545990Y-151733D01*
X545919Y-151739D01*
X545871Y-151759D01*
X545820Y-151770D01*
X545759Y-151807D01*
X545693Y-151835D01*
X545637Y-151880D01*
X545609Y-151897D01*
X545594Y-151914D01*
X545562Y-151940D01*
X522472Y-175030D01*
X522460Y-175046D01*
X522445Y-175059D01*
X522389Y-175146D01*
X522328Y-175230D01*
X522323Y-175249D01*
X522312Y-175265D01*
X522286Y-175366D01*
X522256Y-175465D01*
X522257Y-175485D01*
X522252Y-175504D01*
X522260Y-175607D01*
X522262Y-175711D01*
X522269Y-175729D01*
X522271Y-175749D01*
X522311Y-175844D01*
X522347Y-175942D01*
X522359Y-175957D01*
X522367Y-175976D01*
X522472Y-176106D01*
X522770Y-176405D01*
X524511Y-180606D01*
X524511Y-185154D01*
X522770Y-189355D01*
X519555Y-192570D01*
X515354Y-194311D01*
X495566Y-194311D01*
X491365Y-192570D01*
X488150Y-189355D01*
X486409Y-185154D01*
X486409Y-180606D01*
X488150Y-176405D01*
X491365Y-173190D01*
X495566Y-171449D01*
X508492Y-171449D01*
X508582Y-171435D01*
X508673Y-171427D01*
X508703Y-171415D01*
X508735Y-171410D01*
X508816Y-171367D01*
X508899Y-171331D01*
X508932Y-171305D01*
X508952Y-171294D01*
X508974Y-171271D01*
X509030Y-171226D01*
X510046Y-170210D01*
X510088Y-170152D01*
X510138Y-170100D01*
X510160Y-170053D01*
X510190Y-170011D01*
X510211Y-169942D01*
X510241Y-169877D01*
X510247Y-169825D01*
X510262Y-169775D01*
X510261Y-169704D01*
X510268Y-169633D01*
X510257Y-169582D01*
X510256Y-169530D01*
X510231Y-169462D01*
X510216Y-169392D01*
X510189Y-169348D01*
X510172Y-169299D01*
X510127Y-169243D01*
X510090Y-169181D01*
X510050Y-169147D01*
X510018Y-169107D01*
X509958Y-169068D01*
X509903Y-169021D01*
X509855Y-169002D01*
X509811Y-168974D01*
X509741Y-168956D01*
X509675Y-168929D01*
X509604Y-168921D01*
X509572Y-168913D01*
X509549Y-168915D01*
X509508Y-168911D01*
X495566Y-168911D01*
X491365Y-167170D01*
X488150Y-163955D01*
X486409Y-159754D01*
X486409Y-155206D01*
X488150Y-151005D01*
X491365Y-147790D01*
X495566Y-146049D01*
X515354Y-146049D01*
X519555Y-147790D01*
X522770Y-151005D01*
X524549Y-155298D01*
X524573Y-155337D01*
X524589Y-155380D01*
X524637Y-155441D01*
X524678Y-155507D01*
X524714Y-155536D01*
X524742Y-155572D01*
X524808Y-155614D01*
X524868Y-155664D01*
X524911Y-155680D01*
X524949Y-155705D01*
X525025Y-155724D01*
X525097Y-155752D01*
X525143Y-155754D01*
X525188Y-155765D01*
X525265Y-155759D01*
X525343Y-155762D01*
X525387Y-155750D01*
X525433Y-155746D01*
X525505Y-155716D01*
X525579Y-155694D01*
X525617Y-155668D01*
X525659Y-155650D01*
X525766Y-155564D01*
X525781Y-155554D01*
X525784Y-155550D01*
X525790Y-155545D01*
X540161Y-141174D01*
X540204Y-141115D01*
X540248Y-141069D01*
X540255Y-141052D01*
X540274Y-141031D01*
X540286Y-141000D01*
X540305Y-140974D01*
X540331Y-140889D01*
X540351Y-140846D01*
X540352Y-140836D01*
X540366Y-140802D01*
X540370Y-140761D01*
X540377Y-140739D01*
X540376Y-140707D01*
X540384Y-140636D01*
X540384Y86217D01*
X540381Y86235D01*
X540383Y86251D01*
X540369Y86319D01*
X540362Y86398D01*
X540350Y86428D01*
X540345Y86460D01*
X540333Y86481D01*
X540331Y86492D01*
X540302Y86541D01*
X540266Y86624D01*
X540240Y86657D01*
X540229Y86677D01*
X540208Y86698D01*
X540205Y86703D01*
X540200Y86707D01*
X540161Y86755D01*
X420050Y206866D01*
X419977Y206919D01*
X419907Y206979D01*
X419877Y206991D01*
X419851Y207010D01*
X419764Y207037D01*
X419679Y207071D01*
X419638Y207075D01*
X419616Y207082D01*
X419583Y207081D01*
X419512Y207089D01*
X414398Y207089D01*
X407749Y213738D01*
X407749Y223142D01*
X414398Y229791D01*
X423802Y229791D01*
X430451Y223142D01*
X430451Y213738D01*
X430436Y213724D01*
X430424Y213708D01*
X430409Y213695D01*
X430353Y213608D01*
X430293Y213524D01*
X430287Y213505D01*
X430276Y213488D01*
X430251Y213388D01*
X430220Y213289D01*
X430221Y213269D01*
X430216Y213250D01*
X430224Y213147D01*
X430227Y213043D01*
X430233Y213024D01*
X430235Y213004D01*
X430275Y212909D01*
X430311Y212812D01*
X430323Y212796D01*
X430331Y212778D01*
X430436Y212647D01*
X545562Y97522D01*
X545620Y97480D01*
X545672Y97430D01*
X545719Y97408D01*
X545761Y97378D01*
X545830Y97357D01*
X545895Y97327D01*
X545947Y97321D01*
X545997Y97306D01*
X546068Y97308D01*
X546139Y97300D01*
X546190Y97311D01*
X546242Y97312D01*
X546310Y97337D01*
X546380Y97352D01*
X546425Y97379D01*
X546473Y97396D01*
X546529Y97441D01*
X546591Y97478D01*
X546625Y97518D01*
X546665Y97550D01*
X546704Y97610D01*
X546751Y97665D01*
X546770Y97713D01*
X546798Y97757D01*
X546816Y97827D01*
X546843Y97893D01*
X546851Y97964D01*
X546859Y97996D01*
X546857Y98019D01*
X546861Y98060D01*
X546861Y404878D01*
X546858Y404898D01*
X546860Y404917D01*
X546838Y405019D01*
X546822Y405121D01*
X546812Y405138D01*
X546808Y405158D01*
X546755Y405247D01*
X546706Y405338D01*
X546692Y405352D01*
X546682Y405369D01*
X546603Y405436D01*
X546528Y405508D01*
X546510Y405516D01*
X546495Y405529D01*
X546399Y405568D01*
X546305Y405611D01*
X546285Y405613D01*
X546267Y405621D01*
X546100Y405639D01*
X-149098Y405639D01*
X-149118Y405636D01*
X-149137Y405638D01*
X-149239Y405616D01*
X-149341Y405600D01*
X-149358Y405590D01*
X-149378Y405586D01*
X-149467Y405533D01*
X-149558Y405484D01*
X-149572Y405470D01*
X-149589Y405460D01*
X-149656Y405381D01*
X-149728Y405306D01*
X-149736Y405288D01*
X-149749Y405273D01*
X-149788Y405177D01*
X-149831Y405083D01*
X-149833Y405063D01*
X-149841Y405045D01*
X-149859Y404878D01*
X-149859Y-321818D01*
X-149856Y-321838D01*
X-149858Y-321857D01*
X-149836Y-321959D01*
X-149820Y-322061D01*
X-149810Y-322078D01*
X-149806Y-322098D01*
X-149753Y-322187D01*
X-149704Y-322278D01*
X-149690Y-322292D01*
X-149680Y-322309D01*
X-149601Y-322376D01*
X-149526Y-322448D01*
X-149508Y-322456D01*
X-149493Y-322469D01*
X-149397Y-322508D01*
X-149303Y-322551D01*
X-149283Y-322553D01*
X-149265Y-322561D01*
X-149098Y-322579D01*
X546100Y-322579D01*
X546120Y-322576D01*
G37*
%LPC*%
G36*
X150000Y-291466D02*
X150000Y-291466D01*
X145565Y-289629D01*
X142171Y-286235D01*
X140334Y-281800D01*
X140334Y-271011D01*
X140320Y-270921D01*
X140312Y-270830D01*
X140300Y-270800D01*
X140295Y-270768D01*
X140252Y-270688D01*
X140216Y-270604D01*
X140190Y-270572D01*
X140179Y-270551D01*
X140156Y-270529D01*
X140111Y-270473D01*
X80294Y-210656D01*
X80236Y-210614D01*
X80184Y-210565D01*
X80137Y-210543D01*
X80095Y-210512D01*
X80026Y-210491D01*
X79961Y-210461D01*
X79909Y-210455D01*
X79859Y-210440D01*
X79788Y-210442D01*
X79717Y-210434D01*
X79666Y-210445D01*
X79614Y-210446D01*
X79546Y-210471D01*
X79476Y-210486D01*
X79431Y-210513D01*
X79383Y-210531D01*
X79327Y-210576D01*
X79265Y-210612D01*
X79231Y-210652D01*
X79191Y-210684D01*
X79152Y-210745D01*
X79105Y-210799D01*
X79086Y-210848D01*
X79058Y-210891D01*
X79040Y-210961D01*
X79013Y-211027D01*
X79005Y-211099D01*
X78997Y-211130D01*
X78999Y-211153D01*
X78995Y-211194D01*
X78995Y-212594D01*
X72894Y-218695D01*
X64266Y-218695D01*
X58165Y-212594D01*
X58165Y-203966D01*
X64266Y-197865D01*
X65666Y-197865D01*
X65737Y-197854D01*
X65808Y-197852D01*
X65857Y-197834D01*
X65909Y-197826D01*
X65972Y-197792D01*
X66039Y-197767D01*
X66080Y-197735D01*
X66126Y-197710D01*
X66175Y-197659D01*
X66231Y-197614D01*
X66260Y-197570D01*
X66295Y-197532D01*
X66326Y-197467D01*
X66364Y-197407D01*
X66377Y-197356D01*
X66399Y-197309D01*
X66407Y-197238D01*
X66424Y-197168D01*
X66420Y-197116D01*
X66426Y-197065D01*
X66411Y-196994D01*
X66405Y-196923D01*
X66385Y-196875D01*
X66374Y-196824D01*
X66337Y-196763D01*
X66309Y-196697D01*
X66264Y-196641D01*
X66248Y-196613D01*
X66230Y-196598D01*
X66204Y-196566D01*
X14360Y-144722D01*
X14307Y-144684D01*
X14260Y-144638D01*
X14187Y-144598D01*
X14161Y-144578D01*
X14142Y-144573D01*
X14113Y-144557D01*
X10832Y-143198D01*
X7331Y-139697D01*
X2824Y-135190D01*
X2766Y-135148D01*
X2714Y-135099D01*
X2667Y-135077D01*
X2625Y-135046D01*
X2556Y-135025D01*
X2491Y-134995D01*
X2439Y-134989D01*
X2389Y-134974D01*
X2318Y-134976D01*
X2247Y-134968D01*
X2196Y-134979D01*
X2144Y-134980D01*
X2076Y-135005D01*
X2006Y-135020D01*
X1961Y-135047D01*
X1913Y-135065D01*
X1857Y-135110D01*
X1795Y-135146D01*
X1761Y-135186D01*
X1721Y-135218D01*
X1682Y-135279D01*
X1635Y-135333D01*
X1616Y-135382D01*
X1588Y-135425D01*
X1570Y-135495D01*
X1543Y-135561D01*
X1535Y-135633D01*
X1527Y-135664D01*
X1529Y-135687D01*
X1525Y-135728D01*
X1525Y-138177D01*
X-6097Y-138177D01*
X-6097Y-130555D01*
X-3648Y-130555D01*
X-3577Y-130544D01*
X-3506Y-130542D01*
X-3457Y-130524D01*
X-3405Y-130516D01*
X-3342Y-130482D01*
X-3275Y-130457D01*
X-3234Y-130425D01*
X-3188Y-130400D01*
X-3138Y-130348D01*
X-3083Y-130304D01*
X-3055Y-130260D01*
X-3019Y-130222D01*
X-2988Y-130157D01*
X-2950Y-130097D01*
X-2937Y-130046D01*
X-2915Y-129999D01*
X-2907Y-129928D01*
X-2890Y-129858D01*
X-2894Y-129806D01*
X-2888Y-129755D01*
X-2903Y-129684D01*
X-2909Y-129613D01*
X-2929Y-129565D01*
X-2940Y-129514D01*
X-2977Y-129453D01*
X-3005Y-129387D01*
X-3050Y-129331D01*
X-3066Y-129303D01*
X-3084Y-129288D01*
X-3110Y-129256D01*
X-3498Y-128868D01*
X-5335Y-124433D01*
X-5335Y-108564D01*
X-5349Y-108474D01*
X-5357Y-108383D01*
X-5369Y-108353D01*
X-5374Y-108321D01*
X-5417Y-108241D01*
X-5453Y-108157D01*
X-5479Y-108125D01*
X-5490Y-108104D01*
X-5513Y-108082D01*
X-5558Y-108026D01*
X-17849Y-95735D01*
X-19686Y-91300D01*
X-19686Y-86500D01*
X-17849Y-82065D01*
X-14455Y-78671D01*
X-10020Y-76834D01*
X-5220Y-76834D01*
X-785Y-78671D01*
X13459Y-92915D01*
X16960Y-96416D01*
X18797Y-100851D01*
X18797Y-106133D01*
X18808Y-106204D01*
X18810Y-106275D01*
X18828Y-106324D01*
X18836Y-106376D01*
X18870Y-106439D01*
X18895Y-106506D01*
X18927Y-106547D01*
X18952Y-106593D01*
X19004Y-106642D01*
X19048Y-106698D01*
X19092Y-106727D01*
X19130Y-106762D01*
X19195Y-106793D01*
X19255Y-106831D01*
X19306Y-106844D01*
X19353Y-106866D01*
X19424Y-106874D01*
X19494Y-106891D01*
X19546Y-106887D01*
X19597Y-106893D01*
X19668Y-106878D01*
X19739Y-106872D01*
X19787Y-106852D01*
X19838Y-106841D01*
X19899Y-106804D01*
X19965Y-106776D01*
X20021Y-106731D01*
X20049Y-106715D01*
X20064Y-106697D01*
X20096Y-106671D01*
X21612Y-105155D01*
X23877Y-105155D01*
X23877Y-113538D01*
X23880Y-113558D01*
X23878Y-113577D01*
X23900Y-113679D01*
X23917Y-113781D01*
X23926Y-113798D01*
X23930Y-113818D01*
X23983Y-113907D01*
X24032Y-113998D01*
X24046Y-114012D01*
X24056Y-114029D01*
X24135Y-114096D01*
X24210Y-114167D01*
X24228Y-114176D01*
X24243Y-114189D01*
X24339Y-114227D01*
X24433Y-114271D01*
X24453Y-114273D01*
X24471Y-114281D01*
X24638Y-114299D01*
X25401Y-114299D01*
X25401Y-115062D01*
X25404Y-115082D01*
X25402Y-115101D01*
X25424Y-115203D01*
X25441Y-115305D01*
X25450Y-115322D01*
X25454Y-115342D01*
X25507Y-115431D01*
X25556Y-115522D01*
X25570Y-115536D01*
X25580Y-115553D01*
X25659Y-115620D01*
X25734Y-115691D01*
X25752Y-115700D01*
X25767Y-115713D01*
X25863Y-115752D01*
X25957Y-115795D01*
X25977Y-115797D01*
X25995Y-115805D01*
X26162Y-115823D01*
X34545Y-115823D01*
X34545Y-118088D01*
X29188Y-123445D01*
X29048Y-123445D01*
X28977Y-123456D01*
X28906Y-123458D01*
X28857Y-123476D01*
X28805Y-123484D01*
X28742Y-123518D01*
X28675Y-123543D01*
X28634Y-123575D01*
X28588Y-123600D01*
X28539Y-123652D01*
X28483Y-123696D01*
X28454Y-123740D01*
X28419Y-123778D01*
X28388Y-123843D01*
X28350Y-123903D01*
X28337Y-123954D01*
X28315Y-124001D01*
X28307Y-124072D01*
X28290Y-124142D01*
X28294Y-124194D01*
X28288Y-124245D01*
X28303Y-124316D01*
X28309Y-124387D01*
X28329Y-124435D01*
X28340Y-124486D01*
X28377Y-124547D01*
X28405Y-124613D01*
X28450Y-124669D01*
X28466Y-124697D01*
X28484Y-124712D01*
X28510Y-124744D01*
X159128Y-255362D01*
X162629Y-258863D01*
X164466Y-263298D01*
X164466Y-281800D01*
X162629Y-286235D01*
X159235Y-289629D01*
X154800Y-291466D01*
X150000Y-291466D01*
G37*
%LPD*%
%LPC*%
G36*
X465198Y207089D02*
X465198Y207089D01*
X458549Y213738D01*
X458549Y223142D01*
X459199Y223791D01*
X459211Y223807D01*
X459226Y223820D01*
X459282Y223907D01*
X459342Y223991D01*
X459348Y224010D01*
X459359Y224027D01*
X459384Y224127D01*
X459415Y224226D01*
X459414Y224246D01*
X459419Y224265D01*
X459411Y224368D01*
X459408Y224472D01*
X459402Y224491D01*
X459400Y224511D01*
X459360Y224605D01*
X459324Y224703D01*
X459311Y224719D01*
X459304Y224737D01*
X459199Y224868D01*
X372505Y311561D01*
X372431Y311614D01*
X372362Y311674D01*
X372332Y311686D01*
X372306Y311705D01*
X372219Y311732D01*
X372134Y311766D01*
X372093Y311770D01*
X372071Y311777D01*
X372038Y311776D01*
X371967Y311784D01*
X208413Y311784D01*
X206312Y312654D01*
X187889Y331077D01*
X187873Y331089D01*
X187861Y331105D01*
X187773Y331161D01*
X187690Y331221D01*
X187671Y331227D01*
X187654Y331238D01*
X187553Y331263D01*
X187454Y331293D01*
X187435Y331293D01*
X187415Y331298D01*
X187312Y331290D01*
X187209Y331287D01*
X187190Y331280D01*
X187170Y331279D01*
X187075Y331238D01*
X186978Y331203D01*
X186962Y331190D01*
X186944Y331182D01*
X186813Y331077D01*
X186145Y330410D01*
X180731Y328167D01*
X174869Y328167D01*
X169455Y330410D01*
X165310Y334555D01*
X163067Y339969D01*
X163067Y345831D01*
X165310Y351245D01*
X169455Y355390D01*
X174869Y357633D01*
X180731Y357633D01*
X186145Y355390D01*
X190290Y351245D01*
X192533Y345831D01*
X192533Y342916D01*
X192547Y342826D01*
X192555Y342735D01*
X192567Y342705D01*
X192572Y342673D01*
X192615Y342592D01*
X192651Y342509D01*
X192677Y342476D01*
X192688Y342456D01*
X192711Y342434D01*
X192756Y342378D01*
X211695Y323439D01*
X211769Y323386D01*
X211838Y323326D01*
X211868Y323314D01*
X211894Y323295D01*
X211981Y323268D01*
X212066Y323234D01*
X212107Y323230D01*
X212129Y323223D01*
X212162Y323224D01*
X212233Y323216D01*
X375787Y323216D01*
X377888Y322346D01*
X470220Y230014D01*
X470294Y229961D01*
X470363Y229901D01*
X470393Y229889D01*
X470419Y229870D01*
X470506Y229843D01*
X470591Y229809D01*
X470632Y229805D01*
X470654Y229798D01*
X470687Y229799D01*
X470758Y229791D01*
X474602Y229791D01*
X481251Y223142D01*
X481251Y213738D01*
X474602Y207089D01*
X465198Y207089D01*
G37*
%LPD*%
%LPC*%
G36*
X345706Y-194311D02*
X345706Y-194311D01*
X341505Y-192570D01*
X338290Y-189355D01*
X336549Y-185154D01*
X336549Y-180606D01*
X338290Y-176405D01*
X338588Y-176106D01*
X338600Y-176090D01*
X338615Y-176078D01*
X338671Y-175991D01*
X338732Y-175907D01*
X338737Y-175888D01*
X338748Y-175871D01*
X338774Y-175771D01*
X338804Y-175672D01*
X338803Y-175652D01*
X338808Y-175632D01*
X338800Y-175529D01*
X338798Y-175426D01*
X338791Y-175407D01*
X338789Y-175387D01*
X338749Y-175292D01*
X338713Y-175195D01*
X338701Y-175179D01*
X338693Y-175161D01*
X338588Y-175030D01*
X337504Y-173946D01*
X329799Y-166241D01*
X328929Y-164140D01*
X328929Y-125420D01*
X329799Y-123319D01*
X349661Y-103457D01*
X349714Y-103383D01*
X349774Y-103313D01*
X349786Y-103283D01*
X349805Y-103257D01*
X349832Y-103170D01*
X349866Y-103085D01*
X349870Y-103044D01*
X349877Y-103022D01*
X349876Y-102990D01*
X349884Y-102919D01*
X349884Y-94237D01*
X349870Y-94147D01*
X349862Y-94056D01*
X349850Y-94027D01*
X349845Y-93995D01*
X349802Y-93914D01*
X349766Y-93830D01*
X349740Y-93798D01*
X349729Y-93777D01*
X349706Y-93755D01*
X349661Y-93699D01*
X349163Y-93201D01*
X348007Y-90410D01*
X348007Y-87390D01*
X349163Y-84599D01*
X351299Y-82463D01*
X354090Y-81307D01*
X357110Y-81307D01*
X359901Y-82463D01*
X362037Y-84599D01*
X363193Y-87390D01*
X363193Y-90410D01*
X362037Y-93201D01*
X361539Y-93699D01*
X361492Y-93764D01*
X361481Y-93776D01*
X361478Y-93782D01*
X361426Y-93842D01*
X361414Y-93873D01*
X361395Y-93899D01*
X361368Y-93986D01*
X361334Y-94071D01*
X361330Y-94112D01*
X361323Y-94134D01*
X361324Y-94166D01*
X361316Y-94237D01*
X361316Y-106738D01*
X360446Y-108839D01*
X348665Y-120620D01*
X348623Y-120678D01*
X348574Y-120730D01*
X348552Y-120777D01*
X348521Y-120819D01*
X348500Y-120888D01*
X348470Y-120953D01*
X348464Y-121005D01*
X348449Y-121055D01*
X348451Y-121126D01*
X348443Y-121197D01*
X348454Y-121248D01*
X348455Y-121300D01*
X348480Y-121368D01*
X348495Y-121438D01*
X348522Y-121483D01*
X348540Y-121531D01*
X348585Y-121587D01*
X348621Y-121649D01*
X348661Y-121683D01*
X348694Y-121723D01*
X348754Y-121762D01*
X348808Y-121809D01*
X348857Y-121828D01*
X348900Y-121856D01*
X348970Y-121874D01*
X349037Y-121901D01*
X349108Y-121909D01*
X349139Y-121917D01*
X349162Y-121915D01*
X349203Y-121919D01*
X354077Y-121919D01*
X354077Y-131318D01*
X354080Y-131338D01*
X354078Y-131357D01*
X354100Y-131459D01*
X354117Y-131561D01*
X354126Y-131578D01*
X354130Y-131598D01*
X354183Y-131687D01*
X354232Y-131778D01*
X354246Y-131792D01*
X354256Y-131809D01*
X354335Y-131876D01*
X354410Y-131947D01*
X354428Y-131956D01*
X354443Y-131969D01*
X354539Y-132007D01*
X354633Y-132051D01*
X354653Y-132053D01*
X354671Y-132061D01*
X354838Y-132079D01*
X355601Y-132079D01*
X355601Y-132081D01*
X354838Y-132081D01*
X354818Y-132084D01*
X354799Y-132082D01*
X354697Y-132104D01*
X354595Y-132121D01*
X354578Y-132130D01*
X354558Y-132134D01*
X354469Y-132187D01*
X354378Y-132236D01*
X354364Y-132250D01*
X354347Y-132260D01*
X354280Y-132339D01*
X354209Y-132414D01*
X354200Y-132432D01*
X354187Y-132447D01*
X354148Y-132543D01*
X354105Y-132637D01*
X354103Y-132657D01*
X354095Y-132675D01*
X354077Y-132842D01*
X354077Y-142241D01*
X347180Y-142241D01*
X345601Y-141991D01*
X344080Y-141496D01*
X342655Y-140770D01*
X341569Y-139982D01*
X341559Y-139976D01*
X341550Y-139968D01*
X341449Y-139921D01*
X341350Y-139871D01*
X341338Y-139870D01*
X341327Y-139865D01*
X341216Y-139852D01*
X341106Y-139837D01*
X341094Y-139839D01*
X341083Y-139837D01*
X340974Y-139861D01*
X340864Y-139881D01*
X340854Y-139887D01*
X340842Y-139890D01*
X340746Y-139947D01*
X340649Y-140001D01*
X340641Y-140010D01*
X340631Y-140016D01*
X340559Y-140101D01*
X340484Y-140183D01*
X340479Y-140194D01*
X340471Y-140203D01*
X340429Y-140306D01*
X340385Y-140408D01*
X340384Y-140420D01*
X340379Y-140431D01*
X340361Y-140598D01*
X340361Y-147124D01*
X340368Y-147169D01*
X340366Y-147215D01*
X340388Y-147290D01*
X340400Y-147367D01*
X340422Y-147407D01*
X340435Y-147452D01*
X340479Y-147516D01*
X340516Y-147584D01*
X340549Y-147616D01*
X340575Y-147654D01*
X340638Y-147700D01*
X340694Y-147754D01*
X340736Y-147773D01*
X340772Y-147800D01*
X340846Y-147825D01*
X340917Y-147857D01*
X340963Y-147862D01*
X341006Y-147877D01*
X341084Y-147876D01*
X341161Y-147884D01*
X341206Y-147875D01*
X341252Y-147874D01*
X341384Y-147836D01*
X341402Y-147832D01*
X341406Y-147830D01*
X341413Y-147828D01*
X345706Y-146049D01*
X365494Y-146049D01*
X369695Y-147790D01*
X372910Y-151005D01*
X374651Y-155206D01*
X374651Y-159754D01*
X372910Y-163955D01*
X369695Y-167170D01*
X365494Y-168911D01*
X351552Y-168911D01*
X351481Y-168922D01*
X351409Y-168924D01*
X351360Y-168942D01*
X351309Y-168950D01*
X351246Y-168984D01*
X351178Y-169009D01*
X351138Y-169041D01*
X351092Y-169066D01*
X351042Y-169118D01*
X350986Y-169162D01*
X350958Y-169206D01*
X350922Y-169244D01*
X350892Y-169309D01*
X350853Y-169369D01*
X350841Y-169420D01*
X350819Y-169467D01*
X350811Y-169538D01*
X350793Y-169608D01*
X350797Y-169660D01*
X350792Y-169711D01*
X350807Y-169782D01*
X350812Y-169853D01*
X350833Y-169901D01*
X350844Y-169952D01*
X350881Y-170013D01*
X350909Y-170079D01*
X350954Y-170135D01*
X350970Y-170163D01*
X350988Y-170178D01*
X351014Y-170210D01*
X352030Y-171226D01*
X352104Y-171279D01*
X352173Y-171339D01*
X352203Y-171351D01*
X352229Y-171370D01*
X352316Y-171397D01*
X352401Y-171431D01*
X352442Y-171435D01*
X352464Y-171442D01*
X352497Y-171441D01*
X352568Y-171449D01*
X365494Y-171449D01*
X369695Y-173190D01*
X372910Y-176405D01*
X374651Y-180606D01*
X374651Y-185154D01*
X372910Y-189355D01*
X369695Y-192570D01*
X365494Y-194311D01*
X345706Y-194311D01*
G37*
%LPD*%
%LPC*%
G36*
X490598Y207089D02*
X490598Y207089D01*
X483949Y213738D01*
X483949Y223142D01*
X484599Y223791D01*
X484611Y223807D01*
X484626Y223820D01*
X484682Y223907D01*
X484742Y223991D01*
X484748Y224010D01*
X484759Y224027D01*
X484784Y224127D01*
X484815Y224226D01*
X484814Y224246D01*
X484819Y224265D01*
X484811Y224368D01*
X484808Y224472D01*
X484802Y224491D01*
X484800Y224511D01*
X484760Y224605D01*
X484724Y224703D01*
X484711Y224719D01*
X484704Y224737D01*
X484599Y224868D01*
X407904Y301562D01*
X407034Y303663D01*
X407034Y327406D01*
X407031Y327426D01*
X407033Y327445D01*
X407011Y327547D01*
X406995Y327649D01*
X406985Y327666D01*
X406981Y327686D01*
X406928Y327775D01*
X406879Y327866D01*
X406865Y327880D01*
X406855Y327897D01*
X406776Y327964D01*
X406701Y328036D01*
X406683Y328044D01*
X406668Y328057D01*
X406572Y328096D01*
X406478Y328139D01*
X406458Y328141D01*
X406440Y328149D01*
X406273Y328167D01*
X403469Y328167D01*
X398055Y330410D01*
X393910Y334555D01*
X391667Y339969D01*
X391667Y345831D01*
X393910Y351245D01*
X398055Y355390D01*
X403469Y357633D01*
X409331Y357633D01*
X414745Y355390D01*
X418890Y351245D01*
X421133Y345831D01*
X421133Y339969D01*
X418890Y334555D01*
X418689Y334353D01*
X418636Y334280D01*
X418576Y334210D01*
X418564Y334180D01*
X418545Y334154D01*
X418518Y334067D01*
X418484Y333982D01*
X418480Y333941D01*
X418473Y333919D01*
X418474Y333886D01*
X418466Y333815D01*
X418466Y307483D01*
X418480Y307393D01*
X418488Y307302D01*
X418500Y307272D01*
X418505Y307240D01*
X418548Y307159D01*
X418584Y307076D01*
X418610Y307043D01*
X418621Y307023D01*
X418644Y307001D01*
X418689Y306945D01*
X495620Y230014D01*
X495694Y229961D01*
X495763Y229901D01*
X495793Y229889D01*
X495819Y229870D01*
X495906Y229843D01*
X495991Y229809D01*
X496032Y229805D01*
X496054Y229798D01*
X496087Y229799D01*
X496158Y229791D01*
X500002Y229791D01*
X506651Y223142D01*
X506651Y213738D01*
X500002Y207089D01*
X490598Y207089D01*
G37*
%LPD*%
%LPC*%
G36*
X421906Y-194311D02*
X421906Y-194311D01*
X417705Y-192570D01*
X414490Y-189355D01*
X413323Y-186538D01*
X413288Y-186482D01*
X413262Y-186422D01*
X413211Y-186357D01*
X413193Y-186329D01*
X413178Y-186316D01*
X413158Y-186291D01*
X405999Y-179133D01*
X405129Y-177032D01*
X405129Y-146828D01*
X405115Y-146738D01*
X405107Y-146647D01*
X405095Y-146617D01*
X405090Y-146585D01*
X405047Y-146504D01*
X405011Y-146421D01*
X404985Y-146388D01*
X404974Y-146368D01*
X404951Y-146346D01*
X404906Y-146290D01*
X380732Y-122116D01*
X380658Y-122063D01*
X380589Y-122003D01*
X380559Y-121991D01*
X380533Y-121972D01*
X380446Y-121945D01*
X380361Y-121911D01*
X380320Y-121907D01*
X380298Y-121900D01*
X380265Y-121901D01*
X380194Y-121893D01*
X379490Y-121893D01*
X376699Y-120737D01*
X374563Y-118601D01*
X373407Y-115810D01*
X373407Y-112790D01*
X374563Y-109999D01*
X376699Y-107863D01*
X379490Y-106707D01*
X382510Y-106707D01*
X385301Y-107863D01*
X387437Y-109999D01*
X388593Y-112790D01*
X388593Y-113494D01*
X388607Y-113584D01*
X388615Y-113675D01*
X388627Y-113705D01*
X388632Y-113737D01*
X388675Y-113818D01*
X388711Y-113901D01*
X388737Y-113934D01*
X388748Y-113954D01*
X388771Y-113976D01*
X388816Y-114032D01*
X415691Y-140907D01*
X416561Y-143008D01*
X416561Y-147124D01*
X416568Y-147169D01*
X416566Y-147215D01*
X416588Y-147290D01*
X416600Y-147367D01*
X416622Y-147407D01*
X416635Y-147452D01*
X416679Y-147516D01*
X416716Y-147584D01*
X416749Y-147616D01*
X416775Y-147654D01*
X416838Y-147700D01*
X416894Y-147754D01*
X416936Y-147773D01*
X416972Y-147800D01*
X417046Y-147825D01*
X417117Y-147857D01*
X417163Y-147862D01*
X417206Y-147877D01*
X417284Y-147876D01*
X417361Y-147884D01*
X417406Y-147875D01*
X417452Y-147874D01*
X417584Y-147836D01*
X417602Y-147832D01*
X417606Y-147830D01*
X417613Y-147828D01*
X421906Y-146049D01*
X441694Y-146049D01*
X445895Y-147790D01*
X449110Y-151005D01*
X450851Y-155206D01*
X450851Y-159754D01*
X449110Y-163955D01*
X445895Y-167170D01*
X441694Y-168911D01*
X421906Y-168911D01*
X417613Y-167132D01*
X417569Y-167122D01*
X417527Y-167103D01*
X417450Y-167094D01*
X417374Y-167076D01*
X417328Y-167081D01*
X417283Y-167076D01*
X417206Y-167092D01*
X417129Y-167099D01*
X417087Y-167118D01*
X417042Y-167128D01*
X416975Y-167168D01*
X416904Y-167199D01*
X416870Y-167230D01*
X416831Y-167254D01*
X416780Y-167313D01*
X416723Y-167366D01*
X416701Y-167406D01*
X416671Y-167441D01*
X416642Y-167513D01*
X416605Y-167581D01*
X416596Y-167626D01*
X416579Y-167669D01*
X416564Y-167805D01*
X416561Y-167823D01*
X416562Y-167828D01*
X416561Y-167836D01*
X416561Y-172524D01*
X416568Y-172569D01*
X416566Y-172615D01*
X416588Y-172690D01*
X416600Y-172767D01*
X416622Y-172807D01*
X416635Y-172852D01*
X416679Y-172916D01*
X416716Y-172984D01*
X416749Y-173016D01*
X416775Y-173054D01*
X416838Y-173100D01*
X416894Y-173154D01*
X416936Y-173173D01*
X416972Y-173200D01*
X417046Y-173225D01*
X417117Y-173257D01*
X417163Y-173262D01*
X417206Y-173277D01*
X417284Y-173276D01*
X417361Y-173284D01*
X417406Y-173275D01*
X417452Y-173274D01*
X417584Y-173236D01*
X417602Y-173232D01*
X417606Y-173230D01*
X417613Y-173228D01*
X421906Y-171449D01*
X441694Y-171449D01*
X445895Y-173190D01*
X449110Y-176405D01*
X450851Y-180606D01*
X450851Y-185154D01*
X449110Y-189355D01*
X445895Y-192570D01*
X441694Y-194311D01*
X421906Y-194311D01*
G37*
%LPD*%
%LPC*%
G36*
X11190Y265457D02*
X11190Y265457D01*
X8399Y266613D01*
X6263Y268749D01*
X5107Y271540D01*
X5107Y272244D01*
X5093Y272334D01*
X5085Y272425D01*
X5073Y272455D01*
X5068Y272487D01*
X5025Y272568D01*
X4989Y272651D01*
X4963Y272684D01*
X4952Y272704D01*
X4929Y272726D01*
X4884Y272782D01*
X-50278Y327944D01*
X-50352Y327997D01*
X-50421Y328057D01*
X-50451Y328069D01*
X-50477Y328088D01*
X-50564Y328115D01*
X-50649Y328149D01*
X-50690Y328153D01*
X-50712Y328160D01*
X-50745Y328159D01*
X-50816Y328167D01*
X-53731Y328167D01*
X-59145Y330410D01*
X-63290Y334555D01*
X-65533Y339969D01*
X-65533Y345831D01*
X-63290Y351245D01*
X-59145Y355390D01*
X-53731Y357633D01*
X-47869Y357633D01*
X-42455Y355390D01*
X-38310Y351245D01*
X-36067Y345831D01*
X-36067Y339969D01*
X-38310Y334555D01*
X-38977Y333887D01*
X-38989Y333871D01*
X-39005Y333859D01*
X-39061Y333771D01*
X-39121Y333688D01*
X-39127Y333669D01*
X-39138Y333652D01*
X-39163Y333551D01*
X-39193Y333452D01*
X-39193Y333433D01*
X-39198Y333413D01*
X-39190Y333310D01*
X-39187Y333207D01*
X-39180Y333188D01*
X-39179Y333168D01*
X-39138Y333073D01*
X-39103Y332976D01*
X-39090Y332960D01*
X-39082Y332942D01*
X-38977Y332811D01*
X12968Y280866D01*
X13042Y280813D01*
X13111Y280753D01*
X13141Y280741D01*
X13167Y280722D01*
X13254Y280695D01*
X13339Y280661D01*
X13380Y280657D01*
X13402Y280650D01*
X13435Y280651D01*
X13506Y280643D01*
X14210Y280643D01*
X17001Y279487D01*
X19137Y277351D01*
X20293Y274560D01*
X20293Y271540D01*
X19137Y268749D01*
X17001Y266613D01*
X14210Y265457D01*
X11190Y265457D01*
G37*
%LPD*%
%LPC*%
G36*
X256806Y-181611D02*
X256806Y-181611D01*
X252605Y-179870D01*
X249390Y-176655D01*
X247649Y-172454D01*
X247649Y-167906D01*
X249390Y-163705D01*
X252605Y-160490D01*
X256806Y-158749D01*
X276594Y-158749D01*
X280795Y-160490D01*
X284010Y-163705D01*
X285751Y-167906D01*
X285751Y-172454D01*
X284010Y-176655D01*
X280795Y-179870D01*
X276594Y-181611D01*
X256806Y-181611D01*
G37*
%LPD*%
%LPC*%
G36*
X224869Y328167D02*
X224869Y328167D01*
X219455Y330410D01*
X215310Y334555D01*
X213067Y339969D01*
X213067Y345831D01*
X215310Y351245D01*
X219455Y355390D01*
X224869Y357633D01*
X230731Y357633D01*
X236145Y355390D01*
X240290Y351245D01*
X242533Y345831D01*
X242533Y339969D01*
X240290Y334555D01*
X236145Y330410D01*
X230731Y328167D01*
X224869Y328167D01*
G37*
%LPD*%
%LPC*%
G36*
X453469Y328167D02*
X453469Y328167D01*
X448055Y330410D01*
X443910Y334555D01*
X441667Y339969D01*
X441667Y345831D01*
X443910Y351245D01*
X448055Y355390D01*
X453469Y357633D01*
X459331Y357633D01*
X464745Y355390D01*
X468890Y351245D01*
X471133Y345831D01*
X471133Y339969D01*
X468890Y334555D01*
X464745Y330410D01*
X459331Y328167D01*
X453469Y328167D01*
G37*
%LPD*%
%LPC*%
G36*
X-3731Y328167D02*
X-3731Y328167D01*
X-9145Y330410D01*
X-13290Y334555D01*
X-15533Y339969D01*
X-15533Y345831D01*
X-13290Y351245D01*
X-9145Y355390D01*
X-3731Y357633D01*
X2131Y357633D01*
X7545Y355390D01*
X11690Y351245D01*
X13933Y345831D01*
X13933Y339969D01*
X11690Y334555D01*
X7545Y330410D01*
X2131Y328167D01*
X-3731Y328167D01*
G37*
%LPD*%
%LPC*%
G36*
X-111428Y-93341D02*
X-111428Y-93341D01*
X-113661Y-91108D01*
X-113661Y-71452D01*
X-111428Y-69219D01*
X-91772Y-69219D01*
X-89539Y-71452D01*
X-89539Y-91108D01*
X-91772Y-93341D01*
X-111428Y-93341D01*
G37*
%LPD*%
%LPC*%
G36*
X-111428Y-245741D02*
X-111428Y-245741D01*
X-113661Y-243508D01*
X-113661Y-223852D01*
X-111428Y-221619D01*
X-91772Y-221619D01*
X-89539Y-223852D01*
X-89539Y-243508D01*
X-91772Y-245741D01*
X-111428Y-245741D01*
G37*
%LPD*%
%LPC*%
G36*
X160398Y3889D02*
X160398Y3889D01*
X153749Y10538D01*
X153749Y19942D01*
X160398Y26591D01*
X169802Y26591D01*
X176451Y19942D01*
X176451Y10538D01*
X169802Y3889D01*
X160398Y3889D01*
G37*
%LPD*%
%LPC*%
G36*
X134998Y3889D02*
X134998Y3889D01*
X128349Y10538D01*
X128349Y19942D01*
X134998Y26591D01*
X144402Y26591D01*
X151051Y19942D01*
X151051Y10538D01*
X144402Y3889D01*
X134998Y3889D01*
G37*
%LPD*%
%LPC*%
G36*
X109598Y3889D02*
X109598Y3889D01*
X102949Y10538D01*
X102949Y19942D01*
X109598Y26591D01*
X119002Y26591D01*
X125651Y19942D01*
X125651Y10538D01*
X119002Y3889D01*
X109598Y3889D01*
G37*
%LPD*%
%LPC*%
G36*
X84198Y3889D02*
X84198Y3889D01*
X77549Y10538D01*
X77549Y19942D01*
X84198Y26591D01*
X93602Y26591D01*
X100251Y19942D01*
X100251Y10538D01*
X93602Y3889D01*
X84198Y3889D01*
G37*
%LPD*%
%LPC*%
G36*
X58798Y3889D02*
X58798Y3889D01*
X52149Y10538D01*
X52149Y19942D01*
X58798Y26591D01*
X68202Y26591D01*
X74851Y19942D01*
X74851Y10538D01*
X68202Y3889D01*
X58798Y3889D01*
G37*
%LPD*%
%LPC*%
G36*
X33398Y3889D02*
X33398Y3889D01*
X26749Y10538D01*
X26749Y19942D01*
X33398Y26591D01*
X42802Y26591D01*
X49451Y19942D01*
X49451Y10538D01*
X42802Y3889D01*
X33398Y3889D01*
G37*
%LPD*%
%LPC*%
G36*
X7998Y3889D02*
X7998Y3889D01*
X1349Y10538D01*
X1349Y19942D01*
X7998Y26591D01*
X17402Y26591D01*
X24051Y19942D01*
X24051Y10538D01*
X17402Y3889D01*
X7998Y3889D01*
G37*
%LPD*%
%LPC*%
G36*
X-17402Y3889D02*
X-17402Y3889D01*
X-24051Y10538D01*
X-24051Y19942D01*
X-17402Y26591D01*
X-7998Y26591D01*
X-1349Y19942D01*
X-1349Y10538D01*
X-7998Y3889D01*
X-17402Y3889D01*
G37*
%LPD*%
%LPC*%
G36*
X-42802Y3889D02*
X-42802Y3889D01*
X-49451Y10538D01*
X-49451Y19942D01*
X-42802Y26591D01*
X-33398Y26591D01*
X-26749Y19942D01*
X-26749Y10538D01*
X-33398Y3889D01*
X-42802Y3889D01*
G37*
%LPD*%
%LPC*%
G36*
X-68202Y3889D02*
X-68202Y3889D01*
X-74851Y10538D01*
X-74851Y19942D01*
X-68202Y26591D01*
X-58798Y26591D01*
X-52149Y19942D01*
X-52149Y10538D01*
X-58798Y3889D01*
X-68202Y3889D01*
G37*
%LPD*%
%LPC*%
G36*
X-93602Y3889D02*
X-93602Y3889D01*
X-100251Y10538D01*
X-100251Y19942D01*
X-93602Y26591D01*
X-84198Y26591D01*
X-77549Y19942D01*
X-77549Y10538D01*
X-84198Y3889D01*
X-93602Y3889D01*
G37*
%LPD*%
%LPC*%
G36*
X388998Y207089D02*
X388998Y207089D01*
X382349Y213738D01*
X382349Y223142D01*
X388998Y229791D01*
X398402Y229791D01*
X405051Y223142D01*
X405051Y213738D01*
X398402Y207089D01*
X388998Y207089D01*
G37*
%LPD*%
%LPC*%
G36*
X-119002Y3889D02*
X-119002Y3889D01*
X-125651Y10538D01*
X-125651Y19942D01*
X-119002Y26591D01*
X-109598Y26591D01*
X-102949Y19942D01*
X-102949Y10538D01*
X-109598Y3889D01*
X-119002Y3889D01*
G37*
%LPD*%
%LPC*%
G36*
X515998Y3889D02*
X515998Y3889D01*
X509349Y10538D01*
X509349Y19942D01*
X515998Y26591D01*
X525402Y26591D01*
X532051Y19942D01*
X532051Y10538D01*
X525402Y3889D01*
X515998Y3889D01*
G37*
%LPD*%
%LPC*%
G36*
X465198Y3889D02*
X465198Y3889D01*
X458549Y10538D01*
X458549Y19942D01*
X465198Y26591D01*
X474602Y26591D01*
X481251Y19942D01*
X481251Y10538D01*
X474602Y3889D01*
X465198Y3889D01*
G37*
%LPD*%
%LPC*%
G36*
X439798Y3889D02*
X439798Y3889D01*
X433149Y10538D01*
X433149Y19942D01*
X439798Y26591D01*
X449202Y26591D01*
X455851Y19942D01*
X455851Y10538D01*
X449202Y3889D01*
X439798Y3889D01*
G37*
%LPD*%
%LPC*%
G36*
X414398Y3889D02*
X414398Y3889D01*
X407749Y10538D01*
X407749Y19942D01*
X414398Y26591D01*
X423802Y26591D01*
X430451Y19942D01*
X430451Y10538D01*
X423802Y3889D01*
X414398Y3889D01*
G37*
%LPD*%
%LPC*%
G36*
X388998Y3889D02*
X388998Y3889D01*
X382349Y10538D01*
X382349Y19942D01*
X388998Y26591D01*
X398402Y26591D01*
X405051Y19942D01*
X405051Y10538D01*
X398402Y3889D01*
X388998Y3889D01*
G37*
%LPD*%
%LPC*%
G36*
X363598Y3889D02*
X363598Y3889D01*
X356949Y10538D01*
X356949Y19942D01*
X363598Y26591D01*
X373002Y26591D01*
X379651Y19942D01*
X379651Y10538D01*
X373002Y3889D01*
X363598Y3889D01*
G37*
%LPD*%
%LPC*%
G36*
X338198Y3889D02*
X338198Y3889D01*
X331549Y10538D01*
X331549Y19942D01*
X338198Y26591D01*
X347602Y26591D01*
X354251Y19942D01*
X354251Y10538D01*
X347602Y3889D01*
X338198Y3889D01*
G37*
%LPD*%
%LPC*%
G36*
X312798Y3889D02*
X312798Y3889D01*
X306149Y10538D01*
X306149Y19942D01*
X312798Y26591D01*
X322202Y26591D01*
X328851Y19942D01*
X328851Y10538D01*
X322202Y3889D01*
X312798Y3889D01*
G37*
%LPD*%
%LPC*%
G36*
X185798Y207089D02*
X185798Y207089D01*
X179149Y213738D01*
X179149Y223142D01*
X185798Y229791D01*
X195202Y229791D01*
X201851Y223142D01*
X201851Y213738D01*
X195202Y207089D01*
X185798Y207089D01*
G37*
%LPD*%
%LPC*%
G36*
X236598Y207089D02*
X236598Y207089D01*
X229949Y213738D01*
X229949Y223142D01*
X236598Y229791D01*
X246002Y229791D01*
X252651Y223142D01*
X252651Y213738D01*
X246002Y207089D01*
X236598Y207089D01*
G37*
%LPD*%
%LPC*%
G36*
X261998Y207089D02*
X261998Y207089D01*
X255349Y213738D01*
X255349Y223142D01*
X261998Y229791D01*
X271402Y229791D01*
X278051Y223142D01*
X278051Y213738D01*
X271402Y207089D01*
X261998Y207089D01*
G37*
%LPD*%
%LPC*%
G36*
X287398Y207089D02*
X287398Y207089D01*
X280749Y213738D01*
X280749Y223142D01*
X287398Y229791D01*
X296802Y229791D01*
X303451Y223142D01*
X303451Y213738D01*
X296802Y207089D01*
X287398Y207089D01*
G37*
%LPD*%
%LPC*%
G36*
X312798Y207089D02*
X312798Y207089D01*
X306149Y213738D01*
X306149Y223142D01*
X312798Y229791D01*
X322202Y229791D01*
X328851Y223142D01*
X328851Y213738D01*
X322202Y207089D01*
X312798Y207089D01*
G37*
%LPD*%
%LPC*%
G36*
X338198Y207089D02*
X338198Y207089D01*
X331549Y213738D01*
X331549Y223142D01*
X338198Y229791D01*
X347602Y229791D01*
X354251Y223142D01*
X354251Y213738D01*
X347602Y207089D01*
X338198Y207089D01*
G37*
%LPD*%
%LPC*%
G36*
X363598Y207089D02*
X363598Y207089D01*
X356949Y213738D01*
X356949Y223142D01*
X363598Y229791D01*
X373002Y229791D01*
X379651Y223142D01*
X379651Y213738D01*
X373002Y207089D01*
X363598Y207089D01*
G37*
%LPD*%
%LPC*%
G36*
X211198Y207089D02*
X211198Y207089D01*
X204549Y213738D01*
X204549Y223142D01*
X211198Y229791D01*
X220602Y229791D01*
X227251Y223142D01*
X227251Y213738D01*
X220602Y207089D01*
X211198Y207089D01*
G37*
%LPD*%
%LPC*%
G36*
X287398Y3889D02*
X287398Y3889D01*
X280749Y10538D01*
X280749Y19942D01*
X287398Y26591D01*
X296802Y26591D01*
X303451Y19942D01*
X303451Y10538D01*
X296802Y3889D01*
X287398Y3889D01*
G37*
%LPD*%
%LPC*%
G36*
X33398Y207089D02*
X33398Y207089D01*
X26749Y213738D01*
X26749Y223142D01*
X33398Y229791D01*
X42802Y229791D01*
X49451Y223142D01*
X49451Y213738D01*
X42802Y207089D01*
X33398Y207089D01*
G37*
%LPD*%
%LPC*%
G36*
X58798Y207089D02*
X58798Y207089D01*
X52149Y213738D01*
X52149Y223142D01*
X58798Y229791D01*
X68202Y229791D01*
X74851Y223142D01*
X74851Y213738D01*
X68202Y207089D01*
X58798Y207089D01*
G37*
%LPD*%
%LPC*%
G36*
X84198Y207089D02*
X84198Y207089D01*
X77549Y213738D01*
X77549Y223142D01*
X84198Y229791D01*
X93602Y229791D01*
X100251Y223142D01*
X100251Y213738D01*
X93602Y207089D01*
X84198Y207089D01*
G37*
%LPD*%
%LPC*%
G36*
X109598Y207089D02*
X109598Y207089D01*
X102949Y213738D01*
X102949Y223142D01*
X109598Y229791D01*
X119002Y229791D01*
X125651Y223142D01*
X125651Y213738D01*
X119002Y207089D01*
X109598Y207089D01*
G37*
%LPD*%
%LPC*%
G36*
X134998Y207089D02*
X134998Y207089D01*
X128349Y213738D01*
X128349Y223142D01*
X134998Y229791D01*
X144402Y229791D01*
X151051Y223142D01*
X151051Y213738D01*
X144402Y207089D01*
X134998Y207089D01*
G37*
%LPD*%
%LPC*%
G36*
X160398Y207089D02*
X160398Y207089D01*
X153749Y213738D01*
X153749Y223142D01*
X160398Y229791D01*
X169802Y229791D01*
X176451Y223142D01*
X176451Y213738D01*
X169802Y207089D01*
X160398Y207089D01*
G37*
%LPD*%
%LPC*%
G36*
X439798Y207089D02*
X439798Y207089D01*
X433149Y213738D01*
X433149Y223142D01*
X439798Y229791D01*
X449202Y229791D01*
X455851Y223142D01*
X455851Y213738D01*
X449202Y207089D01*
X439798Y207089D01*
G37*
%LPD*%
%LPC*%
G36*
X7998Y207089D02*
X7998Y207089D01*
X1349Y213738D01*
X1349Y223142D01*
X7998Y229791D01*
X17402Y229791D01*
X24051Y223142D01*
X24051Y213738D01*
X17402Y207089D01*
X7998Y207089D01*
G37*
%LPD*%
%LPC*%
G36*
X-17402Y207089D02*
X-17402Y207089D01*
X-24051Y213738D01*
X-24051Y223142D01*
X-17402Y229791D01*
X-7998Y229791D01*
X-1349Y223142D01*
X-1349Y213738D01*
X-7998Y207089D01*
X-17402Y207089D01*
G37*
%LPD*%
%LPC*%
G36*
X-42802Y207089D02*
X-42802Y207089D01*
X-49451Y213738D01*
X-49451Y223142D01*
X-42802Y229791D01*
X-33398Y229791D01*
X-26749Y223142D01*
X-26749Y213738D01*
X-33398Y207089D01*
X-42802Y207089D01*
G37*
%LPD*%
%LPC*%
G36*
X-68202Y207089D02*
X-68202Y207089D01*
X-74851Y213738D01*
X-74851Y223142D01*
X-68202Y229791D01*
X-58798Y229791D01*
X-52149Y223142D01*
X-52149Y213738D01*
X-58798Y207089D01*
X-68202Y207089D01*
G37*
%LPD*%
%LPC*%
G36*
X-119002Y207089D02*
X-119002Y207089D01*
X-125651Y213738D01*
X-125651Y223142D01*
X-119002Y229791D01*
X-109598Y229791D01*
X-102949Y223142D01*
X-102949Y213738D01*
X-109598Y207089D01*
X-119002Y207089D01*
G37*
%LPD*%
%LPC*%
G36*
X261998Y3889D02*
X261998Y3889D01*
X255349Y10538D01*
X255349Y19942D01*
X261998Y26591D01*
X271402Y26591D01*
X278051Y19942D01*
X278051Y10538D01*
X271402Y3889D01*
X261998Y3889D01*
G37*
%LPD*%
%LPC*%
G36*
X236598Y3889D02*
X236598Y3889D01*
X229949Y10538D01*
X229949Y19942D01*
X236598Y26591D01*
X246002Y26591D01*
X252651Y19942D01*
X252651Y10538D01*
X246002Y3889D01*
X236598Y3889D01*
G37*
%LPD*%
%LPC*%
G36*
X211198Y3889D02*
X211198Y3889D01*
X204549Y10538D01*
X204549Y19942D01*
X211198Y26591D01*
X220602Y26591D01*
X227251Y19942D01*
X227251Y10538D01*
X220602Y3889D01*
X211198Y3889D01*
G37*
%LPD*%
%LPC*%
G36*
X185798Y3889D02*
X185798Y3889D01*
X179149Y10538D01*
X179149Y19942D01*
X185798Y26591D01*
X195202Y26591D01*
X201851Y19942D01*
X201851Y10538D01*
X195202Y3889D01*
X185798Y3889D01*
G37*
%LPD*%
%LPC*%
G36*
X516386Y357885D02*
X516386Y357885D01*
X510285Y363986D01*
X510285Y372614D01*
X516386Y378715D01*
X525014Y378715D01*
X531115Y372614D01*
X531115Y363986D01*
X525014Y357885D01*
X516386Y357885D01*
G37*
%LPD*%
%LPC*%
G36*
X287786Y357885D02*
X287786Y357885D01*
X281685Y363986D01*
X281685Y372614D01*
X287786Y378715D01*
X296414Y378715D01*
X302515Y372614D01*
X302515Y363986D01*
X296414Y357885D01*
X287786Y357885D01*
G37*
%LPD*%
%LPC*%
G36*
X59186Y357885D02*
X59186Y357885D01*
X53085Y363986D01*
X53085Y372614D01*
X59186Y378715D01*
X67814Y378715D01*
X73915Y372614D01*
X73915Y363986D01*
X67814Y357885D01*
X59186Y357885D01*
G37*
%LPD*%
%LPC*%
G36*
X46486Y-124715D02*
X46486Y-124715D01*
X40385Y-118614D01*
X40385Y-109986D01*
X46486Y-103885D01*
X55114Y-103885D01*
X61215Y-109986D01*
X61215Y-118614D01*
X55114Y-124715D01*
X46486Y-124715D01*
G37*
%LPD*%
%LPC*%
G36*
X64266Y-66295D02*
X64266Y-66295D01*
X58165Y-60194D01*
X58165Y-51566D01*
X64266Y-45465D01*
X72894Y-45465D01*
X78995Y-51566D01*
X78995Y-60194D01*
X72894Y-66295D01*
X64266Y-66295D01*
G37*
%LPD*%
%LPC*%
G36*
X148086Y-213615D02*
X148086Y-213615D01*
X141985Y-207514D01*
X141985Y-198886D01*
X148086Y-192785D01*
X156714Y-192785D01*
X162815Y-198886D01*
X162815Y-207514D01*
X156714Y-213615D01*
X148086Y-213615D01*
G37*
%LPD*%
%LPC*%
G36*
X516386Y281685D02*
X516386Y281685D01*
X510285Y287786D01*
X510285Y296414D01*
X516386Y302515D01*
X525014Y302515D01*
X531115Y296414D01*
X531115Y287786D01*
X525014Y281685D01*
X516386Y281685D01*
G37*
%LPD*%
%LPC*%
G36*
X287786Y281685D02*
X287786Y281685D01*
X281685Y287786D01*
X281685Y296414D01*
X287786Y302515D01*
X296414Y302515D01*
X302515Y296414D01*
X302515Y287786D01*
X296414Y281685D01*
X287786Y281685D01*
G37*
%LPD*%
%LPC*%
G36*
X59186Y281685D02*
X59186Y281685D01*
X53085Y287786D01*
X53085Y296414D01*
X59186Y302515D01*
X67814Y302515D01*
X73915Y296414D01*
X73915Y287786D01*
X67814Y281685D01*
X59186Y281685D01*
G37*
%LPD*%
%LPC*%
G36*
X148086Y-150115D02*
X148086Y-150115D01*
X141985Y-144014D01*
X141985Y-135386D01*
X148086Y-129285D01*
X156714Y-129285D01*
X162815Y-135386D01*
X162815Y-144014D01*
X156714Y-150115D01*
X148086Y-150115D01*
G37*
%LPD*%
%LPC*%
G36*
X148086Y-175515D02*
X148086Y-175515D01*
X141985Y-169414D01*
X141985Y-160786D01*
X148086Y-154685D01*
X156714Y-154685D01*
X162815Y-160786D01*
X162815Y-169414D01*
X156714Y-175515D01*
X148086Y-175515D01*
G37*
%LPD*%
%LPC*%
G36*
X46486Y-277115D02*
X46486Y-277115D01*
X40385Y-271014D01*
X40385Y-262386D01*
X46486Y-256285D01*
X55114Y-256285D01*
X61215Y-262386D01*
X61215Y-271014D01*
X55114Y-277115D01*
X46486Y-277115D01*
G37*
%LPD*%
%LPC*%
G36*
X-11934Y-218695D02*
X-11934Y-218695D01*
X-18035Y-212594D01*
X-18035Y-203966D01*
X-11934Y-197865D01*
X-3306Y-197865D01*
X2795Y-203966D01*
X2795Y-212594D01*
X-3306Y-218695D01*
X-11934Y-218695D01*
G37*
%LPD*%
%LPC*%
G36*
X-11934Y-66295D02*
X-11934Y-66295D01*
X-18035Y-60194D01*
X-18035Y-51566D01*
X-11934Y-45465D01*
X-3306Y-45465D01*
X2795Y-51566D01*
X2795Y-60194D01*
X-3306Y-66295D01*
X-11934Y-66295D01*
G37*
%LPD*%
%LPC*%
G36*
X-11934Y-251715D02*
X-11934Y-251715D01*
X-18035Y-245614D01*
X-18035Y-236986D01*
X-11934Y-230885D01*
X-3306Y-230885D01*
X2795Y-236986D01*
X2795Y-245614D01*
X-3306Y-251715D01*
X-11934Y-251715D01*
G37*
%LPD*%
%LPC*%
G36*
X433323Y-142241D02*
X433323Y-142241D01*
X433323Y-133603D01*
X449466Y-133603D01*
X449331Y-134459D01*
X448836Y-135980D01*
X448110Y-137405D01*
X447170Y-138699D01*
X446039Y-139830D01*
X444745Y-140770D01*
X443320Y-141496D01*
X441799Y-141991D01*
X440220Y-142241D01*
X433323Y-142241D01*
G37*
%LPD*%
%LPC*%
G36*
X506983Y-142241D02*
X506983Y-142241D01*
X506983Y-133603D01*
X523126Y-133603D01*
X522991Y-134459D01*
X522496Y-135980D01*
X521770Y-137405D01*
X520830Y-138699D01*
X519699Y-139830D01*
X518405Y-140770D01*
X516980Y-141496D01*
X515459Y-141991D01*
X513880Y-142241D01*
X506983Y-142241D01*
G37*
%LPD*%
%LPC*%
G36*
X268223Y-154941D02*
X268223Y-154941D01*
X268223Y-146303D01*
X284366Y-146303D01*
X284231Y-147159D01*
X283736Y-148680D01*
X283010Y-150105D01*
X282070Y-151399D01*
X280939Y-152530D01*
X279645Y-153470D01*
X278220Y-154196D01*
X276699Y-154691D01*
X275120Y-154941D01*
X268223Y-154941D01*
G37*
%LPD*%
%LPC*%
G36*
X357123Y-142241D02*
X357123Y-142241D01*
X357123Y-133603D01*
X373266Y-133603D01*
X373131Y-134459D01*
X372636Y-135980D01*
X371910Y-137405D01*
X370970Y-138699D01*
X369839Y-139830D01*
X368545Y-140770D01*
X367120Y-141496D01*
X365599Y-141991D01*
X364020Y-142241D01*
X357123Y-142241D01*
G37*
%LPD*%
%LPC*%
G36*
X256701Y-154691D02*
X256701Y-154691D01*
X255180Y-154196D01*
X253755Y-153470D01*
X252461Y-152530D01*
X251330Y-151399D01*
X250390Y-150105D01*
X249664Y-148680D01*
X249169Y-147159D01*
X249034Y-146303D01*
X265177Y-146303D01*
X265177Y-154941D01*
X258280Y-154941D01*
X256701Y-154691D01*
G37*
%LPD*%
%LPC*%
G36*
X495461Y-141991D02*
X495461Y-141991D01*
X493940Y-141496D01*
X492515Y-140770D01*
X491221Y-139830D01*
X490090Y-138699D01*
X489150Y-137405D01*
X488424Y-135980D01*
X487929Y-134459D01*
X487794Y-133603D01*
X503937Y-133603D01*
X503937Y-142241D01*
X497040Y-142241D01*
X495461Y-141991D01*
G37*
%LPD*%
%LPC*%
G36*
X421801Y-141991D02*
X421801Y-141991D01*
X420280Y-141496D01*
X418855Y-140770D01*
X417561Y-139830D01*
X416430Y-138699D01*
X415490Y-137405D01*
X414764Y-135980D01*
X414269Y-134459D01*
X414134Y-133603D01*
X430277Y-133603D01*
X430277Y-142241D01*
X423380Y-142241D01*
X421801Y-141991D01*
G37*
%LPD*%
%LPC*%
G36*
X357123Y-130557D02*
X357123Y-130557D01*
X357123Y-121919D01*
X364020Y-121919D01*
X365599Y-122169D01*
X367120Y-122664D01*
X368545Y-123390D01*
X369839Y-124330D01*
X370970Y-125461D01*
X371910Y-126755D01*
X372636Y-128180D01*
X373131Y-129701D01*
X373266Y-130557D01*
X357123Y-130557D01*
G37*
%LPD*%
%LPC*%
G36*
X433323Y-130557D02*
X433323Y-130557D01*
X433323Y-121919D01*
X440220Y-121919D01*
X441799Y-122169D01*
X443320Y-122664D01*
X444745Y-123390D01*
X446039Y-124330D01*
X447170Y-125461D01*
X448110Y-126755D01*
X448836Y-128180D01*
X449331Y-129701D01*
X449466Y-130557D01*
X433323Y-130557D01*
G37*
%LPD*%
%LPC*%
G36*
X268223Y-143257D02*
X268223Y-143257D01*
X268223Y-134619D01*
X275120Y-134619D01*
X276699Y-134869D01*
X278220Y-135364D01*
X279645Y-136090D01*
X280939Y-137030D01*
X282070Y-138161D01*
X283010Y-139455D01*
X283736Y-140880D01*
X284231Y-142401D01*
X284366Y-143257D01*
X268223Y-143257D01*
G37*
%LPD*%
%LPC*%
G36*
X506983Y-130557D02*
X506983Y-130557D01*
X506983Y-121919D01*
X513880Y-121919D01*
X515459Y-122169D01*
X516980Y-122664D01*
X518405Y-123390D01*
X519699Y-124330D01*
X520830Y-125461D01*
X521770Y-126755D01*
X522496Y-128180D01*
X522991Y-129701D01*
X523126Y-130557D01*
X506983Y-130557D01*
G37*
%LPD*%
%LPC*%
G36*
X249034Y-143257D02*
X249034Y-143257D01*
X249169Y-142401D01*
X249664Y-140880D01*
X250390Y-139455D01*
X251330Y-138161D01*
X252461Y-137030D01*
X253755Y-136090D01*
X255180Y-135364D01*
X256701Y-134869D01*
X258280Y-134619D01*
X265177Y-134619D01*
X265177Y-143257D01*
X249034Y-143257D01*
G37*
%LPD*%
%LPC*%
G36*
X414134Y-130557D02*
X414134Y-130557D01*
X414269Y-129701D01*
X414764Y-128180D01*
X415490Y-126755D01*
X416430Y-125461D01*
X417561Y-124330D01*
X418855Y-123390D01*
X420280Y-122664D01*
X421801Y-122169D01*
X423380Y-121919D01*
X430277Y-121919D01*
X430277Y-130557D01*
X414134Y-130557D01*
G37*
%LPD*%
%LPC*%
G36*
X487794Y-130557D02*
X487794Y-130557D01*
X487929Y-129701D01*
X488424Y-128180D01*
X489150Y-126755D01*
X490090Y-125461D01*
X491221Y-124330D01*
X492515Y-123390D01*
X493940Y-122664D01*
X495461Y-122169D01*
X497040Y-121919D01*
X503937Y-121919D01*
X503937Y-130557D01*
X487794Y-130557D01*
G37*
%LPD*%
%LPC*%
G36*
X-114189Y344423D02*
X-114189Y344423D01*
X-113931Y346052D01*
X-113276Y348068D01*
X-112314Y349956D01*
X-111069Y351670D01*
X-109570Y353169D01*
X-107856Y354414D01*
X-105968Y355376D01*
X-103952Y356031D01*
X-102323Y356289D01*
X-102323Y344423D01*
X-114189Y344423D01*
G37*
%LPD*%
%LPC*%
G36*
X357923Y344423D02*
X357923Y344423D01*
X357923Y356289D01*
X359552Y356031D01*
X361568Y355376D01*
X363456Y354414D01*
X365170Y353169D01*
X366669Y351670D01*
X367914Y349956D01*
X368876Y348068D01*
X369531Y346052D01*
X369789Y344423D01*
X357923Y344423D01*
G37*
%LPD*%
%LPC*%
G36*
X129323Y344423D02*
X129323Y344423D01*
X129323Y356289D01*
X130952Y356031D01*
X132968Y355376D01*
X134856Y354414D01*
X136570Y353169D01*
X138069Y351670D01*
X139314Y349956D01*
X140276Y348068D01*
X140931Y346052D01*
X141189Y344423D01*
X129323Y344423D01*
G37*
%LPD*%
%LPC*%
G36*
X-99277Y344423D02*
X-99277Y344423D01*
X-99277Y356289D01*
X-97648Y356031D01*
X-95632Y355376D01*
X-93744Y354414D01*
X-92030Y353169D01*
X-90531Y351670D01*
X-89286Y349956D01*
X-88324Y348068D01*
X-87669Y346052D01*
X-87411Y344423D01*
X-99277Y344423D01*
G37*
%LPD*%
%LPC*%
G36*
X343011Y344423D02*
X343011Y344423D01*
X343269Y346052D01*
X343924Y348068D01*
X344886Y349956D01*
X346131Y351670D01*
X347630Y353169D01*
X349344Y354414D01*
X351232Y355376D01*
X353248Y356031D01*
X354877Y356289D01*
X354877Y344423D01*
X343011Y344423D01*
G37*
%LPD*%
%LPC*%
G36*
X114411Y344423D02*
X114411Y344423D01*
X114669Y346052D01*
X115324Y348068D01*
X116286Y349956D01*
X117531Y351670D01*
X119030Y353169D01*
X120744Y354414D01*
X122632Y355376D01*
X124648Y356031D01*
X126277Y356289D01*
X126277Y344423D01*
X114411Y344423D01*
G37*
%LPD*%
%LPC*%
G36*
X-103952Y329769D02*
X-103952Y329769D01*
X-105968Y330424D01*
X-107856Y331386D01*
X-109570Y332631D01*
X-111069Y334130D01*
X-112314Y335844D01*
X-113276Y337732D01*
X-113931Y339748D01*
X-114189Y341377D01*
X-102323Y341377D01*
X-102323Y329511D01*
X-103952Y329769D01*
G37*
%LPD*%
%LPC*%
G36*
X129323Y341377D02*
X129323Y341377D01*
X141189Y341377D01*
X140931Y339748D01*
X140276Y337732D01*
X139314Y335844D01*
X138069Y334130D01*
X136570Y332631D01*
X134856Y331386D01*
X132968Y330424D01*
X130952Y329769D01*
X129323Y329511D01*
X129323Y341377D01*
G37*
%LPD*%
%LPC*%
G36*
X357923Y341377D02*
X357923Y341377D01*
X369789Y341377D01*
X369531Y339748D01*
X368876Y337732D01*
X367914Y335844D01*
X366669Y334130D01*
X365170Y332631D01*
X363456Y331386D01*
X361568Y330424D01*
X359552Y329769D01*
X357923Y329511D01*
X357923Y341377D01*
G37*
%LPD*%
%LPC*%
G36*
X353248Y329769D02*
X353248Y329769D01*
X351232Y330424D01*
X349344Y331386D01*
X347630Y332631D01*
X346131Y334130D01*
X344886Y335844D01*
X343924Y337732D01*
X343269Y339748D01*
X343011Y341377D01*
X354877Y341377D01*
X354877Y329511D01*
X353248Y329769D01*
G37*
%LPD*%
%LPC*%
G36*
X124648Y329769D02*
X124648Y329769D01*
X122632Y330424D01*
X120744Y331386D01*
X119030Y332631D01*
X117531Y334130D01*
X116286Y335844D01*
X115324Y337732D01*
X114669Y339748D01*
X114411Y341377D01*
X126277Y341377D01*
X126277Y329511D01*
X124648Y329769D01*
G37*
%LPD*%
%LPC*%
G36*
X-99277Y341377D02*
X-99277Y341377D01*
X-87411Y341377D01*
X-87669Y339748D01*
X-88324Y337732D01*
X-89286Y335844D01*
X-90531Y334130D01*
X-92030Y332631D01*
X-93744Y331386D01*
X-95632Y330424D01*
X-97648Y329769D01*
X-99277Y329511D01*
X-99277Y341377D01*
G37*
%LPD*%
%LPC*%
G36*
X-104127Y-142605D02*
X-104127Y-142605D01*
X-105742Y-142080D01*
X-107255Y-141309D01*
X-108630Y-140311D01*
X-109831Y-139110D01*
X-110829Y-137735D01*
X-111600Y-136222D01*
X-112125Y-134607D01*
X-112284Y-133603D01*
X-103123Y-133603D01*
X-103123Y-142764D01*
X-104127Y-142605D01*
G37*
%LPD*%
%LPC*%
G36*
X-104127Y-295005D02*
X-104127Y-295005D01*
X-105742Y-294480D01*
X-107255Y-293709D01*
X-108630Y-292711D01*
X-109831Y-291510D01*
X-110829Y-290135D01*
X-111600Y-288622D01*
X-112125Y-287007D01*
X-112284Y-286003D01*
X-103123Y-286003D01*
X-103123Y-295164D01*
X-104127Y-295005D01*
G37*
%LPD*%
%LPC*%
G36*
X-112284Y-130557D02*
X-112284Y-130557D01*
X-112125Y-129553D01*
X-111600Y-127938D01*
X-110829Y-126425D01*
X-109831Y-125050D01*
X-108630Y-123849D01*
X-107255Y-122851D01*
X-105742Y-122080D01*
X-104127Y-121555D01*
X-103123Y-121396D01*
X-103123Y-130557D01*
X-112284Y-130557D01*
G37*
%LPD*%
%LPC*%
G36*
X-100077Y-133603D02*
X-100077Y-133603D01*
X-90916Y-133603D01*
X-91075Y-134607D01*
X-91600Y-136222D01*
X-92371Y-137735D01*
X-93369Y-139110D01*
X-94570Y-140311D01*
X-95945Y-141309D01*
X-97458Y-142080D01*
X-99073Y-142605D01*
X-100077Y-142764D01*
X-100077Y-133603D01*
G37*
%LPD*%
%LPC*%
G36*
X-112284Y-282957D02*
X-112284Y-282957D01*
X-112125Y-281953D01*
X-111600Y-280338D01*
X-110829Y-278825D01*
X-109831Y-277450D01*
X-108630Y-276249D01*
X-107255Y-275251D01*
X-105742Y-274480D01*
X-104127Y-273955D01*
X-103123Y-273796D01*
X-103123Y-282957D01*
X-112284Y-282957D01*
G37*
%LPD*%
%LPC*%
G36*
X-100077Y-286003D02*
X-100077Y-286003D01*
X-90916Y-286003D01*
X-91075Y-287007D01*
X-91600Y-288622D01*
X-92371Y-290135D01*
X-93369Y-291510D01*
X-94570Y-292711D01*
X-95945Y-293709D01*
X-97458Y-294480D01*
X-99073Y-295005D01*
X-100077Y-295164D01*
X-100077Y-286003D01*
G37*
%LPD*%
%LPC*%
G36*
X-100077Y-130557D02*
X-100077Y-130557D01*
X-100077Y-121396D01*
X-99073Y-121555D01*
X-97458Y-122080D01*
X-95945Y-122851D01*
X-94570Y-123849D01*
X-93369Y-125050D01*
X-92371Y-126425D01*
X-91600Y-127938D01*
X-91075Y-129553D01*
X-90916Y-130557D01*
X-100077Y-130557D01*
G37*
%LPD*%
%LPC*%
G36*
X-100077Y-282957D02*
X-100077Y-282957D01*
X-100077Y-273796D01*
X-99073Y-273955D01*
X-97458Y-274480D01*
X-95945Y-275251D01*
X-94570Y-276249D01*
X-93369Y-277450D01*
X-92371Y-278825D01*
X-91600Y-280338D01*
X-91075Y-281953D01*
X-90916Y-282957D01*
X-100077Y-282957D01*
G37*
%LPD*%
%LPC*%
G36*
X496823Y16763D02*
X496823Y16763D01*
X496823Y25321D01*
X499476Y25321D01*
X505381Y19416D01*
X505381Y16763D01*
X496823Y16763D01*
G37*
%LPD*%
%LPC*%
G36*
X522223Y219963D02*
X522223Y219963D01*
X522223Y228521D01*
X524876Y228521D01*
X530781Y222616D01*
X530781Y219963D01*
X522223Y219963D01*
G37*
%LPD*%
%LPC*%
G36*
X-98981Y219963D02*
X-98981Y219963D01*
X-98981Y222616D01*
X-93076Y228521D01*
X-90423Y228521D01*
X-90423Y219963D01*
X-98981Y219963D01*
G37*
%LPD*%
%LPC*%
G36*
X-87377Y219963D02*
X-87377Y219963D01*
X-87377Y228521D01*
X-84724Y228521D01*
X-78819Y222616D01*
X-78819Y219963D01*
X-87377Y219963D01*
G37*
%LPD*%
%LPC*%
G36*
X510619Y219963D02*
X510619Y219963D01*
X510619Y222616D01*
X516524Y228521D01*
X519177Y228521D01*
X519177Y219963D01*
X510619Y219963D01*
G37*
%LPD*%
%LPC*%
G36*
X485219Y16763D02*
X485219Y16763D01*
X485219Y19416D01*
X491124Y25321D01*
X493777Y25321D01*
X493777Y16763D01*
X485219Y16763D01*
G37*
%LPD*%
%LPC*%
G36*
X522223Y208359D02*
X522223Y208359D01*
X522223Y216917D01*
X530781Y216917D01*
X530781Y214264D01*
X524876Y208359D01*
X522223Y208359D01*
G37*
%LPD*%
%LPC*%
G36*
X-93076Y208359D02*
X-93076Y208359D01*
X-98981Y214264D01*
X-98981Y216917D01*
X-90423Y216917D01*
X-90423Y208359D01*
X-93076Y208359D01*
G37*
%LPD*%
%LPC*%
G36*
X496823Y5159D02*
X496823Y5159D01*
X496823Y13717D01*
X505381Y13717D01*
X505381Y11064D01*
X499476Y5159D01*
X496823Y5159D01*
G37*
%LPD*%
%LPC*%
G36*
X-87377Y208359D02*
X-87377Y208359D01*
X-87377Y216917D01*
X-78819Y216917D01*
X-78819Y214264D01*
X-84724Y208359D01*
X-87377Y208359D01*
G37*
%LPD*%
%LPC*%
G36*
X491124Y5159D02*
X491124Y5159D01*
X485219Y11064D01*
X485219Y13717D01*
X493777Y13717D01*
X493777Y5159D01*
X491124Y5159D01*
G37*
%LPD*%
%LPC*%
G36*
X516524Y208359D02*
X516524Y208359D01*
X510619Y214264D01*
X510619Y216917D01*
X519177Y216917D01*
X519177Y208359D01*
X516524Y208359D01*
G37*
%LPD*%
%LPC*%
G36*
X-11408Y-148845D02*
X-11408Y-148845D01*
X-16765Y-143488D01*
X-16765Y-141223D01*
X-9143Y-141223D01*
X-9143Y-148845D01*
X-11408Y-148845D01*
G37*
%LPD*%
%LPC*%
G36*
X-11408Y-301245D02*
X-11408Y-301245D01*
X-16765Y-295888D01*
X-16765Y-293623D01*
X-9143Y-293623D01*
X-9143Y-301245D01*
X-11408Y-301245D01*
G37*
%LPD*%
%LPC*%
G36*
X26923Y-275845D02*
X26923Y-275845D01*
X26923Y-268223D01*
X34545Y-268223D01*
X34545Y-270488D01*
X29188Y-275845D01*
X26923Y-275845D01*
G37*
%LPD*%
%LPC*%
G36*
X26923Y-112777D02*
X26923Y-112777D01*
X26923Y-105155D01*
X29188Y-105155D01*
X34545Y-110512D01*
X34545Y-112777D01*
X26923Y-112777D01*
G37*
%LPD*%
%LPC*%
G36*
X21612Y-275845D02*
X21612Y-275845D01*
X16255Y-270488D01*
X16255Y-268223D01*
X23877Y-268223D01*
X23877Y-275845D01*
X21612Y-275845D01*
G37*
%LPD*%
%LPC*%
G36*
X-16765Y-290577D02*
X-16765Y-290577D01*
X-16765Y-288312D01*
X-11408Y-282955D01*
X-9143Y-282955D01*
X-9143Y-290577D01*
X-16765Y-290577D01*
G37*
%LPD*%
%LPC*%
G36*
X26923Y-265177D02*
X26923Y-265177D01*
X26923Y-257555D01*
X29188Y-257555D01*
X34545Y-262912D01*
X34545Y-265177D01*
X26923Y-265177D01*
G37*
%LPD*%
%LPC*%
G36*
X-16765Y-138177D02*
X-16765Y-138177D01*
X-16765Y-135912D01*
X-11408Y-130555D01*
X-9143Y-130555D01*
X-9143Y-138177D01*
X-16765Y-138177D01*
G37*
%LPD*%
%LPC*%
G36*
X-6097Y-148845D02*
X-6097Y-148845D01*
X-6097Y-141223D01*
X1525Y-141223D01*
X1525Y-143488D01*
X-3832Y-148845D01*
X-6097Y-148845D01*
G37*
%LPD*%
%LPC*%
G36*
X-6097Y-301245D02*
X-6097Y-301245D01*
X-6097Y-293623D01*
X1525Y-293623D01*
X1525Y-295888D01*
X-3832Y-301245D01*
X-6097Y-301245D01*
G37*
%LPD*%
%LPC*%
G36*
X16255Y-265177D02*
X16255Y-265177D01*
X16255Y-262912D01*
X21612Y-257555D01*
X23877Y-257555D01*
X23877Y-265177D01*
X16255Y-265177D01*
G37*
%LPD*%
%LPC*%
G36*
X-6097Y-290577D02*
X-6097Y-290577D01*
X-6097Y-282955D01*
X-3832Y-282955D01*
X1525Y-288312D01*
X1525Y-290577D01*
X-6097Y-290577D01*
G37*
%LPD*%
%LPC*%
G36*
X520699Y218439D02*
X520699Y218439D01*
X520699Y218441D01*
X520701Y218441D01*
X520701Y218439D01*
X520699Y218439D01*
G37*
%LPD*%
%LPC*%
G36*
X505459Y-132081D02*
X505459Y-132081D01*
X505459Y-132079D01*
X505461Y-132079D01*
X505461Y-132081D01*
X505459Y-132081D01*
G37*
%LPD*%
%LPC*%
G36*
X266699Y-144781D02*
X266699Y-144781D01*
X266699Y-144779D01*
X266701Y-144779D01*
X266701Y-144781D01*
X266699Y-144781D01*
G37*
%LPD*%
%LPC*%
G36*
X25399Y-266701D02*
X25399Y-266701D01*
X25399Y-266699D01*
X25401Y-266699D01*
X25401Y-266701D01*
X25399Y-266701D01*
G37*
%LPD*%
%LPC*%
G36*
X-101601Y-132081D02*
X-101601Y-132081D01*
X-101601Y-132079D01*
X-101599Y-132079D01*
X-101599Y-132081D01*
X-101601Y-132081D01*
G37*
%LPD*%
%LPC*%
G36*
X127799Y342899D02*
X127799Y342899D01*
X127799Y342901D01*
X127801Y342901D01*
X127801Y342899D01*
X127799Y342899D01*
G37*
%LPD*%
%LPC*%
G36*
X431799Y-132081D02*
X431799Y-132081D01*
X431799Y-132079D01*
X431801Y-132079D01*
X431801Y-132081D01*
X431799Y-132081D01*
G37*
%LPD*%
%LPC*%
G36*
X356399Y342899D02*
X356399Y342899D01*
X356399Y342901D01*
X356401Y342901D01*
X356401Y342899D01*
X356399Y342899D01*
G37*
%LPD*%
%LPC*%
G36*
X-100801Y342899D02*
X-100801Y342899D01*
X-100801Y342901D01*
X-100799Y342901D01*
X-100799Y342899D01*
X-100801Y342899D01*
G37*
%LPD*%
%LPC*%
G36*
X-101601Y-284481D02*
X-101601Y-284481D01*
X-101601Y-284479D01*
X-101599Y-284479D01*
X-101599Y-284481D01*
X-101601Y-284481D01*
G37*
%LPD*%
%LPC*%
G36*
X495299Y15239D02*
X495299Y15239D01*
X495299Y15241D01*
X495301Y15241D01*
X495301Y15239D01*
X495299Y15239D01*
G37*
%LPD*%
%LPC*%
G36*
X-7621Y-139701D02*
X-7621Y-139701D01*
X-7621Y-139699D01*
X-7619Y-139699D01*
X-7619Y-139701D01*
X-7621Y-139701D01*
G37*
%LPD*%
%LPC*%
G36*
X-7621Y-292101D02*
X-7621Y-292101D01*
X-7621Y-292099D01*
X-7619Y-292099D01*
X-7619Y-292101D01*
X-7621Y-292101D01*
G37*
%LPD*%
%LPC*%
G36*
X-88901Y218439D02*
X-88901Y218439D01*
X-88901Y218441D01*
X-88899Y218441D01*
X-88899Y218439D01*
X-88901Y218439D01*
G37*
%LPD*%
D10*
X363220Y-182880D02*
X347980Y-182880D01*
X347980Y-157480D02*
X363220Y-157480D01*
X363220Y-132080D02*
X347980Y-132080D01*
X424180Y-182880D02*
X439420Y-182880D01*
X439420Y-157480D02*
X424180Y-157480D01*
X424180Y-132080D02*
X439420Y-132080D01*
X497840Y-182880D02*
X513080Y-182880D01*
X513080Y-157480D02*
X497840Y-157480D01*
X497840Y-132080D02*
X513080Y-132080D01*
D11*
X63500Y292100D03*
X63500Y368300D03*
X292100Y292100D03*
X292100Y368300D03*
X520700Y292100D03*
X520700Y368300D03*
D12*
X-101600Y-233680D03*
D13*
X-101600Y-284480D03*
D12*
X-101600Y-81280D03*
D13*
X-101600Y-132080D03*
D14*
X-7620Y-241300D03*
X-7620Y-292100D03*
X-7620Y-88900D03*
X-7620Y-139700D03*
D15*
X-800Y342900D03*
X-50800Y342900D03*
X-100800Y342900D03*
X227800Y342900D03*
X177800Y342900D03*
X127800Y342900D03*
X456400Y342900D03*
X406400Y342900D03*
X356400Y342900D03*
D10*
X274320Y-170180D02*
X259080Y-170180D01*
X259080Y-144780D02*
X274320Y-144780D01*
D16*
X-114300Y218440D03*
X-88900Y218440D03*
X-63500Y218440D03*
X-38100Y218440D03*
X-12700Y218440D03*
X12700Y218440D03*
X38100Y218440D03*
X63500Y218440D03*
X88900Y218440D03*
X114300Y218440D03*
X139700Y218440D03*
X165100Y218440D03*
X190500Y218440D03*
X215900Y218440D03*
X241300Y218440D03*
X266700Y218440D03*
X292100Y218440D03*
X317500Y218440D03*
X342900Y218440D03*
X368300Y218440D03*
X393700Y218440D03*
X419100Y218440D03*
X444500Y218440D03*
X469900Y218440D03*
X495300Y218440D03*
X520700Y218440D03*
X-114300Y15240D03*
X-88900Y15240D03*
X-63500Y15240D03*
X-38100Y15240D03*
X-12700Y15240D03*
X12700Y15240D03*
X38100Y15240D03*
X63500Y15240D03*
X88900Y15240D03*
X114300Y15240D03*
X139700Y15240D03*
X165100Y15240D03*
X190500Y15240D03*
X215900Y15240D03*
X241300Y15240D03*
X266700Y15240D03*
X292100Y15240D03*
X317500Y15240D03*
X342900Y15240D03*
X368300Y15240D03*
X393700Y15240D03*
X419100Y15240D03*
X444500Y15240D03*
X469900Y15240D03*
X495300Y15240D03*
X520700Y15240D03*
D17*
X68580Y-208280D03*
X-7620Y-208280D03*
D18*
X-7620Y-55880D03*
X68580Y-55880D03*
D17*
X50800Y-266700D03*
X25400Y-266700D03*
X50800Y-114300D03*
X25400Y-114300D03*
D11*
X152400Y-165100D03*
X152400Y-139700D03*
X152400Y-279400D03*
X152400Y-203200D03*
D19*
X17667Y-132969D02*
X6731Y-122033D01*
X6731Y-103251D02*
X-7620Y-88900D01*
X6731Y-103251D02*
X6731Y-122033D01*
X17667Y-132969D02*
X19671Y-132969D01*
X152400Y-265698D01*
X152400Y-279400D01*
D20*
X12700Y273050D02*
X-50800Y336550D01*
X-50800Y342900D01*
D21*
X12700Y273050D03*
D20*
X374650Y317500D02*
X469900Y222250D01*
X374650Y317500D02*
X209550Y317500D01*
X184150Y342900D01*
X177800Y342900D01*
X469900Y222250D02*
X469900Y218440D01*
X495300Y222250D02*
X412750Y304800D01*
X412750Y342900D01*
X406400Y342900D01*
X495300Y222250D02*
X495300Y218440D01*
X419100Y215900D02*
X546100Y88900D01*
X419100Y215900D02*
X419100Y218440D01*
X517525Y-170815D02*
X518604Y-170815D01*
X517525Y-170815D02*
X505460Y-182880D01*
X546100Y-143319D02*
X546100Y88900D01*
X546100Y-143319D02*
X518604Y-170815D01*
X431800Y-184150D02*
X419100Y-184150D01*
X431800Y-184150D02*
X431800Y-182880D01*
D21*
X381000Y-114300D03*
D20*
X410845Y-144145D01*
X410845Y-175895D01*
X419100Y-184150D01*
D21*
X355600Y-88900D03*
D20*
X334645Y-163004D02*
X342456Y-170815D01*
X355600Y-105601D02*
X355600Y-88900D01*
X343535Y-170815D02*
X342456Y-170815D01*
X343535Y-170815D02*
X355600Y-182880D01*
X334645Y-126556D02*
X355600Y-105601D01*
X334645Y-126556D02*
X334645Y-163004D01*
M02*
