M48
;GenerationSoftware,Autodesk,EAGLE,9.5.2*%
;CreationDate,2020-01-24T20:29:17Z*%
FMAT,2
ICI,OFF
METRIC,TZ,000.000
T6C0.350
T5C0.813
T4C1.000
T3C1.016
T2C1.100
T1C1.200
%
G90
M71
T1
X-80Y34290
X-5080Y34290
X-10080Y34290
X22780Y34290
X17780Y34290
X12780Y34290
X45640Y34290
X40640Y34290
X35640Y34290
T2
X-10160Y-23368
X-10160Y-28448
X-10160Y-8128
X-10160Y-13208
T3
X26670Y-17018
X26670Y-14478
X35560Y-18288
X35560Y-15748
X35560Y-13208
X43180Y-18288
X43180Y-15748
X43180Y-13208
X50546Y-18288
X50546Y-15748
X50546Y-13208
T4
X21590Y1524
X24130Y1524
X26670Y1524
X21590Y21844
X29210Y1524
X31750Y1524
X34290Y1524
X36830Y1524
X39370Y1524
X41910Y1524
X44450Y1524
X46990Y1524
X49530Y1524
X-11430Y21844
X-8890Y21844
X-6350Y21844
X-3810Y21844
X-1270Y21844
X1270Y21844
X3810Y21844
X6350Y21844
X8890Y21844
X11430Y21844
X13970Y21844
X16510Y21844
X19050Y21844
X52070Y1524
X24130Y21844
X26670Y21844
X29210Y21844
X31750Y21844
X34290Y21844
X36830Y21844
X39370Y21844
X41910Y21844
X44450Y21844
X46990Y21844
X49530Y21844
X52070Y21844
X-11430Y1524
X-8890Y1524
X-6350Y1524
X-3810Y1524
X-1270Y1524
X1270Y1524
X3810Y1524
X6350Y1524
X8890Y1524
X11430Y1524
X13970Y1524
X16510Y1524
X19050Y1524
T5
X6350Y29210
X6350Y36830
X29210Y29210
X29210Y36830
X52070Y29210
X52070Y36830
X-762Y-24130
X-762Y-29210
X-762Y-13970
X-762Y-8890
X6858Y-20828
X-762Y-20828
X-762Y-5588
X6858Y-5588
X5080Y-26670
X2540Y-26670
X5080Y-11430
X2540Y-11430
X15240Y-16510
X15240Y-13970
X15240Y-27940
X15240Y-20320
T6
X38100Y-11430
X35560Y-8890
X1270Y27305
M30