G04 EAGLE Gerber RS-274X export*
G75*
%MOMM*%
%FSLAX34Y34*%
%LPD*%
%INTop Copper*%
%IPPOS*%
%AMOC8*
5,1,8,0,0,1.08239X$1,22.5*%
G01*
%ADD10P,1.632244X8X112.500000*%
%ADD11P,1.649562X8X292.500000*%
%ADD12C,1.422400*%
%ADD13P,1.429621X8X22.500000*%
%ADD14C,1.524000*%
%ADD15P,1.732040X8X202.500000*%
%ADD16C,1.508000*%
%ADD17C,1.208000*%
%ADD18C,0.457200*%
%ADD19C,0.152400*%
%ADD20C,0.756400*%


D10*
X381000Y63500D03*
X381000Y88900D03*
X381000Y114300D03*
X381000Y139700D03*
X381000Y165100D03*
X381000Y190500D03*
X381000Y215900D03*
X381000Y241300D03*
X381000Y266700D03*
X381000Y292100D03*
X381000Y317500D03*
X381000Y342900D03*
X381000Y368300D03*
X381000Y393700D03*
X381000Y419100D03*
X381000Y444500D03*
X381000Y469900D03*
X381000Y495300D03*
X381000Y520700D03*
X381000Y546100D03*
X381000Y571500D03*
X381000Y596900D03*
X381000Y622300D03*
X381000Y647700D03*
X381000Y673100D03*
X381000Y698500D03*
D11*
X88900Y622300D03*
X114300Y622300D03*
X88900Y596900D03*
X114300Y596900D03*
X88900Y571500D03*
X114300Y571500D03*
X88900Y546100D03*
X114300Y546100D03*
X88900Y520700D03*
X114300Y520700D03*
X88900Y495300D03*
X114300Y495300D03*
X88900Y469900D03*
X114300Y469900D03*
X88900Y444500D03*
X114300Y444500D03*
X88900Y419100D03*
X114300Y419100D03*
X88900Y393700D03*
X114300Y393700D03*
X88900Y368300D03*
X114300Y368300D03*
X88900Y342900D03*
X114300Y342900D03*
X88900Y317500D03*
X114300Y317500D03*
X88900Y292100D03*
X114300Y292100D03*
X88900Y266700D03*
X114300Y266700D03*
X88900Y241300D03*
X114300Y241300D03*
X88900Y215900D03*
X114300Y215900D03*
X88900Y190500D03*
X114300Y190500D03*
X88900Y165100D03*
X114300Y165100D03*
X88900Y139700D03*
X114300Y139700D03*
D12*
X318008Y86360D02*
X332232Y86360D01*
X332232Y60960D02*
X318008Y60960D01*
D13*
X209550Y361950D03*
X285750Y361950D03*
D14*
X228346Y533400D02*
X228346Y548640D01*
X253746Y548640D02*
X253746Y533400D01*
X279146Y533400D02*
X279146Y548640D01*
D15*
X229616Y476504D03*
X204216Y476504D03*
X307340Y475488D03*
X281940Y475488D03*
D16*
X176860Y58950D02*
X176860Y43870D01*
X249860Y43870D02*
X249860Y58950D01*
D17*
X221360Y89910D03*
X213360Y101910D03*
X197360Y101910D03*
X229360Y101910D03*
X205360Y89910D03*
D13*
X209296Y319532D03*
X285496Y319532D03*
D18*
X307340Y211890D02*
X197360Y101910D01*
X307340Y211890D02*
X307340Y475488D01*
X307340Y512826D02*
X279146Y541020D01*
X307340Y512826D02*
X307340Y475488D01*
D19*
X279400Y317500D02*
X222250Y317500D01*
X158750Y254000D01*
X101600Y254000D01*
X88900Y241300D01*
X279400Y317500D02*
X285496Y319532D01*
X317500Y355600D02*
X381000Y419100D01*
X317500Y355600D02*
X317500Y336550D01*
D20*
X317500Y336550D03*
D19*
X209550Y361950D02*
X114300Y266700D01*
X82550Y431800D02*
X260350Y431800D01*
X82550Y431800D02*
X57150Y457200D01*
X57150Y565150D01*
X88900Y596900D01*
D20*
X260350Y431800D03*
D19*
X381000Y495300D02*
X406400Y520700D01*
X406400Y704850D01*
X387350Y723900D01*
X241300Y723900D01*
X114300Y596900D01*
X82550Y508000D02*
X241300Y508000D01*
X82550Y508000D02*
X76200Y514350D01*
X76200Y558800D01*
X88900Y571500D01*
D20*
X241300Y508000D03*
D19*
X196850Y571500D02*
X266700Y641350D01*
X196850Y571500D02*
X114300Y571500D01*
D20*
X266700Y641350D03*
D19*
X368300Y584200D02*
X381000Y571500D01*
X368300Y584200D02*
X368300Y654050D01*
X374650Y660400D01*
X387350Y660400D01*
X393700Y666750D01*
X393700Y704850D01*
X387350Y711200D01*
X323850Y711200D01*
X196850Y584200D01*
X107950Y584200D01*
X101600Y577850D01*
X101600Y558800D01*
X88900Y546100D01*
X209550Y565150D02*
X292100Y647700D01*
X209550Y565150D02*
X133350Y565150D01*
X114300Y546100D01*
D20*
X292100Y647700D03*
D19*
X381000Y622300D02*
X400050Y641350D01*
X400050Y704850D01*
X387350Y717550D01*
X323850Y717550D01*
X196850Y590550D01*
X133350Y590550D01*
D20*
X133350Y590550D03*
D19*
X228600Y558800D02*
X349250Y679450D01*
X228600Y558800D02*
X152400Y558800D01*
X114300Y520700D01*
D20*
X349250Y679450D03*
D19*
X273050Y393700D02*
X133350Y393700D01*
X120650Y381000D01*
X101600Y381000D01*
X88900Y368300D01*
D20*
X273050Y393700D03*
D19*
X273050Y381000D02*
X127000Y381000D01*
X114300Y368300D01*
D20*
X273050Y381000D03*
D19*
X381000Y342900D02*
X406400Y317500D01*
X406400Y63500D01*
X368300Y25400D01*
X171450Y25400D01*
X57150Y139700D01*
X57150Y311150D01*
X88900Y342900D01*
X114300Y342900D02*
X177800Y342900D01*
D20*
X177800Y342900D03*
D19*
X209550Y374650D02*
X247650Y336550D01*
X209550Y374650D02*
X139700Y374650D01*
X120650Y355600D01*
X107950Y355600D01*
X101600Y349250D01*
X101600Y330200D01*
X88900Y317500D01*
D20*
X247650Y336550D03*
D19*
X298450Y215900D02*
X133350Y215900D01*
X120650Y228600D01*
X82550Y228600D01*
X76200Y234950D01*
X76200Y298450D01*
X82550Y304800D01*
X101600Y304800D01*
X114300Y317500D01*
D20*
X298450Y215900D03*
D19*
X381000Y292100D02*
X400050Y273050D01*
X400050Y63500D01*
X368300Y31750D01*
X171450Y31750D01*
X63500Y139700D01*
X63500Y241300D01*
D20*
X63500Y241300D03*
D19*
X241300Y127000D02*
X381000Y266700D01*
X241300Y127000D02*
X241300Y107950D01*
D20*
X241300Y107950D03*
D19*
X228600Y222250D02*
X133350Y222250D01*
X114300Y241300D01*
D20*
X228600Y222250D03*
D19*
X260350Y209550D02*
X139700Y209550D01*
D20*
X260350Y209550D03*
X139700Y209550D03*
D19*
X266700Y114300D02*
X381000Y114300D01*
X266700Y114300D02*
X222250Y69850D01*
X203200Y69850D01*
X120650Y152400D01*
X107950Y152400D01*
X101600Y158750D01*
X101600Y203200D01*
X114300Y215900D01*
X120650Y203200D02*
X285750Y203200D01*
D20*
X285750Y203200D03*
X120650Y203200D03*
D19*
X311150Y165100D02*
X381000Y165100D01*
X311150Y165100D02*
X222250Y76200D01*
X203200Y76200D01*
X127000Y152400D01*
X127000Y177800D01*
X114300Y190500D01*
X381000Y190500D02*
X393700Y177800D01*
X393700Y107950D01*
X387350Y101600D01*
X266700Y101600D01*
X222250Y57150D01*
X203200Y57150D01*
X133350Y127000D01*
X107950Y127000D01*
X101600Y133350D01*
X101600Y152400D01*
X88900Y165100D01*
X203200Y50800D02*
X215900Y50800D01*
X203200Y50800D02*
X133350Y120650D01*
X88900Y120650D01*
X69850Y139700D01*
X69850Y273050D01*
D20*
X215900Y50800D03*
X69850Y273050D03*
D19*
X152400Y330200D02*
X165100Y330200D01*
X152400Y330200D02*
X114300Y292100D01*
D20*
X165100Y330200D03*
D18*
X209550Y323850D02*
X247650Y323850D01*
X285750Y361950D01*
X209550Y323850D02*
X209296Y319532D01*
X254000Y571500D02*
X381000Y698500D01*
X254000Y571500D02*
X254000Y546100D01*
X253746Y541020D01*
X254000Y508000D02*
X228600Y482600D01*
X254000Y508000D02*
X254000Y539750D01*
X228600Y482600D02*
X229616Y476504D01*
X254000Y539750D02*
X253746Y541020D01*
X285750Y425450D02*
X285750Y361950D01*
X285750Y425450D02*
X234950Y476250D01*
X229616Y476504D01*
M02*
