G04 EAGLE Gerber RS-274X export*
G75*
%MOMM*%
%FSLAX34Y34*%
%LPD*%
%IN*%
%IPPOS*%
%AMOC8*
5,1,8,0,0,1.08239X$1,22.5*%
G01*
%ADD10C,0.254000*%


D10*
X25400Y12700D02*
X431800Y12700D01*
X431800Y736600D01*
X25400Y736600D01*
X25400Y12700D01*
X244860Y46410D02*
X244879Y45974D01*
X244936Y45542D01*
X245030Y45116D01*
X245162Y44700D01*
X245328Y44297D01*
X245530Y43910D01*
X245764Y43542D01*
X246030Y43196D01*
X246324Y42874D01*
X246646Y42580D01*
X246992Y42314D01*
X247360Y42080D01*
X247747Y41878D01*
X248150Y41712D01*
X248566Y41580D01*
X248992Y41486D01*
X249424Y41429D01*
X249860Y41410D01*
X250296Y41429D01*
X250728Y41486D01*
X251154Y41580D01*
X251570Y41712D01*
X251973Y41878D01*
X252360Y42080D01*
X252728Y42314D01*
X253074Y42580D01*
X253396Y42874D01*
X253690Y43196D01*
X253956Y43542D01*
X254190Y43910D01*
X254392Y44297D01*
X254558Y44700D01*
X254690Y45116D01*
X254784Y45542D01*
X254841Y45974D01*
X254860Y46410D01*
X254860Y56410D01*
X254841Y56846D01*
X254784Y57278D01*
X254690Y57704D01*
X254558Y58120D01*
X254392Y58523D01*
X254190Y58910D01*
X253956Y59278D01*
X253690Y59624D01*
X253396Y59946D01*
X253074Y60240D01*
X252728Y60506D01*
X252360Y60740D01*
X251973Y60942D01*
X251570Y61108D01*
X251154Y61240D01*
X250728Y61334D01*
X250296Y61391D01*
X249860Y61410D01*
X249508Y61482D01*
X249150Y61523D01*
X248791Y61533D01*
X248432Y61511D01*
X248076Y61458D01*
X247726Y61374D01*
X247385Y61260D01*
X247055Y61117D01*
X246739Y60946D01*
X246439Y60747D01*
X246157Y60523D01*
X245896Y60276D01*
X245657Y60007D01*
X245443Y59718D01*
X245255Y59411D01*
X245094Y59089D01*
X244962Y58755D01*
X244860Y58410D01*
X244860Y46410D01*
X171860Y46410D02*
X171879Y45974D01*
X171936Y45542D01*
X172030Y45116D01*
X172162Y44700D01*
X172328Y44297D01*
X172530Y43910D01*
X172764Y43542D01*
X173030Y43196D01*
X173324Y42874D01*
X173646Y42580D01*
X173992Y42314D01*
X174360Y42080D01*
X174747Y41878D01*
X175150Y41712D01*
X175566Y41580D01*
X175992Y41486D01*
X176424Y41429D01*
X176860Y41410D01*
X177296Y41429D01*
X177728Y41486D01*
X178154Y41580D01*
X178570Y41712D01*
X178973Y41878D01*
X179360Y42080D01*
X179728Y42314D01*
X180074Y42580D01*
X180396Y42874D01*
X180690Y43196D01*
X180956Y43542D01*
X181190Y43910D01*
X181392Y44297D01*
X181558Y44700D01*
X181690Y45116D01*
X181784Y45542D01*
X181841Y45974D01*
X181860Y46410D01*
X181860Y56410D01*
X181841Y56846D01*
X181784Y57278D01*
X181690Y57704D01*
X181558Y58120D01*
X181392Y58523D01*
X181190Y58910D01*
X180956Y59278D01*
X180690Y59624D01*
X180396Y59946D01*
X180074Y60240D01*
X179728Y60506D01*
X179360Y60740D01*
X178973Y60942D01*
X178570Y61108D01*
X178154Y61240D01*
X177728Y61334D01*
X177296Y61391D01*
X176860Y61410D01*
X176424Y61391D01*
X175992Y61334D01*
X175566Y61240D01*
X175150Y61108D01*
X174747Y60942D01*
X174360Y60740D01*
X173992Y60506D01*
X173646Y60240D01*
X173324Y59946D01*
X173030Y59624D01*
X172764Y59278D01*
X172530Y58910D01*
X172328Y58523D01*
X172162Y58120D01*
X172030Y57704D01*
X171936Y57278D01*
X171879Y56846D01*
X171860Y56410D01*
X171860Y46410D01*
X77500Y698000D02*
X77429Y697003D01*
X77286Y696013D01*
X77074Y695036D01*
X76792Y694076D01*
X76443Y693139D01*
X76027Y692229D01*
X75548Y691352D01*
X75007Y690510D01*
X74408Y689710D01*
X73753Y688954D01*
X73046Y688247D01*
X72290Y687592D01*
X71490Y686993D01*
X70648Y686452D01*
X69771Y685973D01*
X68861Y685557D01*
X67924Y685208D01*
X66965Y684926D01*
X65987Y684714D01*
X64998Y684571D01*
X64000Y684500D01*
X63000Y684500D01*
X62003Y684571D01*
X61013Y684714D01*
X60036Y684926D01*
X59076Y685208D01*
X58139Y685557D01*
X57229Y685973D01*
X56352Y686452D01*
X55510Y686993D01*
X54710Y687592D01*
X53954Y688247D01*
X53247Y688954D01*
X52592Y689710D01*
X51993Y690510D01*
X51452Y691352D01*
X50973Y692229D01*
X50557Y693139D01*
X50208Y694076D01*
X49926Y695036D01*
X49714Y696013D01*
X49571Y697003D01*
X49500Y698000D01*
X49500Y699000D01*
X49571Y699998D01*
X49714Y700987D01*
X49926Y701965D01*
X50208Y702924D01*
X50557Y703861D01*
X50973Y704771D01*
X51452Y705648D01*
X51993Y706490D01*
X52592Y707290D01*
X53247Y708046D01*
X53954Y708753D01*
X54710Y709408D01*
X55510Y710007D01*
X56352Y710548D01*
X57229Y711027D01*
X58139Y711443D01*
X59076Y711792D01*
X60036Y712074D01*
X61013Y712286D01*
X62003Y712429D01*
X63000Y712500D01*
X64000Y712500D01*
X64998Y712429D01*
X65987Y712286D01*
X66965Y712074D01*
X67924Y711792D01*
X68861Y711443D01*
X69771Y711027D01*
X70648Y710548D01*
X71490Y710007D01*
X72290Y709408D01*
X73046Y708753D01*
X73753Y708046D01*
X74408Y707290D01*
X75007Y706490D01*
X75548Y705648D01*
X76027Y704771D01*
X76443Y703861D01*
X76792Y702924D01*
X77074Y701965D01*
X77286Y700987D01*
X77429Y699998D01*
X77500Y699000D01*
X77500Y698000D01*
X77500Y50300D02*
X77429Y49303D01*
X77286Y48313D01*
X77074Y47336D01*
X76792Y46376D01*
X76443Y45439D01*
X76027Y44529D01*
X75548Y43652D01*
X75007Y42810D01*
X74408Y42010D01*
X73753Y41254D01*
X73046Y40547D01*
X72290Y39892D01*
X71490Y39293D01*
X70648Y38752D01*
X69771Y38273D01*
X68861Y37857D01*
X67924Y37508D01*
X66965Y37226D01*
X65987Y37014D01*
X64998Y36871D01*
X64000Y36800D01*
X63000Y36800D01*
X62003Y36871D01*
X61013Y37014D01*
X60036Y37226D01*
X59076Y37508D01*
X58139Y37857D01*
X57229Y38273D01*
X56352Y38752D01*
X55510Y39293D01*
X54710Y39892D01*
X53954Y40547D01*
X53247Y41254D01*
X52592Y42010D01*
X51993Y42810D01*
X51452Y43652D01*
X50973Y44529D01*
X50557Y45439D01*
X50208Y46376D01*
X49926Y47336D01*
X49714Y48313D01*
X49571Y49303D01*
X49500Y50300D01*
X49500Y51300D01*
X49571Y52298D01*
X49714Y53287D01*
X49926Y54265D01*
X50208Y55224D01*
X50557Y56161D01*
X50973Y57071D01*
X51452Y57948D01*
X51993Y58790D01*
X52592Y59590D01*
X53247Y60346D01*
X53954Y61053D01*
X54710Y61708D01*
X55510Y62307D01*
X56352Y62848D01*
X57229Y63327D01*
X58139Y63743D01*
X59076Y64092D01*
X60036Y64374D01*
X61013Y64586D01*
X62003Y64729D01*
X63000Y64800D01*
X64000Y64800D01*
X64998Y64729D01*
X65987Y64586D01*
X66965Y64374D01*
X67924Y64092D01*
X68861Y63743D01*
X69771Y63327D01*
X70648Y62848D01*
X71490Y62307D01*
X72290Y61708D01*
X73046Y61053D01*
X73753Y60346D01*
X74408Y59590D01*
X75007Y58790D01*
X75548Y57948D01*
X76027Y57071D01*
X76443Y56161D01*
X76792Y55224D01*
X77074Y54265D01*
X77286Y53287D01*
X77429Y52298D01*
X77500Y51300D01*
X77500Y50300D01*
X270256Y690340D02*
X270185Y689261D01*
X270044Y688189D01*
X269833Y687129D01*
X269554Y686085D01*
X269206Y685061D01*
X268792Y684063D01*
X268314Y683093D01*
X267774Y682157D01*
X267173Y681258D01*
X266515Y680401D01*
X265803Y679588D01*
X265038Y678824D01*
X264225Y678111D01*
X263368Y677453D01*
X262469Y676852D01*
X261533Y676312D01*
X260563Y675834D01*
X259565Y675420D01*
X258541Y675072D01*
X257497Y674793D01*
X256437Y674582D01*
X255365Y674441D01*
X254286Y674370D01*
X253206Y674370D01*
X252127Y674441D01*
X251055Y674582D01*
X249995Y674793D01*
X248951Y675072D01*
X247927Y675420D01*
X246929Y675834D01*
X245959Y676312D01*
X245023Y676852D01*
X244124Y677453D01*
X243267Y678111D01*
X242454Y678824D01*
X241690Y679588D01*
X240977Y680401D01*
X240319Y681258D01*
X239718Y682157D01*
X239178Y683093D01*
X238700Y684063D01*
X238286Y685061D01*
X237938Y686085D01*
X237659Y687129D01*
X237448Y688189D01*
X237307Y689261D01*
X237236Y690340D01*
X237236Y691420D01*
X237307Y692499D01*
X237448Y693571D01*
X237659Y694631D01*
X237938Y695675D01*
X238286Y696699D01*
X238700Y697697D01*
X239178Y698667D01*
X239718Y699603D01*
X240319Y700502D01*
X240977Y701359D01*
X241690Y702172D01*
X242454Y702937D01*
X243267Y703649D01*
X244124Y704307D01*
X245023Y704908D01*
X245959Y705448D01*
X246929Y705926D01*
X247927Y706340D01*
X248951Y706688D01*
X249995Y706967D01*
X251055Y707178D01*
X252127Y707319D01*
X253206Y707390D01*
X254286Y707390D01*
X255365Y707319D01*
X256437Y707178D01*
X257497Y706967D01*
X258541Y706688D01*
X259565Y706340D01*
X260563Y705926D01*
X261533Y705448D01*
X262469Y704908D01*
X263368Y704307D01*
X264225Y703649D01*
X265038Y702937D01*
X265803Y702172D01*
X266515Y701359D01*
X267173Y700502D01*
X267774Y699603D01*
X268314Y698667D01*
X268792Y697697D01*
X269206Y696699D01*
X269554Y695675D01*
X269833Y694631D01*
X270044Y693571D01*
X270185Y692499D01*
X270256Y691420D01*
X270256Y690340D01*
M02*
