G04 EAGLE Gerber RS-274X export*
G75*
%MOMM*%
%FSLAX34Y34*%
%LPD*%
%INSoldermask Top*%
%IPPOS*%
%AMOC8*
5,1,8,0,0,1.08239X$1,22.5*%
G01*
%ADD10P,1.852186X8X112.500000*%
%ADD11P,1.869504X8X292.500000*%
%ADD12C,1.625600*%
%ADD13P,1.649562X8X22.500000*%
%ADD14C,3.003200*%
%ADD15C,1.727200*%
%ADD16C,3.505200*%
%ADD17P,1.951982X8X202.500000*%
%ADD18C,1.711200*%
%ADD19C,1.411200*%
%ADD20C,0.959600*%


D10*
X381000Y63500D03*
X381000Y88900D03*
X381000Y114300D03*
X381000Y139700D03*
X381000Y165100D03*
X381000Y190500D03*
X381000Y215900D03*
X381000Y241300D03*
X381000Y266700D03*
X381000Y292100D03*
X381000Y317500D03*
X381000Y342900D03*
X381000Y368300D03*
X381000Y393700D03*
X381000Y419100D03*
X381000Y444500D03*
X381000Y469900D03*
X381000Y495300D03*
X381000Y520700D03*
X381000Y546100D03*
X381000Y571500D03*
X381000Y596900D03*
X381000Y622300D03*
X381000Y647700D03*
X381000Y673100D03*
X381000Y698500D03*
D11*
X88900Y622300D03*
X114300Y622300D03*
X88900Y596900D03*
X114300Y596900D03*
X88900Y571500D03*
X114300Y571500D03*
X88900Y546100D03*
X114300Y546100D03*
X88900Y520700D03*
X114300Y520700D03*
X88900Y495300D03*
X114300Y495300D03*
X88900Y469900D03*
X114300Y469900D03*
X88900Y444500D03*
X114300Y444500D03*
X88900Y419100D03*
X114300Y419100D03*
X88900Y393700D03*
X114300Y393700D03*
X88900Y368300D03*
X114300Y368300D03*
X88900Y342900D03*
X114300Y342900D03*
X88900Y317500D03*
X114300Y317500D03*
X88900Y292100D03*
X114300Y292100D03*
X88900Y266700D03*
X114300Y266700D03*
X88900Y241300D03*
X114300Y241300D03*
X88900Y215900D03*
X114300Y215900D03*
X88900Y190500D03*
X114300Y190500D03*
X88900Y165100D03*
X114300Y165100D03*
X88900Y139700D03*
X114300Y139700D03*
D12*
X318008Y86360D02*
X332232Y86360D01*
X332232Y60960D02*
X318008Y60960D01*
D13*
X209550Y361950D03*
X285750Y361950D03*
D14*
X63500Y698500D03*
X63500Y50800D03*
D15*
X228346Y533400D02*
X228346Y548640D01*
X253746Y548640D02*
X253746Y533400D01*
X279146Y533400D02*
X279146Y548640D01*
D16*
X253746Y690880D03*
D17*
X229616Y476504D03*
X204216Y476504D03*
X307340Y475488D03*
X281940Y475488D03*
D18*
X176860Y58950D02*
X176860Y43870D01*
X249860Y43870D02*
X249860Y58950D01*
D19*
X221360Y89910D03*
X213360Y101910D03*
X197360Y101910D03*
X229360Y101910D03*
X205360Y89910D03*
D13*
X209296Y319532D03*
X285496Y319532D03*
D20*
X317500Y336550D03*
X260350Y431800D03*
X241300Y508000D03*
X266700Y641350D03*
X292100Y647700D03*
X133350Y590550D03*
X349250Y679450D03*
X273050Y393700D03*
X273050Y381000D03*
X177800Y342900D03*
X247650Y336550D03*
X298450Y215900D03*
X63500Y241300D03*
X241300Y107950D03*
X228600Y222250D03*
X260350Y209550D03*
X139700Y209550D03*
X285750Y203200D03*
X120650Y203200D03*
X215900Y50800D03*
X69850Y273050D03*
X165100Y330200D03*
M02*
