M48
;GenerationSoftware,Autodesk,EAGLE,9.6.2*%
;CreationDate,2020-07-08T16:10:59Z*%
FMAT,2
ICI,OFF
METRIC,TZ,000.000
T7C0.350
T6C0.800
T5C0.813
T4C1.000
T3C1.016
T2C1.450
T1C1.600
%
G90
M71
T1
X58928Y11938
X31496Y43942
T2
X2540Y76200
X59690Y2540
T3
X38100Y29083
X43180Y29083
X40640Y29083
X50800Y29083
X45720Y29083
X48260Y29083
X53340Y29083
X55880Y29083
X58420Y29083
X38100Y44577
X40640Y44577
X43180Y44577
X45720Y44577
X48260Y44577
X50800Y44577
X53340Y44577
X55880Y44577
X58420Y44577
T4
X3810Y29210
X3810Y26670
X3810Y24130
X3810Y21590
X3810Y19050
X3810Y16510
X3810Y11430
X3810Y8890
X3810Y6350
X3810Y3810
X24130Y67310
X24130Y64770
X24130Y62230
X24130Y59690
X24130Y57150
X24130Y54610
X24130Y52070
X24130Y49530
X24130Y46990
X24130Y44450
X24130Y41910
X24130Y36830
X24130Y34290
X24130Y31750
X24130Y29210
X24130Y26670
X24130Y24130
X24130Y21590
X24130Y19050
X24130Y16510
X24130Y13970
X24130Y11430
X24130Y8890
X24130Y39370
X24130Y3810
X33830Y59960
X33830Y61960
X51580Y61960
X51580Y59960
X43705Y51085
X41705Y51085
X3810Y46990
X3810Y67310
X24130Y6350
X3810Y64770
X3810Y62230
X3810Y59690
X3810Y57150
X3810Y54610
X3810Y52070
X3810Y49530
X3810Y13970
X3810Y44450
X3810Y41910
X3810Y39370
X3810Y36830
X3810Y34290
X3810Y31750
X10160Y73406
X12700Y73406
X15240Y73406
X17780Y73406
T5
X54610Y16510
X44450Y21590
X54610Y21590
X59690Y49276
X49530Y49276
X49784Y70612
X59944Y70612
X52578Y54864
X57658Y54864
X32512Y70358
X32512Y65278
X29972Y4826
X35052Y4826
X30480Y52070
X30480Y62230
X44450Y16510
X33020Y76200
X38100Y76200
X24130Y76200
X29210Y76200
T6
X58166Y57658
X58166Y60198
X58166Y62738
T7
X38100Y14605
X44450Y38862
X50800Y38862
M30