G04 EAGLE Gerber RS-274X export*
G75*
%MOMM*%
%FSLAX34Y34*%
%LPD*%
%IN*%
%IPPOS*%
%AMOC8*
5,1,8,0,0,1.08239X$1,22.5*%
G01*
%ADD10C,0.254000*%


D10*
X-7620Y93980D02*
X698300Y93980D01*
X698300Y977140D01*
X-7620Y977140D01*
X-7620Y93980D01*
X28710Y120980D02*
X28729Y120544D01*
X28786Y120112D01*
X28880Y119686D01*
X29012Y119270D01*
X29178Y118867D01*
X29380Y118480D01*
X29614Y118112D01*
X29880Y117766D01*
X30174Y117444D01*
X30496Y117150D01*
X30842Y116884D01*
X31210Y116650D01*
X31597Y116448D01*
X32000Y116282D01*
X32416Y116150D01*
X32842Y116056D01*
X33274Y115999D01*
X33710Y115980D01*
X43710Y115980D01*
X44146Y115999D01*
X44578Y116056D01*
X45004Y116150D01*
X45420Y116282D01*
X45823Y116448D01*
X46210Y116650D01*
X46578Y116884D01*
X46924Y117150D01*
X47246Y117444D01*
X47540Y117766D01*
X47806Y118112D01*
X48040Y118480D01*
X48242Y118867D01*
X48408Y119270D01*
X48540Y119686D01*
X48634Y120112D01*
X48691Y120544D01*
X48710Y120980D01*
X48782Y121332D01*
X48823Y121690D01*
X48833Y122049D01*
X48811Y122408D01*
X48758Y122764D01*
X48674Y123114D01*
X48560Y123455D01*
X48417Y123785D01*
X48246Y124101D01*
X48047Y124401D01*
X47823Y124683D01*
X47576Y124944D01*
X47307Y125183D01*
X47018Y125397D01*
X46711Y125585D01*
X46389Y125746D01*
X46055Y125878D01*
X45710Y125980D01*
X33710Y125980D01*
X33274Y125961D01*
X32842Y125904D01*
X32416Y125810D01*
X32000Y125678D01*
X31597Y125512D01*
X31210Y125310D01*
X30842Y125076D01*
X30496Y124810D01*
X30174Y124516D01*
X29880Y124194D01*
X29614Y123848D01*
X29380Y123480D01*
X29178Y123093D01*
X29012Y122690D01*
X28880Y122274D01*
X28786Y121848D01*
X28729Y121416D01*
X28710Y120980D01*
X28710Y193980D02*
X28729Y193544D01*
X28786Y193112D01*
X28880Y192686D01*
X29012Y192270D01*
X29178Y191867D01*
X29380Y191480D01*
X29614Y191112D01*
X29880Y190766D01*
X30174Y190444D01*
X30496Y190150D01*
X30842Y189884D01*
X31210Y189650D01*
X31597Y189448D01*
X32000Y189282D01*
X32416Y189150D01*
X32842Y189056D01*
X33274Y188999D01*
X33710Y188980D01*
X43710Y188980D01*
X44146Y188999D01*
X44578Y189056D01*
X45004Y189150D01*
X45420Y189282D01*
X45823Y189448D01*
X46210Y189650D01*
X46578Y189884D01*
X46924Y190150D01*
X47246Y190444D01*
X47540Y190766D01*
X47806Y191112D01*
X48040Y191480D01*
X48242Y191867D01*
X48408Y192270D01*
X48540Y192686D01*
X48634Y193112D01*
X48691Y193544D01*
X48710Y193980D01*
X48691Y194416D01*
X48634Y194848D01*
X48540Y195274D01*
X48408Y195690D01*
X48242Y196093D01*
X48040Y196480D01*
X47806Y196848D01*
X47540Y197194D01*
X47246Y197516D01*
X46924Y197810D01*
X46578Y198076D01*
X46210Y198310D01*
X45823Y198512D01*
X45420Y198678D01*
X45004Y198810D01*
X44578Y198904D01*
X44146Y198961D01*
X43710Y198980D01*
X33710Y198980D01*
X33274Y198961D01*
X32842Y198904D01*
X32416Y198810D01*
X32000Y198678D01*
X31597Y198512D01*
X31210Y198310D01*
X30842Y198076D01*
X30496Y197810D01*
X30174Y197516D01*
X29880Y197194D01*
X29614Y196848D01*
X29380Y196480D01*
X29178Y196093D01*
X29012Y195690D01*
X28880Y195274D01*
X28786Y194848D01*
X28729Y194416D01*
X28710Y193980D01*
X201930Y145320D02*
X202001Y146399D01*
X202142Y147471D01*
X202353Y148531D01*
X202632Y149575D01*
X202980Y150599D01*
X203394Y151597D01*
X203872Y152567D01*
X204412Y153503D01*
X205013Y154402D01*
X205671Y155259D01*
X206384Y156072D01*
X207148Y156837D01*
X207961Y157549D01*
X208818Y158207D01*
X209717Y158808D01*
X210653Y159348D01*
X211623Y159826D01*
X212621Y160240D01*
X213645Y160588D01*
X214689Y160867D01*
X215749Y161078D01*
X216821Y161219D01*
X217900Y161290D01*
X218980Y161290D01*
X220059Y161219D01*
X221131Y161078D01*
X222191Y160867D01*
X223235Y160588D01*
X224259Y160240D01*
X225257Y159826D01*
X226227Y159348D01*
X227163Y158808D01*
X228062Y158207D01*
X228919Y157549D01*
X229732Y156837D01*
X230497Y156072D01*
X231209Y155259D01*
X231867Y154402D01*
X232468Y153503D01*
X233008Y152567D01*
X233486Y151597D01*
X233900Y150599D01*
X234248Y149575D01*
X234527Y148531D01*
X234738Y147471D01*
X234879Y146399D01*
X234950Y145320D01*
X234950Y144240D01*
X234879Y143161D01*
X234738Y142089D01*
X234527Y141029D01*
X234248Y139985D01*
X233900Y138961D01*
X233486Y137963D01*
X233008Y136993D01*
X232468Y136057D01*
X231867Y135158D01*
X231209Y134301D01*
X230497Y133488D01*
X229732Y132724D01*
X228919Y132011D01*
X228062Y131353D01*
X227163Y130752D01*
X226227Y130212D01*
X225257Y129734D01*
X224259Y129320D01*
X223235Y128972D01*
X222191Y128693D01*
X221131Y128482D01*
X220059Y128341D01*
X218980Y128270D01*
X217900Y128270D01*
X216821Y128341D01*
X215749Y128482D01*
X214689Y128693D01*
X213645Y128972D01*
X212621Y129320D01*
X211623Y129734D01*
X210653Y130212D01*
X209717Y130752D01*
X208818Y131353D01*
X207961Y132011D01*
X207148Y132724D01*
X206384Y133488D01*
X205671Y134301D01*
X205013Y135158D01*
X204412Y136057D01*
X203872Y136993D01*
X203394Y137963D01*
X202980Y138961D01*
X202632Y139985D01*
X202353Y141029D01*
X202142Y142089D01*
X202001Y143161D01*
X201930Y144240D01*
X201930Y145320D01*
M02*
