G04 EAGLE Gerber RS-274X export*
G75*
%MOMM*%
%FSLAX34Y34*%
%LPD*%
%INSoldermask Bottom*%
%IPPOS*%
%AMOC8*
5,1,8,0,0,1.08239X$1,22.5*%
G01*
%ADD10P,1.649562X8X22.500000*%
%ADD11C,1.727200*%
%ADD12C,3.505200*%
%ADD13P,1.852186X8X112.500000*%
%ADD14C,1.711200*%
%ADD15C,1.411200*%
%ADD16P,1.852186X8X202.500000*%
%ADD17P,1.852186X8X22.500000*%
%ADD18C,1.524000*%
%ADD19P,1.649562X8X292.500000*%
%ADD20P,2.034460X8X112.500000*%
%ADD21P,2.556822X8X22.500000*%
%ADD22P,2.034460X8X202.500000*%
%ADD23P,1.649562X8X112.500000*%
%ADD24C,1.879600*%
%ADD25C,2.603200*%
%ADD26C,0.959600*%


D10*
X215900Y355600D03*
X266700Y355600D03*
X127000Y355600D03*
X177800Y355600D03*
D11*
X243840Y302260D02*
X243840Y287020D01*
X218440Y287020D02*
X218440Y302260D01*
X193040Y302260D02*
X193040Y287020D01*
D12*
X218440Y144780D03*
D13*
X266700Y431800D03*
X266700Y457200D03*
X266700Y482600D03*
X266700Y508000D03*
X266700Y533400D03*
X266700Y558800D03*
X266700Y584200D03*
X266700Y609600D03*
X266700Y635000D03*
X266700Y660400D03*
X266700Y685800D03*
X266700Y711200D03*
X266700Y736600D03*
X266700Y762000D03*
X266700Y787400D03*
X266700Y812800D03*
X266700Y838200D03*
X266700Y863600D03*
X266700Y889000D03*
X266700Y914400D03*
X266700Y939800D03*
X38100Y431800D03*
X38100Y457200D03*
X38100Y482600D03*
X38100Y508000D03*
X38100Y533400D03*
X38100Y558800D03*
X38100Y584200D03*
X38100Y609600D03*
X38100Y635000D03*
X38100Y660400D03*
X38100Y685800D03*
X38100Y711200D03*
X38100Y736600D03*
X38100Y762000D03*
X38100Y787400D03*
X38100Y812800D03*
X38100Y838200D03*
X38100Y863600D03*
X38100Y889000D03*
X38100Y914400D03*
X38100Y939800D03*
D14*
X31170Y193980D02*
X46250Y193980D01*
X46250Y120980D02*
X31170Y120980D01*
D15*
X77210Y149480D03*
X89210Y157480D03*
X89210Y173480D03*
X89210Y141480D03*
X77210Y165480D03*
D16*
X660400Y749300D03*
X635000Y749300D03*
X609600Y749300D03*
X584200Y749300D03*
X558800Y749300D03*
X533400Y749300D03*
X508000Y749300D03*
X482600Y749300D03*
X457200Y749300D03*
X431800Y749300D03*
X406400Y749300D03*
X381000Y749300D03*
D17*
X381000Y596900D03*
X406400Y596900D03*
X431800Y596900D03*
X457200Y596900D03*
X482600Y596900D03*
X508000Y596900D03*
X533400Y596900D03*
X558800Y596900D03*
X584200Y596900D03*
X609600Y596900D03*
X635000Y596900D03*
X660400Y596900D03*
D16*
X609600Y254000D03*
X584200Y254000D03*
X558800Y254000D03*
X533400Y254000D03*
X508000Y254000D03*
X482600Y254000D03*
D18*
X375920Y260096D02*
X375920Y273304D01*
X375920Y197104D02*
X375920Y183896D01*
D19*
X312420Y248920D03*
X312420Y198120D03*
D20*
X373380Y304800D03*
X373380Y381000D03*
D10*
X482600Y304800D03*
X533400Y304800D03*
X482600Y368300D03*
X533400Y368300D03*
X609600Y520700D03*
X660400Y520700D03*
D21*
X642112Y906780D03*
X577088Y906780D03*
D10*
X317500Y520700D03*
X368300Y520700D03*
D20*
X548640Y480060D03*
X548640Y556260D03*
X505460Y480060D03*
X505460Y556260D03*
X462280Y480060D03*
X462280Y556260D03*
X419100Y480060D03*
X419100Y556260D03*
D22*
X652780Y828040D03*
X576580Y828040D03*
D23*
X116840Y248920D03*
X116840Y299720D03*
D22*
X637540Y335280D03*
X546100Y335280D03*
X637540Y406400D03*
X546100Y406400D03*
D20*
X421640Y855980D03*
X421640Y957580D03*
D24*
X500380Y822960D03*
X474980Y822960D03*
X525780Y822960D03*
D25*
X320040Y584200D03*
X320040Y622300D03*
X584200Y294640D03*
X566420Y441960D03*
X309880Y878840D03*
X347980Y927100D03*
X670560Y365760D03*
X317500Y762000D03*
D26*
X360680Y901700D03*
X190500Y673100D03*
M02*
