M48
;GenerationSoftware,Autodesk,EAGLE,9.4.2*%
;CreationDate,2019-07-17T15:36:51Z*%
FMAT,2
ICI,OFF
METRIC,TZ,000.000
T9C0.350
T8C0.700
T7C0.813
T6C0.900
T5C0.914
T4C1.000
T3C1.016
T2C1.600
T1C3.302
%
G90
M71
T1
X21844Y14478
T2
X32004Y62230
X32004Y58420
X30988Y87884
X31750Y76200
X67056Y36576
X34798Y92710
X56642Y44196
X58420Y29464
T3
X24384Y29464
X21844Y29464
X19304Y29464
T4
X26670Y58420
X53340Y25400
X50800Y25400
X48260Y25400
X26670Y43180
X26670Y45720
X26670Y48260
X26670Y50800
X26670Y53340
X26670Y55880
X3810Y45720
X26670Y60960
X26670Y63500
X26670Y66040
X26670Y68580
X26670Y71120
X26670Y73660
X26670Y76200
X26670Y78740
X26670Y81280
X26670Y83820
X26670Y86360
X26670Y88900
X26670Y91440
X26670Y93980
X3810Y43180
X3810Y48260
X3810Y50800
X3810Y53340
X3810Y55880
X3810Y58420
X3810Y60960
X3810Y63500
X3810Y66040
X3810Y68580
X3810Y71120
X3810Y73660
X3810Y76200
X3810Y78740
X3810Y81280
X3810Y83820
X3810Y86360
X3810Y88900
X3810Y91440
X3810Y93980
X3871Y19398
X3871Y12098
X66040Y74930
X63500Y74930
X60960Y74930
X58420Y74930
X55880Y74930
X53340Y74930
X50800Y74930
X48260Y74930
X45720Y74930
X43180Y74930
X40640Y74930
X38100Y74930
X38100Y59690
X40640Y59690
X43180Y59690
X45720Y59690
X48260Y59690
X50800Y59690
X53340Y59690
X55880Y59690
X58420Y59690
X60960Y59690
X63500Y59690
X66040Y59690
X60960Y25400
X58420Y25400
X55880Y25400
T5
X64211Y90678
X57709Y90678
T6
X50038Y82296
X47498Y82296
X52578Y82296
T7
X26670Y35560
X37592Y26670
X37592Y19050
X31242Y24892
X53340Y36830
X37338Y30480
X37338Y38100
X48260Y30480
X53340Y30480
X48260Y36830
X60960Y52070
X66040Y52070
X31750Y52070
X36830Y52070
X54864Y48006
X54864Y55626
X50546Y48006
X50546Y55626
X46228Y48006
X46228Y55626
X41910Y48006
X41910Y55626
X65278Y82804
X57658Y82804
X11684Y24892
X11684Y29972
X54610Y33528
X63754Y40640
X54610Y40640
X42164Y85598
X42164Y95758
X31242Y19812
X21590Y35560
X63754Y33528
X17780Y35560
X12700Y35560
T8
X7721Y16548
X8921Y15748
X7721Y14948
X8921Y14148
X8921Y17348
T9
X36068Y90170
X19050Y67310
M30