G04 EAGLE Gerber RS-274X export*
G75*
%MOMM*%
%FSLAX34Y34*%
%LPD*%
%INTop Copper*%
%IPPOS*%
%AMOC8*
5,1,8,0,0,1.08239X$1,22.5*%
G01*
%ADD10P,1.632244X8X112.500000*%
%ADD11R,0.670000X0.950000*%
%ADD12R,1.350000X2.000000*%
%ADD13R,2.540000X1.270000*%
%ADD14P,1.632244X8X22.500000*%
%ADD15C,1.524000*%
%ADD16P,1.429621X8X292.500000*%
%ADD17C,1.508000*%
%ADD18C,1.208000*%
%ADD19R,1.473200X0.355600*%
%ADD20P,1.429621X8X202.500000*%
%ADD21P,1.429621X8X22.500000*%
%ADD22P,3.436588X8X22.500000*%
%ADD23C,2.400000*%
%ADD24C,0.457200*%
%ADD25C,0.756400*%
%ADD26C,0.203200*%

G36*
X539885Y777359D02*
X539885Y777359D01*
X539884Y777360D01*
X539885Y777360D01*
X539885Y782360D01*
X539881Y782365D01*
X539880Y782364D01*
X539880Y782365D01*
X522880Y782365D01*
X522875Y782361D01*
X522876Y782360D01*
X522875Y782360D01*
X522875Y777360D01*
X522879Y777355D01*
X522880Y777356D01*
X522880Y777355D01*
X539880Y777355D01*
X539885Y777359D01*
G37*
G36*
X482035Y905859D02*
X482035Y905859D01*
X482034Y905860D01*
X482035Y905860D01*
X482035Y912860D01*
X482031Y912865D01*
X482030Y912864D01*
X482030Y912865D01*
X478730Y912865D01*
X478725Y912861D01*
X478726Y912860D01*
X478725Y912860D01*
X478725Y905860D01*
X478729Y905855D01*
X478730Y905856D01*
X478730Y905855D01*
X482030Y905855D01*
X482035Y905859D01*
G37*
G36*
X456635Y905859D02*
X456635Y905859D01*
X456634Y905860D01*
X456635Y905860D01*
X456635Y912860D01*
X456631Y912865D01*
X456630Y912864D01*
X456630Y912865D01*
X453330Y912865D01*
X453325Y912861D01*
X453326Y912860D01*
X453325Y912860D01*
X453325Y905860D01*
X453329Y905855D01*
X453330Y905856D01*
X453330Y905855D01*
X456630Y905855D01*
X456635Y905859D01*
G37*
G36*
X431235Y905859D02*
X431235Y905859D01*
X431234Y905860D01*
X431235Y905860D01*
X431235Y912860D01*
X431231Y912865D01*
X431230Y912864D01*
X431230Y912865D01*
X427930Y912865D01*
X427925Y912861D01*
X427926Y912860D01*
X427925Y912860D01*
X427925Y905860D01*
X427929Y905855D01*
X427930Y905856D01*
X427930Y905855D01*
X431230Y905855D01*
X431235Y905859D01*
G37*
G36*
X507435Y905859D02*
X507435Y905859D01*
X507434Y905860D01*
X507435Y905860D01*
X507435Y912860D01*
X507431Y912865D01*
X507430Y912864D01*
X507430Y912865D01*
X504130Y912865D01*
X504125Y912861D01*
X504126Y912860D01*
X504125Y912860D01*
X504125Y905860D01*
X504129Y905855D01*
X504130Y905856D01*
X504130Y905855D01*
X507430Y905855D01*
X507435Y905859D01*
G37*
G36*
X445835Y905859D02*
X445835Y905859D01*
X445834Y905860D01*
X445835Y905860D01*
X445835Y912860D01*
X445831Y912865D01*
X445830Y912864D01*
X445830Y912865D01*
X442530Y912865D01*
X442525Y912861D01*
X442526Y912860D01*
X442525Y912860D01*
X442525Y905860D01*
X442529Y905855D01*
X442530Y905856D01*
X442530Y905855D01*
X445830Y905855D01*
X445835Y905859D01*
G37*
G36*
X471235Y905859D02*
X471235Y905859D01*
X471234Y905860D01*
X471235Y905860D01*
X471235Y912860D01*
X471231Y912865D01*
X471230Y912864D01*
X471230Y912865D01*
X467930Y912865D01*
X467925Y912861D01*
X467926Y912860D01*
X467925Y912860D01*
X467925Y905860D01*
X467929Y905855D01*
X467930Y905856D01*
X467930Y905855D01*
X471230Y905855D01*
X471235Y905859D01*
G37*
G36*
X496635Y905859D02*
X496635Y905859D01*
X496634Y905860D01*
X496635Y905860D01*
X496635Y912860D01*
X496631Y912865D01*
X496630Y912864D01*
X496630Y912865D01*
X493330Y912865D01*
X493325Y912861D01*
X493326Y912860D01*
X493325Y912860D01*
X493325Y905860D01*
X493329Y905855D01*
X493330Y905856D01*
X493330Y905855D01*
X496630Y905855D01*
X496635Y905859D01*
G37*
G36*
X522035Y905859D02*
X522035Y905859D01*
X522034Y905860D01*
X522035Y905860D01*
X522035Y912860D01*
X522031Y912865D01*
X522030Y912864D01*
X522030Y912865D01*
X518730Y912865D01*
X518725Y912861D01*
X518726Y912860D01*
X518725Y912860D01*
X518725Y905860D01*
X518729Y905855D01*
X518730Y905856D01*
X518730Y905855D01*
X522030Y905855D01*
X522035Y905859D01*
G37*
D10*
X142240Y220980D03*
X167640Y220980D03*
X142240Y246380D03*
X167640Y246380D03*
X142240Y271780D03*
X167640Y271780D03*
X142240Y297180D03*
X167640Y297180D03*
X142240Y322580D03*
X167640Y322580D03*
X142240Y347980D03*
X167640Y347980D03*
X142240Y373380D03*
X167640Y373380D03*
X142240Y398780D03*
X167640Y398780D03*
X142240Y424180D03*
X167640Y424180D03*
X142240Y449580D03*
X167640Y449580D03*
X142240Y474980D03*
X167640Y474980D03*
X142240Y500380D03*
X167640Y500380D03*
X142240Y525780D03*
X167640Y525780D03*
X142240Y551180D03*
X167640Y551180D03*
X142240Y576580D03*
X167640Y576580D03*
X142240Y601980D03*
X167640Y601980D03*
X142240Y627380D03*
X167640Y627380D03*
X142240Y652780D03*
X167640Y652780D03*
X142240Y678180D03*
X167640Y678180D03*
X142240Y703580D03*
X167640Y703580D03*
X142240Y728980D03*
X167640Y728980D03*
X838200Y220980D03*
X863600Y220980D03*
X838200Y246380D03*
X863600Y246380D03*
X838200Y271780D03*
X863600Y271780D03*
X838200Y297180D03*
X863600Y297180D03*
X838200Y322580D03*
X863600Y322580D03*
X838200Y347980D03*
X863600Y347980D03*
X838200Y373380D03*
X863600Y373380D03*
X838200Y398780D03*
X863600Y398780D03*
X838200Y424180D03*
X863600Y424180D03*
X838200Y449580D03*
X863600Y449580D03*
X838200Y474980D03*
X863600Y474980D03*
X838200Y500380D03*
X863600Y500380D03*
X838200Y525780D03*
X863600Y525780D03*
X838200Y551180D03*
X863600Y551180D03*
X838200Y576580D03*
X863600Y576580D03*
X838200Y601980D03*
X863600Y601980D03*
X838200Y627380D03*
X863600Y627380D03*
X838200Y652780D03*
X863600Y652780D03*
X838200Y678180D03*
X863600Y678180D03*
X838200Y703580D03*
X863600Y703580D03*
X838200Y728980D03*
X863600Y728980D03*
D11*
X424680Y782110D03*
X435680Y782110D03*
X446680Y782110D03*
X457680Y782110D03*
X468680Y782110D03*
X479680Y782110D03*
X490680Y782110D03*
X501680Y782110D03*
X512680Y782110D03*
D12*
X536730Y821160D03*
X413230Y821160D03*
X536730Y897360D03*
X413230Y897360D03*
D13*
X551180Y820420D03*
X551180Y896620D03*
X398780Y820420D03*
X398780Y896620D03*
D14*
X190500Y63500D03*
X215900Y63500D03*
X241300Y63500D03*
X266700Y63500D03*
X292100Y63500D03*
X317500Y63500D03*
X342900Y63500D03*
X368300Y63500D03*
X393700Y63500D03*
X419100Y63500D03*
X444500Y63500D03*
X469900Y63500D03*
X495300Y63500D03*
X520700Y63500D03*
X546100Y63500D03*
X571500Y63500D03*
X596900Y63500D03*
X622300Y63500D03*
X647700Y63500D03*
X673100Y63500D03*
X698500Y63500D03*
X723900Y63500D03*
X749300Y63500D03*
X774700Y63500D03*
X800100Y63500D03*
X825500Y63500D03*
X190500Y-139700D03*
X215900Y-139700D03*
X241300Y-139700D03*
X266700Y-139700D03*
X292100Y-139700D03*
X317500Y-139700D03*
X342900Y-139700D03*
X368300Y-139700D03*
X393700Y-139700D03*
X419100Y-139700D03*
X444500Y-139700D03*
X469900Y-139700D03*
X495300Y-139700D03*
X520700Y-139700D03*
X546100Y-139700D03*
X571500Y-139700D03*
X596900Y-139700D03*
X622300Y-139700D03*
X647700Y-139700D03*
X673100Y-139700D03*
X698500Y-139700D03*
X723900Y-139700D03*
X749300Y-139700D03*
X774700Y-139700D03*
X800100Y-139700D03*
X825500Y-139700D03*
D15*
X292100Y505460D02*
X292100Y520700D01*
X317500Y520700D02*
X317500Y505460D01*
X342900Y505460D02*
X342900Y520700D01*
D16*
X317500Y474980D03*
X317500Y424180D03*
X411480Y543560D03*
X411480Y492760D03*
D17*
X755320Y878310D02*
X755320Y893390D01*
X682320Y893390D02*
X682320Y878310D01*
D18*
X710820Y847350D03*
X718820Y835350D03*
X734820Y835350D03*
X702820Y835350D03*
X726820Y847350D03*
D19*
X397510Y215900D03*
X397510Y222504D03*
X397510Y229108D03*
X397510Y235458D03*
X397510Y242062D03*
X397510Y248412D03*
X397510Y255016D03*
X397510Y261620D03*
X339090Y261620D03*
X339090Y255016D03*
X339090Y248412D03*
X339090Y242062D03*
X339090Y235458D03*
X339090Y229108D03*
X339090Y222504D03*
X339090Y215900D03*
D16*
X728980Y782320D03*
X728980Y731520D03*
D20*
X292100Y238760D03*
X241300Y238760D03*
X292100Y149860D03*
X241300Y149860D03*
X317500Y302260D03*
X241300Y302260D03*
D21*
X444500Y137160D03*
X520700Y137160D03*
X444500Y187960D03*
X520700Y187960D03*
X444500Y238760D03*
X520700Y238760D03*
X444500Y289560D03*
X520700Y289560D03*
D22*
X165100Y896620D03*
X246380Y896620D03*
D16*
X208280Y855980D03*
X208280Y805180D03*
D19*
X651510Y480060D03*
X651510Y486664D03*
X651510Y493268D03*
X651510Y499618D03*
X651510Y506222D03*
X651510Y512572D03*
X651510Y519176D03*
X651510Y525780D03*
X593090Y525780D03*
X593090Y519176D03*
X593090Y512572D03*
X593090Y506222D03*
X593090Y499618D03*
X593090Y493268D03*
X593090Y486664D03*
X593090Y480060D03*
D20*
X553720Y528320D03*
X502920Y528320D03*
X553720Y477520D03*
X502920Y477520D03*
D21*
X571500Y617220D03*
X647700Y617220D03*
D16*
X642620Y264160D03*
X642620Y187960D03*
D21*
X693420Y439420D03*
X769620Y439420D03*
X693420Y490220D03*
X769620Y490220D03*
X693420Y541020D03*
X769620Y541020D03*
X693420Y591820D03*
X769620Y591820D03*
X571500Y566420D03*
X647700Y566420D03*
D23*
X63500Y251460D03*
X911860Y-40640D03*
D20*
X317500Y350520D03*
X241300Y350520D03*
D23*
X73660Y-38100D03*
X962660Y734060D03*
D24*
X398780Y858520D02*
X398780Y896620D01*
X398780Y858520D02*
X398780Y820420D01*
X551180Y855980D02*
X551180Y896620D01*
X551180Y855980D02*
X551180Y820420D01*
D25*
X398780Y858520D03*
X551180Y855980D03*
D24*
X435680Y782110D02*
X435680Y768280D01*
X436880Y767080D01*
D25*
X436880Y767080D03*
D24*
X339090Y255016D02*
X297688Y255016D01*
X250952Y301752D01*
X241808Y301752D01*
X241300Y302260D01*
X593090Y519176D02*
X602488Y519176D01*
X605536Y522224D01*
X605536Y532384D01*
X571500Y566420D01*
X412496Y820928D02*
X400304Y820928D01*
X412496Y820928D02*
X413230Y821160D01*
X400304Y820928D02*
X398780Y820420D01*
X400304Y897128D02*
X412496Y897128D01*
X413230Y897360D01*
X400304Y897128D02*
X398780Y896620D01*
X537464Y820928D02*
X549656Y820928D01*
X537464Y820928D02*
X536730Y821160D01*
X549656Y820928D02*
X551180Y820420D01*
X549656Y897128D02*
X537464Y897128D01*
X536730Y897360D01*
X549656Y897128D02*
X551180Y896620D01*
X208280Y856488D02*
X205232Y856488D01*
X165100Y896620D01*
X208280Y856488D02*
X208280Y855980D01*
X734568Y835152D02*
X734568Y787400D01*
X729488Y782320D01*
X734568Y835152D02*
X734820Y835350D01*
X729488Y782320D02*
X728980Y782320D01*
X411480Y543560D02*
X373888Y543560D01*
X343408Y513080D01*
X342900Y513080D01*
X650240Y781304D02*
X727456Y781304D01*
X650240Y781304D02*
X413512Y544576D01*
X727456Y781304D02*
X728980Y782320D01*
X413512Y544576D02*
X411480Y543560D01*
X209296Y819912D02*
X209296Y854456D01*
X209296Y819912D02*
X255524Y773684D01*
X255524Y609092D01*
X209296Y854456D02*
X208280Y855980D01*
D25*
X255524Y609092D03*
D24*
X521208Y172720D02*
X521208Y137160D01*
X521208Y172720D02*
X532384Y183896D01*
X532384Y227584D01*
X521208Y238760D01*
X521208Y137160D02*
X520700Y137160D01*
X520700Y238760D02*
X521208Y238760D01*
X816864Y-139192D02*
X824992Y-139192D01*
X816864Y-139192D02*
X626872Y50800D01*
X617728Y50800D01*
X609600Y58928D01*
X609600Y68072D01*
X541528Y136144D01*
X523240Y136144D01*
X824992Y-139192D02*
X825500Y-139700D01*
X523240Y136144D02*
X520700Y137160D01*
X338328Y196088D02*
X338328Y215392D01*
X303276Y161036D02*
X292100Y149860D01*
X303276Y161036D02*
X338328Y196088D01*
X338328Y215392D02*
X339090Y215900D01*
X199136Y64008D02*
X191008Y64008D01*
X199136Y64008D02*
X283464Y148336D01*
X290576Y148336D01*
X191008Y64008D02*
X190500Y63500D01*
X290576Y148336D02*
X292100Y149860D01*
X555752Y479552D02*
X592328Y479552D01*
X555752Y479552D02*
X553720Y477520D01*
X592328Y479552D02*
X593090Y480060D01*
X318008Y475488D02*
X318008Y513080D01*
X318008Y475488D02*
X317500Y474980D01*
X317500Y513080D02*
X318008Y513080D01*
X142240Y322580D02*
X142240Y297180D01*
X144272Y297688D02*
X167640Y297688D01*
X167640Y297180D01*
X144272Y297688D02*
X142240Y297180D01*
X167640Y297180D02*
X167640Y322580D01*
X315976Y471424D02*
X315976Y473456D01*
X315976Y471424D02*
X168656Y324104D01*
X315976Y473456D02*
X317500Y474980D01*
X168656Y324104D02*
X167640Y322580D01*
X518160Y476504D02*
X551688Y476504D01*
X518160Y476504D02*
X508000Y466344D01*
X322072Y466344D01*
X318008Y470408D01*
X551688Y476504D02*
X553720Y477520D01*
X318008Y470408D02*
X317500Y474980D01*
X168656Y295656D02*
X303276Y161036D01*
X168656Y295656D02*
X167640Y297180D01*
X167640Y322580D02*
X142240Y322580D01*
D26*
X652272Y493776D02*
X668020Y493776D01*
X378968Y242824D02*
X378968Y236728D01*
X344424Y202184D01*
X344424Y86360D01*
X328168Y70104D01*
X328168Y-129032D01*
X317500Y-139700D01*
X651510Y493268D02*
X652272Y493776D01*
D25*
X668020Y493776D03*
X378968Y242824D03*
D26*
X423672Y677672D02*
X423672Y781304D01*
X423672Y677672D02*
X179832Y433832D01*
X423672Y781304D02*
X424680Y782110D01*
D25*
X179832Y433832D03*
D26*
X479552Y782320D02*
X479552Y836168D01*
X468376Y847344D01*
X426720Y847344D01*
X423672Y844296D01*
X423672Y794512D01*
X375920Y746760D01*
X375920Y642112D01*
X168656Y434848D01*
X162560Y434848D01*
X153416Y425704D01*
X153416Y410464D01*
X142240Y399288D01*
X479680Y782110D02*
X479552Y782320D01*
X142240Y399288D02*
X142240Y398780D01*
X489712Y708152D02*
X489712Y781304D01*
X489712Y708152D02*
X302768Y521208D01*
X302768Y500888D01*
X175768Y373888D01*
X167640Y373888D01*
X489712Y781304D02*
X490680Y782110D01*
X167640Y373888D02*
X167640Y373380D01*
X457200Y701040D02*
X457200Y781304D01*
X457200Y701040D02*
X178816Y422656D01*
X178816Y410464D01*
X167640Y399288D01*
X457200Y781304D02*
X457680Y782110D01*
X167640Y399288D02*
X167640Y398780D01*
X308864Y235712D02*
X338328Y235712D01*
X308864Y235712D02*
X251968Y292608D01*
X236728Y292608D01*
X231648Y297688D01*
X231648Y306832D01*
X265176Y340360D01*
X757936Y340360D01*
X831088Y413512D01*
X849376Y413512D01*
X863600Y399288D01*
X339090Y235458D02*
X338328Y235712D01*
X863600Y398780D02*
X863600Y399288D01*
X346456Y248920D02*
X339344Y248920D01*
X346456Y248920D02*
X364744Y267208D01*
X364744Y269240D01*
X431800Y336296D01*
X759968Y336296D01*
X833120Y409448D01*
X843280Y409448D01*
X852424Y400304D01*
X852424Y385064D01*
X863600Y373888D01*
X339344Y248920D02*
X339090Y248412D01*
X863600Y373380D02*
X863600Y373888D01*
X351536Y229616D02*
X339344Y229616D01*
X351536Y229616D02*
X368808Y246888D01*
X368808Y267208D01*
X433832Y332232D01*
X772160Y332232D01*
X838200Y398272D01*
X339344Y229616D02*
X339090Y229108D01*
X838200Y398272D02*
X838200Y398780D01*
X354584Y242824D02*
X339344Y242824D01*
X354584Y242824D02*
X361696Y249936D01*
X375920Y264160D02*
X386080Y264160D01*
X450088Y328168D01*
X793496Y328168D01*
X838200Y372872D01*
X339344Y242824D02*
X339090Y242062D01*
X838200Y372872D02*
X838200Y373380D01*
D25*
X361696Y249936D03*
X375920Y264160D03*
D26*
X390144Y228600D02*
X397256Y228600D01*
X390144Y228600D02*
X383032Y221488D01*
X383032Y-129032D01*
X393700Y-139700D01*
X397256Y228600D02*
X397510Y229108D01*
X398272Y234696D02*
X411480Y234696D01*
X455168Y191008D01*
X455168Y-103632D01*
X419100Y-139700D01*
X398272Y234696D02*
X397510Y235458D01*
X397256Y241808D02*
X390144Y241808D01*
X348488Y200152D01*
X348488Y84328D01*
X332232Y68072D01*
X332232Y-144272D01*
X338328Y-150368D01*
X347472Y-150368D01*
X357632Y-140208D01*
X357632Y-135128D01*
X363728Y-129032D01*
X372872Y-129032D01*
X383032Y-139192D01*
X383032Y-144272D01*
X389128Y-150368D01*
X433832Y-150368D01*
X444500Y-139700D01*
X397256Y241808D02*
X397510Y242062D01*
X398272Y247904D02*
X405384Y247904D01*
X459232Y194056D01*
X459232Y-129032D01*
X469900Y-139700D01*
X398272Y247904D02*
X397510Y248412D01*
X338328Y262128D02*
X338328Y281432D01*
X317500Y302260D01*
X338328Y262128D02*
X339090Y261620D01*
X398272Y215392D02*
X398272Y182880D01*
X443992Y137160D01*
X398272Y215392D02*
X397510Y215900D01*
X443992Y137160D02*
X444500Y137160D01*
X409448Y222504D02*
X397510Y222504D01*
X409448Y222504D02*
X443992Y187960D01*
X444500Y187960D01*
X427736Y255016D02*
X397510Y255016D01*
X427736Y255016D02*
X443992Y238760D01*
X444500Y238760D01*
X416560Y262128D02*
X398272Y262128D01*
X416560Y262128D02*
X443992Y289560D01*
X398272Y262128D02*
X397510Y261620D01*
X443992Y289560D02*
X444500Y289560D01*
X657352Y157480D02*
X657352Y147320D01*
X657352Y157480D02*
X837184Y337312D01*
X853440Y337312D01*
X863600Y347472D01*
X863600Y347980D01*
D25*
X657352Y147320D03*
D26*
X651256Y498856D02*
X643128Y498856D01*
X641096Y496824D01*
X641096Y454152D01*
X375920Y188976D02*
X375920Y86360D01*
X353568Y64008D01*
X353568Y-129032D01*
X342900Y-139700D01*
X651256Y498856D02*
X651510Y499618D01*
D25*
X641096Y454152D03*
X375920Y188976D03*
D26*
X635000Y30480D02*
X635000Y15240D01*
X480568Y-139192D01*
X480568Y-144272D01*
X470408Y-154432D01*
X383032Y-154432D01*
X368300Y-139700D01*
D25*
X635000Y30480D03*
D26*
X592328Y526288D02*
X592328Y531368D01*
X561848Y561848D01*
X561848Y607568D01*
X571500Y617220D01*
X592328Y526288D02*
X593090Y525780D01*
X593344Y492760D02*
X600456Y492760D01*
X626872Y466344D01*
X626872Y423672D01*
X630936Y419608D01*
X735584Y419608D01*
X815848Y499872D01*
X838200Y499872D01*
X593344Y492760D02*
X593090Y493268D01*
X838200Y499872D02*
X838200Y500380D01*
X604520Y498856D02*
X593344Y498856D01*
X604520Y498856D02*
X626872Y476504D01*
X593344Y498856D02*
X593090Y499618D01*
D25*
X626872Y476504D03*
D26*
X604520Y506984D02*
X593344Y506984D01*
X604520Y506984D02*
X683768Y586232D01*
X683768Y596392D01*
X688848Y601472D01*
X822960Y601472D01*
X837184Y587248D01*
X843280Y587248D01*
X852424Y578104D01*
X852424Y572008D01*
X862584Y561848D01*
X868680Y561848D01*
X874776Y555752D01*
X874776Y435864D01*
X863600Y424688D01*
X593344Y506984D02*
X593090Y506222D01*
X863600Y424688D02*
X863600Y424180D01*
X651256Y505968D02*
X644144Y505968D01*
X633984Y495808D01*
X633984Y426720D01*
X651256Y505968D02*
X651510Y506222D01*
D25*
X633984Y426720D03*
D26*
X652272Y479552D02*
X692912Y438912D01*
X652272Y479552D02*
X651510Y480060D01*
X692912Y438912D02*
X693420Y439420D01*
X689864Y486664D02*
X651510Y486664D01*
X689864Y486664D02*
X693420Y490220D01*
X671576Y519176D02*
X651510Y519176D01*
X671576Y519176D02*
X693420Y541020D01*
X652272Y548640D02*
X652272Y526288D01*
X652272Y548640D02*
X692912Y589280D01*
X692912Y591312D01*
X652272Y526288D02*
X651510Y525780D01*
X692912Y591312D02*
X693420Y591820D01*
X604520Y513080D02*
X593344Y513080D01*
X604520Y513080D02*
X647192Y555752D01*
X647192Y565912D01*
X593344Y513080D02*
X593090Y512572D01*
X647192Y565912D02*
X647700Y566420D01*
X697992Y350520D02*
X317500Y350520D01*
X697992Y350520D02*
X837184Y489712D01*
X843280Y489712D01*
X849376Y495808D01*
X849376Y564896D01*
X838200Y576072D01*
X838200Y576580D01*
X339090Y222504D02*
X308864Y222504D01*
X292608Y238760D01*
X292100Y238760D01*
X240792Y322072D02*
X240792Y350520D01*
X240792Y322072D02*
X227584Y308864D01*
X227584Y295656D01*
X284480Y238760D01*
X292100Y238760D01*
X241300Y350520D02*
X240792Y350520D01*
X586232Y486664D02*
X593090Y486664D01*
X586232Y486664D02*
X553720Y519176D01*
X553720Y528320D01*
X853440Y652272D02*
X863600Y652272D01*
X853440Y652272D02*
X839216Y638048D01*
X578104Y638048D01*
X553720Y613664D01*
X553720Y528320D01*
X863600Y652272D02*
X863600Y652780D01*
X303784Y350520D02*
X241300Y350520D01*
X303784Y350520D02*
X413512Y460248D01*
X587248Y460248D01*
X603504Y476504D01*
X603504Y483616D01*
X600456Y486664D01*
X593090Y486664D01*
M02*
