G04 EAGLE Gerber RS-274X export*
G75*
%MOMM*%
%FSLAX34Y34*%
%LPD*%
%IN*%
%IPPOS*%
%AMOC8*
5,1,8,0,0,1.08239X$1,22.5*%
G01*
%ADD10C,0.254000*%


D10*
X0Y-220980D02*
X1003100Y-220980D01*
X1003100Y923800D01*
X0Y923800D01*
X0Y-220980D01*
X677320Y880850D02*
X677339Y880414D01*
X677396Y879982D01*
X677490Y879556D01*
X677622Y879140D01*
X677788Y878737D01*
X677990Y878350D01*
X678224Y877982D01*
X678490Y877636D01*
X678784Y877314D01*
X679106Y877020D01*
X679452Y876754D01*
X679820Y876520D01*
X680207Y876318D01*
X680610Y876152D01*
X681026Y876020D01*
X681452Y875926D01*
X681884Y875869D01*
X682320Y875850D01*
X682672Y875778D01*
X683030Y875737D01*
X683389Y875727D01*
X683748Y875749D01*
X684104Y875802D01*
X684454Y875886D01*
X684795Y876000D01*
X685125Y876143D01*
X685441Y876314D01*
X685741Y876513D01*
X686023Y876737D01*
X686284Y876984D01*
X686523Y877253D01*
X686737Y877542D01*
X686925Y877849D01*
X687086Y878171D01*
X687218Y878505D01*
X687320Y878850D01*
X687320Y890850D01*
X687301Y891286D01*
X687244Y891718D01*
X687150Y892144D01*
X687018Y892560D01*
X686852Y892963D01*
X686650Y893350D01*
X686416Y893718D01*
X686150Y894064D01*
X685856Y894386D01*
X685534Y894680D01*
X685188Y894946D01*
X684820Y895180D01*
X684433Y895382D01*
X684030Y895548D01*
X683614Y895680D01*
X683188Y895774D01*
X682756Y895831D01*
X682320Y895850D01*
X681884Y895831D01*
X681452Y895774D01*
X681026Y895680D01*
X680610Y895548D01*
X680207Y895382D01*
X679820Y895180D01*
X679452Y894946D01*
X679106Y894680D01*
X678784Y894386D01*
X678490Y894064D01*
X678224Y893718D01*
X677990Y893350D01*
X677788Y892963D01*
X677622Y892560D01*
X677490Y892144D01*
X677396Y891718D01*
X677339Y891286D01*
X677320Y890850D01*
X677320Y880850D01*
X750320Y880850D02*
X750339Y880414D01*
X750396Y879982D01*
X750490Y879556D01*
X750622Y879140D01*
X750788Y878737D01*
X750990Y878350D01*
X751224Y877982D01*
X751490Y877636D01*
X751784Y877314D01*
X752106Y877020D01*
X752452Y876754D01*
X752820Y876520D01*
X753207Y876318D01*
X753610Y876152D01*
X754026Y876020D01*
X754452Y875926D01*
X754884Y875869D01*
X755320Y875850D01*
X755756Y875869D01*
X756188Y875926D01*
X756614Y876020D01*
X757030Y876152D01*
X757433Y876318D01*
X757820Y876520D01*
X758188Y876754D01*
X758534Y877020D01*
X758856Y877314D01*
X759150Y877636D01*
X759416Y877982D01*
X759650Y878350D01*
X759852Y878737D01*
X760018Y879140D01*
X760150Y879556D01*
X760244Y879982D01*
X760301Y880414D01*
X760320Y880850D01*
X760320Y890850D01*
X760301Y891286D01*
X760244Y891718D01*
X760150Y892144D01*
X760018Y892560D01*
X759852Y892963D01*
X759650Y893350D01*
X759416Y893718D01*
X759150Y894064D01*
X758856Y894386D01*
X758534Y894680D01*
X758188Y894946D01*
X757820Y895180D01*
X757433Y895382D01*
X757030Y895548D01*
X756614Y895680D01*
X756188Y895774D01*
X755756Y895831D01*
X755320Y895850D01*
X754884Y895831D01*
X754452Y895774D01*
X754026Y895680D01*
X753610Y895548D01*
X753207Y895382D01*
X752820Y895180D01*
X752452Y894946D01*
X752106Y894680D01*
X751784Y894386D01*
X751490Y894064D01*
X751224Y893718D01*
X750990Y893350D01*
X750788Y892963D01*
X750622Y892560D01*
X750490Y892144D01*
X750396Y891718D01*
X750339Y891286D01*
X750320Y890850D01*
X750320Y880850D01*
X334010Y662400D02*
X333939Y661321D01*
X333798Y660249D01*
X333587Y659189D01*
X333308Y658145D01*
X332960Y657121D01*
X332546Y656123D01*
X332068Y655153D01*
X331528Y654217D01*
X330927Y653318D01*
X330269Y652461D01*
X329557Y651648D01*
X328792Y650884D01*
X327979Y650171D01*
X327122Y649513D01*
X326223Y648912D01*
X325287Y648372D01*
X324317Y647894D01*
X323319Y647480D01*
X322295Y647132D01*
X321251Y646853D01*
X320191Y646642D01*
X319119Y646501D01*
X318040Y646430D01*
X316960Y646430D01*
X315881Y646501D01*
X314809Y646642D01*
X313749Y646853D01*
X312705Y647132D01*
X311681Y647480D01*
X310683Y647894D01*
X309713Y648372D01*
X308777Y648912D01*
X307878Y649513D01*
X307021Y650171D01*
X306208Y650884D01*
X305444Y651648D01*
X304731Y652461D01*
X304073Y653318D01*
X303472Y654217D01*
X302932Y655153D01*
X302454Y656123D01*
X302040Y657121D01*
X301692Y658145D01*
X301413Y659189D01*
X301202Y660249D01*
X301061Y661321D01*
X300990Y662400D01*
X300990Y663480D01*
X301061Y664559D01*
X301202Y665631D01*
X301413Y666691D01*
X301692Y667735D01*
X302040Y668759D01*
X302454Y669757D01*
X302932Y670727D01*
X303472Y671663D01*
X304073Y672562D01*
X304731Y673419D01*
X305444Y674232D01*
X306208Y674997D01*
X307021Y675709D01*
X307878Y676367D01*
X308777Y676968D01*
X309713Y677508D01*
X310683Y677986D01*
X311681Y678400D01*
X312705Y678748D01*
X313749Y679027D01*
X314809Y679238D01*
X315881Y679379D01*
X316960Y679450D01*
X318040Y679450D01*
X319119Y679379D01*
X320191Y679238D01*
X321251Y679027D01*
X322295Y678748D01*
X323319Y678400D01*
X324317Y677986D01*
X325287Y677508D01*
X326223Y676968D01*
X327122Y676367D01*
X327979Y675709D01*
X328792Y674997D01*
X329557Y674232D01*
X330269Y673419D01*
X330927Y672562D01*
X331528Y671663D01*
X332068Y670727D01*
X332546Y669757D01*
X332960Y668759D01*
X333308Y667735D01*
X333587Y666691D01*
X333798Y665631D01*
X333939Y664559D01*
X334010Y663480D01*
X334010Y662400D01*
X71300Y-165719D02*
X71225Y-166956D01*
X71076Y-168186D01*
X70853Y-169405D01*
X70556Y-170607D01*
X70188Y-171790D01*
X69748Y-172949D01*
X69240Y-174078D01*
X68664Y-175175D01*
X68023Y-176236D01*
X67319Y-177255D01*
X66555Y-178230D01*
X65734Y-179158D01*
X64858Y-180034D01*
X63930Y-180855D01*
X62955Y-181619D01*
X61936Y-182323D01*
X60875Y-182964D01*
X59778Y-183540D01*
X58649Y-184048D01*
X57490Y-184488D01*
X56307Y-184856D01*
X55105Y-185153D01*
X53886Y-185376D01*
X52656Y-185525D01*
X51419Y-185600D01*
X50181Y-185600D01*
X48944Y-185525D01*
X47714Y-185376D01*
X46495Y-185153D01*
X45293Y-184856D01*
X44110Y-184488D01*
X42951Y-184048D01*
X41822Y-183540D01*
X40725Y-182964D01*
X39664Y-182323D01*
X38645Y-181619D01*
X37670Y-180855D01*
X36742Y-180034D01*
X35866Y-179158D01*
X35045Y-178230D01*
X34281Y-177255D01*
X33577Y-176236D01*
X32936Y-175175D01*
X32360Y-174078D01*
X31852Y-172949D01*
X31413Y-171790D01*
X31044Y-170607D01*
X30747Y-169405D01*
X30524Y-168186D01*
X30375Y-166956D01*
X30300Y-165719D01*
X30300Y-164481D01*
X30375Y-163244D01*
X30524Y-162014D01*
X30747Y-160795D01*
X31044Y-159593D01*
X31413Y-158410D01*
X31852Y-157251D01*
X32360Y-156122D01*
X32936Y-155025D01*
X33577Y-153964D01*
X34281Y-152945D01*
X35045Y-151970D01*
X35866Y-151042D01*
X36742Y-150166D01*
X37670Y-149345D01*
X38645Y-148581D01*
X39664Y-147877D01*
X40725Y-147236D01*
X41822Y-146660D01*
X42951Y-146152D01*
X44110Y-145713D01*
X45293Y-145344D01*
X46495Y-145047D01*
X47714Y-144824D01*
X48944Y-144675D01*
X50181Y-144600D01*
X51419Y-144600D01*
X52656Y-144675D01*
X53886Y-144824D01*
X55105Y-145047D01*
X56307Y-145344D01*
X57490Y-145713D01*
X58649Y-146152D01*
X59778Y-146660D01*
X60875Y-147236D01*
X61936Y-147877D01*
X62955Y-148581D01*
X63930Y-149345D01*
X64858Y-150166D01*
X65734Y-151042D01*
X66555Y-151970D01*
X67319Y-152945D01*
X68023Y-153964D01*
X68664Y-155025D01*
X69240Y-156122D01*
X69748Y-157251D01*
X70188Y-158410D01*
X70556Y-159593D01*
X70853Y-160795D01*
X71076Y-162014D01*
X71225Y-163244D01*
X71300Y-164481D01*
X71300Y-165719D01*
X973000Y862981D02*
X972925Y861744D01*
X972776Y860514D01*
X972553Y859295D01*
X972256Y858093D01*
X971888Y856910D01*
X971448Y855751D01*
X970940Y854622D01*
X970364Y853525D01*
X969723Y852464D01*
X969019Y851445D01*
X968255Y850470D01*
X967434Y849542D01*
X966558Y848666D01*
X965630Y847845D01*
X964655Y847081D01*
X963636Y846377D01*
X962575Y845736D01*
X961478Y845160D01*
X960349Y844652D01*
X959190Y844213D01*
X958007Y843844D01*
X956805Y843547D01*
X955586Y843324D01*
X954356Y843175D01*
X953119Y843100D01*
X951881Y843100D01*
X950644Y843175D01*
X949414Y843324D01*
X948195Y843547D01*
X946993Y843844D01*
X945810Y844213D01*
X944651Y844652D01*
X943522Y845160D01*
X942425Y845736D01*
X941364Y846377D01*
X940345Y847081D01*
X939370Y847845D01*
X938442Y848666D01*
X937566Y849542D01*
X936745Y850470D01*
X935981Y851445D01*
X935277Y852464D01*
X934636Y853525D01*
X934060Y854622D01*
X933552Y855751D01*
X933113Y856910D01*
X932744Y858093D01*
X932447Y859295D01*
X932224Y860514D01*
X932075Y861744D01*
X932000Y862981D01*
X932000Y864219D01*
X932075Y865456D01*
X932224Y866686D01*
X932447Y867905D01*
X932744Y869107D01*
X933113Y870290D01*
X933552Y871449D01*
X934060Y872578D01*
X934636Y873675D01*
X935277Y874736D01*
X935981Y875755D01*
X936745Y876730D01*
X937566Y877658D01*
X938442Y878534D01*
X939370Y879355D01*
X940345Y880119D01*
X941364Y880823D01*
X942425Y881464D01*
X943522Y882040D01*
X944651Y882548D01*
X945810Y882988D01*
X946993Y883356D01*
X948195Y883653D01*
X949414Y883876D01*
X950644Y884025D01*
X951881Y884100D01*
X953119Y884100D01*
X954356Y884025D01*
X955586Y883876D01*
X956805Y883653D01*
X958007Y883356D01*
X959190Y882988D01*
X960349Y882548D01*
X961478Y882040D01*
X962575Y881464D01*
X963636Y880823D01*
X964655Y880119D01*
X965630Y879355D01*
X966558Y878534D01*
X967434Y877658D01*
X968255Y876730D01*
X969019Y875755D01*
X969723Y874736D01*
X970364Y873675D01*
X970940Y872578D01*
X971448Y871449D01*
X971888Y870290D01*
X972256Y869107D01*
X972553Y867905D01*
X972776Y866686D01*
X972925Y865456D01*
X973000Y864219D01*
X973000Y862981D01*
X973000Y-165719D02*
X972925Y-166956D01*
X972776Y-168186D01*
X972553Y-169405D01*
X972256Y-170607D01*
X971888Y-171790D01*
X971448Y-172949D01*
X970940Y-174078D01*
X970364Y-175175D01*
X969723Y-176236D01*
X969019Y-177255D01*
X968255Y-178230D01*
X967434Y-179158D01*
X966558Y-180034D01*
X965630Y-180855D01*
X964655Y-181619D01*
X963636Y-182323D01*
X962575Y-182964D01*
X961478Y-183540D01*
X960349Y-184048D01*
X959190Y-184488D01*
X958007Y-184856D01*
X956805Y-185153D01*
X955586Y-185376D01*
X954356Y-185525D01*
X953119Y-185600D01*
X951881Y-185600D01*
X950644Y-185525D01*
X949414Y-185376D01*
X948195Y-185153D01*
X946993Y-184856D01*
X945810Y-184488D01*
X944651Y-184048D01*
X943522Y-183540D01*
X942425Y-182964D01*
X941364Y-182323D01*
X940345Y-181619D01*
X939370Y-180855D01*
X938442Y-180034D01*
X937566Y-179158D01*
X936745Y-178230D01*
X935981Y-177255D01*
X935277Y-176236D01*
X934636Y-175175D01*
X934060Y-174078D01*
X933552Y-172949D01*
X933113Y-171790D01*
X932744Y-170607D01*
X932447Y-169405D01*
X932224Y-168186D01*
X932075Y-166956D01*
X932000Y-165719D01*
X932000Y-164481D01*
X932075Y-163244D01*
X932224Y-162014D01*
X932447Y-160795D01*
X932744Y-159593D01*
X933113Y-158410D01*
X933552Y-157251D01*
X934060Y-156122D01*
X934636Y-155025D01*
X935277Y-153964D01*
X935981Y-152945D01*
X936745Y-151970D01*
X937566Y-151042D01*
X938442Y-150166D01*
X939370Y-149345D01*
X940345Y-148581D01*
X941364Y-147877D01*
X942425Y-147236D01*
X943522Y-146660D01*
X944651Y-146152D01*
X945810Y-145713D01*
X946993Y-145344D01*
X948195Y-145047D01*
X949414Y-144824D01*
X950644Y-144675D01*
X951881Y-144600D01*
X953119Y-144600D01*
X954356Y-144675D01*
X955586Y-144824D01*
X956805Y-145047D01*
X958007Y-145344D01*
X959190Y-145713D01*
X960349Y-146152D01*
X961478Y-146660D01*
X962575Y-147236D01*
X963636Y-147877D01*
X964655Y-148581D01*
X965630Y-149345D01*
X966558Y-150166D01*
X967434Y-151042D01*
X968255Y-151970D01*
X969019Y-152945D01*
X969723Y-153964D01*
X970364Y-155025D01*
X970940Y-156122D01*
X971448Y-157251D01*
X971888Y-158410D01*
X972256Y-159593D01*
X972553Y-160795D01*
X972776Y-162014D01*
X972925Y-163244D01*
X973000Y-164481D01*
X973000Y-165719D01*
X71300Y862981D02*
X71225Y861744D01*
X71076Y860514D01*
X70853Y859295D01*
X70556Y858093D01*
X70188Y856910D01*
X69748Y855751D01*
X69240Y854622D01*
X68664Y853525D01*
X68023Y852464D01*
X67319Y851445D01*
X66555Y850470D01*
X65734Y849542D01*
X64858Y848666D01*
X63930Y847845D01*
X62955Y847081D01*
X61936Y846377D01*
X60875Y845736D01*
X59778Y845160D01*
X58649Y844652D01*
X57490Y844213D01*
X56307Y843844D01*
X55105Y843547D01*
X53886Y843324D01*
X52656Y843175D01*
X51419Y843100D01*
X50181Y843100D01*
X48944Y843175D01*
X47714Y843324D01*
X46495Y843547D01*
X45293Y843844D01*
X44110Y844213D01*
X42951Y844652D01*
X41822Y845160D01*
X40725Y845736D01*
X39664Y846377D01*
X38645Y847081D01*
X37670Y847845D01*
X36742Y848666D01*
X35866Y849542D01*
X35045Y850470D01*
X34281Y851445D01*
X33577Y852464D01*
X32936Y853525D01*
X32360Y854622D01*
X31852Y855751D01*
X31413Y856910D01*
X31044Y858093D01*
X30747Y859295D01*
X30524Y860514D01*
X30375Y861744D01*
X30300Y862981D01*
X30300Y864219D01*
X30375Y865456D01*
X30524Y866686D01*
X30747Y867905D01*
X31044Y869107D01*
X31413Y870290D01*
X31852Y871449D01*
X32360Y872578D01*
X32936Y873675D01*
X33577Y874736D01*
X34281Y875755D01*
X35045Y876730D01*
X35866Y877658D01*
X36742Y878534D01*
X37670Y879355D01*
X38645Y880119D01*
X39664Y880823D01*
X40725Y881464D01*
X41822Y882040D01*
X42951Y882548D01*
X44110Y882988D01*
X45293Y883356D01*
X46495Y883653D01*
X47714Y883876D01*
X48944Y884025D01*
X50181Y884100D01*
X51419Y884100D01*
X52656Y884025D01*
X53886Y883876D01*
X55105Y883653D01*
X56307Y883356D01*
X57490Y882988D01*
X58649Y882548D01*
X59778Y882040D01*
X60875Y881464D01*
X61936Y880823D01*
X62955Y880119D01*
X63930Y879355D01*
X64858Y878534D01*
X65734Y877658D01*
X66555Y876730D01*
X67319Y875755D01*
X68023Y874736D01*
X68664Y873675D01*
X69240Y872578D01*
X69748Y871449D01*
X70188Y870290D01*
X70556Y869107D01*
X70853Y867905D01*
X71076Y866686D01*
X71225Y865456D01*
X71300Y864219D01*
X71300Y862981D01*
M02*
