G04 EAGLE Gerber RS-274X export*
G75*
%MOMM*%
%FSLAX34Y34*%
%LPD*%
%INSilkscreen Bottom*%
%IPPOS*%
%AMOC8*
5,1,8,0,0,1.08239X$1,22.5*%
G01*
%ADD10C,0.050800*%
%ADD11C,0.152400*%
%ADD12C,0.127000*%


D10*
X625658Y152287D02*
X625658Y153218D01*
X622554Y153218D01*
X622554Y151356D01*
X622556Y151286D01*
X622562Y151217D01*
X622572Y151148D01*
X622585Y151080D01*
X622603Y151012D01*
X622624Y150946D01*
X622649Y150881D01*
X622677Y150817D01*
X622709Y150755D01*
X622744Y150695D01*
X622783Y150637D01*
X622825Y150582D01*
X622870Y150528D01*
X622918Y150478D01*
X622968Y150430D01*
X623022Y150385D01*
X623077Y150343D01*
X623135Y150304D01*
X623195Y150269D01*
X623257Y150237D01*
X623321Y150209D01*
X623386Y150184D01*
X623452Y150163D01*
X623520Y150145D01*
X623588Y150132D01*
X623657Y150122D01*
X623726Y150116D01*
X623796Y150114D01*
X626900Y150114D01*
X626970Y150116D01*
X627039Y150122D01*
X627108Y150132D01*
X627176Y150145D01*
X627244Y150163D01*
X627310Y150184D01*
X627375Y150209D01*
X627439Y150237D01*
X627501Y150269D01*
X627561Y150304D01*
X627619Y150343D01*
X627674Y150385D01*
X627728Y150430D01*
X627778Y150478D01*
X627826Y150528D01*
X627871Y150582D01*
X627913Y150637D01*
X627952Y150695D01*
X627987Y150755D01*
X628019Y150817D01*
X628047Y150881D01*
X628072Y150946D01*
X628093Y151012D01*
X628111Y151080D01*
X628124Y151148D01*
X628134Y151217D01*
X628140Y151286D01*
X628142Y151356D01*
X628142Y153218D01*
X628142Y155966D02*
X622554Y155966D01*
X622554Y159071D02*
X628142Y155966D01*
X628142Y159071D02*
X622554Y159071D01*
X622554Y161818D02*
X628142Y161818D01*
X628142Y163370D01*
X628140Y163446D01*
X628135Y163522D01*
X628125Y163598D01*
X628112Y163673D01*
X628095Y163747D01*
X628075Y163821D01*
X628051Y163893D01*
X628024Y163964D01*
X627993Y164034D01*
X627959Y164102D01*
X627921Y164168D01*
X627880Y164232D01*
X627837Y164295D01*
X627790Y164355D01*
X627740Y164412D01*
X627687Y164467D01*
X627632Y164520D01*
X627575Y164570D01*
X627515Y164617D01*
X627452Y164660D01*
X627388Y164701D01*
X627322Y164739D01*
X627254Y164773D01*
X627184Y164804D01*
X627113Y164831D01*
X627040Y164855D01*
X626967Y164875D01*
X626893Y164892D01*
X626818Y164905D01*
X626742Y164915D01*
X626666Y164920D01*
X626590Y164922D01*
X626590Y164923D02*
X624106Y164923D01*
X624106Y164922D02*
X624027Y164920D01*
X623949Y164914D01*
X623871Y164904D01*
X623794Y164890D01*
X623717Y164872D01*
X623641Y164851D01*
X623567Y164825D01*
X623494Y164796D01*
X623423Y164763D01*
X623353Y164727D01*
X623285Y164687D01*
X623219Y164644D01*
X623156Y164597D01*
X623095Y164548D01*
X623037Y164495D01*
X622981Y164439D01*
X622928Y164381D01*
X622879Y164320D01*
X622832Y164257D01*
X622789Y164191D01*
X622749Y164123D01*
X622713Y164054D01*
X622680Y163982D01*
X622651Y163909D01*
X622625Y163835D01*
X622604Y163759D01*
X622586Y163682D01*
X622572Y163605D01*
X622562Y163527D01*
X622556Y163449D01*
X622554Y163370D01*
X622554Y161818D01*
X622554Y106934D02*
X628142Y106934D01*
X628142Y108486D01*
X628140Y108562D01*
X628135Y108638D01*
X628125Y108714D01*
X628112Y108789D01*
X628095Y108863D01*
X628075Y108937D01*
X628051Y109009D01*
X628024Y109080D01*
X627993Y109150D01*
X627959Y109218D01*
X627921Y109284D01*
X627880Y109348D01*
X627837Y109411D01*
X627790Y109471D01*
X627740Y109528D01*
X627687Y109583D01*
X627632Y109636D01*
X627575Y109686D01*
X627515Y109733D01*
X627452Y109776D01*
X627388Y109817D01*
X627322Y109855D01*
X627254Y109889D01*
X627184Y109920D01*
X627113Y109947D01*
X627040Y109971D01*
X626967Y109991D01*
X626893Y110008D01*
X626818Y110021D01*
X626742Y110031D01*
X626666Y110036D01*
X626590Y110038D01*
X624106Y110038D01*
X624027Y110036D01*
X623949Y110030D01*
X623871Y110020D01*
X623794Y110006D01*
X623717Y109988D01*
X623641Y109967D01*
X623567Y109941D01*
X623494Y109912D01*
X623423Y109879D01*
X623353Y109843D01*
X623285Y109803D01*
X623219Y109760D01*
X623156Y109713D01*
X623095Y109664D01*
X623037Y109611D01*
X622981Y109555D01*
X622928Y109497D01*
X622879Y109436D01*
X622832Y109373D01*
X622789Y109307D01*
X622749Y109239D01*
X622713Y109170D01*
X622680Y109098D01*
X622651Y109025D01*
X622625Y108951D01*
X622604Y108875D01*
X622586Y108798D01*
X622572Y108721D01*
X622562Y108643D01*
X622556Y108565D01*
X622554Y108486D01*
X622554Y106934D01*
X622554Y113790D02*
X628142Y113790D01*
X628142Y112238D02*
X628142Y115342D01*
X628142Y117577D02*
X622554Y117577D01*
X628142Y117577D02*
X628142Y119129D01*
X628140Y119206D01*
X628134Y119284D01*
X628125Y119360D01*
X628111Y119437D01*
X628094Y119512D01*
X628073Y119586D01*
X628048Y119660D01*
X628020Y119732D01*
X627988Y119802D01*
X627953Y119871D01*
X627914Y119938D01*
X627872Y120003D01*
X627827Y120066D01*
X627779Y120127D01*
X627728Y120185D01*
X627674Y120240D01*
X627617Y120293D01*
X627558Y120342D01*
X627496Y120389D01*
X627432Y120433D01*
X627366Y120473D01*
X627298Y120510D01*
X627228Y120544D01*
X627157Y120574D01*
X627084Y120600D01*
X627010Y120623D01*
X626935Y120642D01*
X626860Y120657D01*
X626783Y120669D01*
X626706Y120677D01*
X626629Y120681D01*
X626551Y120681D01*
X626474Y120677D01*
X626397Y120669D01*
X626320Y120657D01*
X626245Y120642D01*
X626170Y120623D01*
X626096Y120600D01*
X626023Y120574D01*
X625952Y120544D01*
X625882Y120510D01*
X625814Y120473D01*
X625748Y120433D01*
X625684Y120389D01*
X625622Y120342D01*
X625563Y120293D01*
X625506Y120240D01*
X625452Y120185D01*
X625401Y120127D01*
X625353Y120066D01*
X625308Y120003D01*
X625266Y119938D01*
X625227Y119871D01*
X625192Y119802D01*
X625160Y119732D01*
X625132Y119660D01*
X625107Y119586D01*
X625086Y119512D01*
X625069Y119437D01*
X625055Y119360D01*
X625046Y119284D01*
X625040Y119206D01*
X625038Y119129D01*
X625038Y117577D01*
X625038Y119440D02*
X622554Y120682D01*
X621933Y122789D02*
X621933Y125273D01*
X622554Y127610D02*
X622554Y130094D01*
X622554Y127610D02*
X628142Y127610D01*
X628142Y130094D01*
X625658Y129473D02*
X625658Y127610D01*
X628142Y132354D02*
X622554Y132354D01*
X622554Y135459D02*
X628142Y132354D01*
X628142Y135459D02*
X622554Y135459D01*
X625658Y138289D02*
X625658Y139841D01*
X625656Y139918D01*
X625650Y139996D01*
X625641Y140072D01*
X625627Y140149D01*
X625610Y140224D01*
X625589Y140298D01*
X625564Y140372D01*
X625536Y140444D01*
X625504Y140514D01*
X625469Y140583D01*
X625430Y140650D01*
X625388Y140715D01*
X625343Y140778D01*
X625295Y140839D01*
X625244Y140897D01*
X625190Y140952D01*
X625133Y141005D01*
X625074Y141054D01*
X625012Y141101D01*
X624948Y141145D01*
X624882Y141185D01*
X624814Y141222D01*
X624744Y141256D01*
X624673Y141286D01*
X624600Y141312D01*
X624526Y141335D01*
X624451Y141354D01*
X624376Y141369D01*
X624299Y141381D01*
X624222Y141389D01*
X624145Y141393D01*
X624067Y141393D01*
X623990Y141389D01*
X623913Y141381D01*
X623836Y141369D01*
X623761Y141354D01*
X623686Y141335D01*
X623612Y141312D01*
X623539Y141286D01*
X623468Y141256D01*
X623398Y141222D01*
X623330Y141185D01*
X623264Y141145D01*
X623200Y141101D01*
X623138Y141054D01*
X623079Y141005D01*
X623022Y140952D01*
X622968Y140897D01*
X622917Y140839D01*
X622869Y140778D01*
X622824Y140715D01*
X622782Y140650D01*
X622743Y140583D01*
X622708Y140514D01*
X622676Y140444D01*
X622648Y140372D01*
X622623Y140298D01*
X622602Y140224D01*
X622585Y140149D01*
X622571Y140072D01*
X622562Y139996D01*
X622556Y139918D01*
X622554Y139841D01*
X622554Y138289D01*
X628142Y138289D01*
X628142Y139841D01*
X628140Y139911D01*
X628134Y139980D01*
X628124Y140049D01*
X628111Y140117D01*
X628093Y140185D01*
X628072Y140251D01*
X628047Y140316D01*
X628019Y140380D01*
X627987Y140442D01*
X627952Y140502D01*
X627913Y140560D01*
X627871Y140615D01*
X627826Y140669D01*
X627778Y140719D01*
X627728Y140767D01*
X627674Y140812D01*
X627619Y140854D01*
X627561Y140893D01*
X627501Y140928D01*
X627439Y140960D01*
X627375Y140988D01*
X627310Y141013D01*
X627244Y141034D01*
X627176Y141052D01*
X627108Y141065D01*
X627039Y141075D01*
X626970Y141081D01*
X626900Y141083D01*
X626830Y141081D01*
X626761Y141075D01*
X626692Y141065D01*
X626624Y141052D01*
X626556Y141034D01*
X626490Y141013D01*
X626425Y140988D01*
X626361Y140960D01*
X626299Y140928D01*
X626239Y140893D01*
X626181Y140854D01*
X626126Y140812D01*
X626072Y140767D01*
X626022Y140719D01*
X625974Y140669D01*
X625929Y140615D01*
X625887Y140560D01*
X625848Y140502D01*
X625813Y140442D01*
X625781Y140380D01*
X625753Y140316D01*
X625728Y140251D01*
X625707Y140185D01*
X625689Y140117D01*
X625676Y140049D01*
X625666Y139980D01*
X625660Y139911D01*
X625658Y139841D01*
X720879Y111506D02*
X720879Y105918D01*
X720879Y111506D02*
X719327Y111506D01*
X719251Y111504D01*
X719175Y111499D01*
X719099Y111489D01*
X719024Y111476D01*
X718950Y111459D01*
X718876Y111439D01*
X718804Y111415D01*
X718733Y111388D01*
X718663Y111357D01*
X718595Y111323D01*
X718529Y111285D01*
X718465Y111244D01*
X718402Y111201D01*
X718342Y111154D01*
X718285Y111104D01*
X718230Y111051D01*
X718177Y110996D01*
X718127Y110939D01*
X718080Y110879D01*
X718037Y110816D01*
X717996Y110752D01*
X717958Y110686D01*
X717924Y110618D01*
X717893Y110548D01*
X717866Y110477D01*
X717842Y110405D01*
X717822Y110331D01*
X717805Y110257D01*
X717792Y110182D01*
X717782Y110106D01*
X717777Y110030D01*
X717775Y109954D01*
X717775Y107470D01*
X717777Y107394D01*
X717782Y107318D01*
X717792Y107242D01*
X717805Y107167D01*
X717822Y107093D01*
X717842Y107019D01*
X717866Y106947D01*
X717893Y106876D01*
X717924Y106806D01*
X717958Y106738D01*
X717996Y106672D01*
X718037Y106608D01*
X718080Y106545D01*
X718127Y106485D01*
X718177Y106428D01*
X718230Y106373D01*
X718285Y106320D01*
X718342Y106270D01*
X718402Y106223D01*
X718465Y106180D01*
X718529Y106139D01*
X718595Y106101D01*
X718663Y106067D01*
X718733Y106036D01*
X718804Y106009D01*
X718876Y105985D01*
X718950Y105965D01*
X719024Y105948D01*
X719099Y105935D01*
X719175Y105925D01*
X719251Y105920D01*
X719327Y105918D01*
X720879Y105918D01*
X713530Y105918D02*
X713460Y105920D01*
X713391Y105926D01*
X713322Y105936D01*
X713254Y105949D01*
X713186Y105967D01*
X713120Y105988D01*
X713055Y106013D01*
X712991Y106041D01*
X712929Y106073D01*
X712869Y106108D01*
X712811Y106147D01*
X712756Y106189D01*
X712702Y106234D01*
X712652Y106282D01*
X712604Y106332D01*
X712559Y106386D01*
X712517Y106441D01*
X712478Y106499D01*
X712443Y106559D01*
X712411Y106621D01*
X712383Y106685D01*
X712358Y106750D01*
X712337Y106816D01*
X712319Y106884D01*
X712306Y106952D01*
X712296Y107021D01*
X712290Y107090D01*
X712288Y107160D01*
X713530Y105918D02*
X713629Y105920D01*
X713727Y105925D01*
X713825Y105935D01*
X713923Y105948D01*
X714020Y105964D01*
X714117Y105984D01*
X714212Y106008D01*
X714307Y106036D01*
X714401Y106067D01*
X714493Y106101D01*
X714584Y106139D01*
X714674Y106180D01*
X714762Y106225D01*
X714848Y106273D01*
X714932Y106324D01*
X715014Y106378D01*
X715095Y106436D01*
X715173Y106496D01*
X715248Y106559D01*
X715322Y106625D01*
X715392Y106694D01*
X715238Y110264D02*
X715236Y110334D01*
X715230Y110403D01*
X715220Y110472D01*
X715207Y110540D01*
X715189Y110608D01*
X715168Y110674D01*
X715143Y110739D01*
X715115Y110803D01*
X715083Y110865D01*
X715048Y110925D01*
X715009Y110983D01*
X714967Y111038D01*
X714922Y111092D01*
X714874Y111142D01*
X714824Y111190D01*
X714770Y111235D01*
X714715Y111277D01*
X714657Y111316D01*
X714597Y111351D01*
X714535Y111383D01*
X714471Y111411D01*
X714406Y111436D01*
X714340Y111457D01*
X714272Y111475D01*
X714204Y111488D01*
X714135Y111498D01*
X714066Y111504D01*
X713996Y111506D01*
X713902Y111504D01*
X713809Y111498D01*
X713716Y111489D01*
X713623Y111476D01*
X713531Y111459D01*
X713440Y111439D01*
X713349Y111414D01*
X713260Y111387D01*
X713172Y111355D01*
X713085Y111320D01*
X712999Y111282D01*
X712916Y111240D01*
X712833Y111195D01*
X712753Y111147D01*
X712675Y111095D01*
X712599Y111040D01*
X714617Y109178D02*
X714676Y109214D01*
X714732Y109254D01*
X714786Y109297D01*
X714838Y109342D01*
X714887Y109391D01*
X714933Y109442D01*
X714976Y109495D01*
X715017Y109551D01*
X715054Y109609D01*
X715089Y109669D01*
X715119Y109730D01*
X715147Y109793D01*
X715171Y109858D01*
X715191Y109924D01*
X715208Y109991D01*
X715221Y110058D01*
X715230Y110126D01*
X715236Y110195D01*
X715238Y110264D01*
X712910Y108246D02*
X712851Y108210D01*
X712795Y108170D01*
X712741Y108127D01*
X712689Y108082D01*
X712640Y108033D01*
X712594Y107982D01*
X712551Y107929D01*
X712510Y107873D01*
X712473Y107815D01*
X712438Y107756D01*
X712408Y107694D01*
X712380Y107631D01*
X712356Y107566D01*
X712336Y107500D01*
X712319Y107433D01*
X712306Y107366D01*
X712297Y107298D01*
X712291Y107229D01*
X712289Y107160D01*
X712910Y108246D02*
X714617Y109178D01*
X709871Y111506D02*
X709871Y105918D01*
X709871Y111506D02*
X708318Y111506D01*
X708241Y111504D01*
X708163Y111498D01*
X708087Y111489D01*
X708010Y111475D01*
X707935Y111458D01*
X707861Y111437D01*
X707787Y111412D01*
X707715Y111384D01*
X707645Y111352D01*
X707576Y111317D01*
X707509Y111278D01*
X707444Y111236D01*
X707381Y111191D01*
X707320Y111143D01*
X707262Y111092D01*
X707207Y111038D01*
X707154Y110981D01*
X707105Y110922D01*
X707058Y110860D01*
X707014Y110796D01*
X706974Y110730D01*
X706937Y110662D01*
X706903Y110592D01*
X706873Y110521D01*
X706847Y110448D01*
X706824Y110374D01*
X706805Y110299D01*
X706790Y110224D01*
X706778Y110147D01*
X706770Y110070D01*
X706766Y109993D01*
X706766Y109915D01*
X706770Y109838D01*
X706778Y109761D01*
X706790Y109684D01*
X706805Y109609D01*
X706824Y109534D01*
X706847Y109460D01*
X706873Y109387D01*
X706903Y109316D01*
X706937Y109246D01*
X706974Y109178D01*
X707014Y109112D01*
X707058Y109048D01*
X707105Y108986D01*
X707154Y108927D01*
X707207Y108870D01*
X707262Y108816D01*
X707320Y108765D01*
X707381Y108717D01*
X707444Y108672D01*
X707509Y108630D01*
X707576Y108591D01*
X707645Y108556D01*
X707715Y108524D01*
X707787Y108496D01*
X707861Y108471D01*
X707935Y108450D01*
X708010Y108433D01*
X708087Y108419D01*
X708163Y108410D01*
X708241Y108404D01*
X708318Y108402D01*
X709871Y108402D01*
X708008Y108402D02*
X706766Y105918D01*
X704659Y105297D02*
X702175Y105297D01*
X699837Y105918D02*
X697354Y105918D01*
X699837Y105918D02*
X699837Y111506D01*
X697354Y111506D01*
X697975Y109022D02*
X699837Y109022D01*
X695094Y111506D02*
X695094Y105918D01*
X691989Y105918D02*
X695094Y111506D01*
X691989Y111506D02*
X691989Y105918D01*
X689158Y109022D02*
X687606Y109022D01*
X687529Y109020D01*
X687451Y109014D01*
X687375Y109005D01*
X687298Y108991D01*
X687223Y108974D01*
X687149Y108953D01*
X687075Y108928D01*
X687003Y108900D01*
X686933Y108868D01*
X686864Y108833D01*
X686797Y108794D01*
X686732Y108752D01*
X686669Y108707D01*
X686608Y108659D01*
X686550Y108608D01*
X686495Y108554D01*
X686442Y108497D01*
X686393Y108438D01*
X686346Y108376D01*
X686302Y108312D01*
X686262Y108246D01*
X686225Y108178D01*
X686191Y108108D01*
X686161Y108037D01*
X686135Y107964D01*
X686112Y107890D01*
X686093Y107815D01*
X686078Y107740D01*
X686066Y107663D01*
X686058Y107586D01*
X686054Y107509D01*
X686054Y107431D01*
X686058Y107354D01*
X686066Y107277D01*
X686078Y107200D01*
X686093Y107125D01*
X686112Y107050D01*
X686135Y106976D01*
X686161Y106903D01*
X686191Y106832D01*
X686225Y106762D01*
X686262Y106694D01*
X686302Y106628D01*
X686346Y106564D01*
X686393Y106502D01*
X686442Y106443D01*
X686495Y106386D01*
X686550Y106332D01*
X686608Y106281D01*
X686669Y106233D01*
X686732Y106188D01*
X686797Y106146D01*
X686864Y106107D01*
X686933Y106072D01*
X687003Y106040D01*
X687075Y106012D01*
X687149Y105987D01*
X687223Y105966D01*
X687298Y105949D01*
X687375Y105935D01*
X687451Y105926D01*
X687529Y105920D01*
X687606Y105918D01*
X689158Y105918D01*
X689158Y111506D01*
X687606Y111506D01*
X687536Y111504D01*
X687467Y111498D01*
X687398Y111488D01*
X687330Y111475D01*
X687262Y111457D01*
X687196Y111436D01*
X687131Y111411D01*
X687067Y111383D01*
X687005Y111351D01*
X686945Y111316D01*
X686887Y111277D01*
X686832Y111235D01*
X686778Y111190D01*
X686728Y111142D01*
X686680Y111092D01*
X686635Y111038D01*
X686593Y110983D01*
X686554Y110925D01*
X686519Y110865D01*
X686487Y110803D01*
X686459Y110739D01*
X686434Y110674D01*
X686413Y110608D01*
X686395Y110540D01*
X686382Y110472D01*
X686372Y110403D01*
X686366Y110334D01*
X686364Y110264D01*
X686366Y110194D01*
X686372Y110125D01*
X686382Y110056D01*
X686395Y109988D01*
X686413Y109920D01*
X686434Y109854D01*
X686459Y109789D01*
X686487Y109725D01*
X686519Y109663D01*
X686554Y109603D01*
X686593Y109545D01*
X686635Y109490D01*
X686680Y109436D01*
X686728Y109386D01*
X686778Y109338D01*
X686832Y109293D01*
X686887Y109251D01*
X686945Y109212D01*
X687005Y109177D01*
X687067Y109145D01*
X687131Y109117D01*
X687196Y109092D01*
X687262Y109071D01*
X687330Y109053D01*
X687398Y109040D01*
X687467Y109030D01*
X687536Y109024D01*
X687606Y109022D01*
D11*
X632460Y120650D02*
X632460Y163830D01*
X650240Y166370D02*
X650340Y166368D01*
X650439Y166362D01*
X650539Y166352D01*
X650637Y166339D01*
X650736Y166321D01*
X650833Y166300D01*
X650929Y166275D01*
X651025Y166246D01*
X651119Y166213D01*
X651212Y166177D01*
X651303Y166137D01*
X651393Y166093D01*
X651481Y166046D01*
X651567Y165996D01*
X651651Y165942D01*
X651733Y165885D01*
X651812Y165825D01*
X651890Y165761D01*
X651964Y165695D01*
X652036Y165626D01*
X652105Y165554D01*
X652171Y165480D01*
X652235Y165402D01*
X652295Y165323D01*
X652352Y165241D01*
X652406Y165157D01*
X652456Y165071D01*
X652503Y164983D01*
X652547Y164893D01*
X652587Y164802D01*
X652623Y164709D01*
X652656Y164615D01*
X652685Y164519D01*
X652710Y164423D01*
X652731Y164326D01*
X652749Y164227D01*
X652762Y164129D01*
X652772Y164029D01*
X652778Y163930D01*
X652780Y163830D01*
X652780Y120650D02*
X652778Y120550D01*
X652772Y120451D01*
X652762Y120351D01*
X652749Y120253D01*
X652731Y120154D01*
X652710Y120057D01*
X652685Y119961D01*
X652656Y119865D01*
X652623Y119771D01*
X652587Y119678D01*
X652547Y119587D01*
X652503Y119497D01*
X652456Y119409D01*
X652406Y119323D01*
X652352Y119239D01*
X652295Y119157D01*
X652235Y119078D01*
X652171Y119000D01*
X652105Y118926D01*
X652036Y118854D01*
X651964Y118785D01*
X651890Y118719D01*
X651812Y118655D01*
X651733Y118595D01*
X651651Y118538D01*
X651567Y118484D01*
X651481Y118434D01*
X651393Y118387D01*
X651303Y118343D01*
X651212Y118303D01*
X651119Y118267D01*
X651025Y118234D01*
X650929Y118205D01*
X650833Y118180D01*
X650736Y118159D01*
X650637Y118141D01*
X650539Y118128D01*
X650439Y118118D01*
X650340Y118112D01*
X650240Y118110D01*
X635000Y118110D02*
X634900Y118112D01*
X634801Y118118D01*
X634701Y118128D01*
X634603Y118141D01*
X634504Y118159D01*
X634407Y118180D01*
X634311Y118205D01*
X634215Y118234D01*
X634121Y118267D01*
X634028Y118303D01*
X633937Y118343D01*
X633847Y118387D01*
X633759Y118434D01*
X633673Y118484D01*
X633589Y118538D01*
X633507Y118595D01*
X633428Y118655D01*
X633350Y118719D01*
X633276Y118785D01*
X633204Y118854D01*
X633135Y118926D01*
X633069Y119000D01*
X633005Y119078D01*
X632945Y119157D01*
X632888Y119239D01*
X632834Y119323D01*
X632784Y119409D01*
X632737Y119497D01*
X632693Y119587D01*
X632653Y119678D01*
X632617Y119771D01*
X632584Y119865D01*
X632555Y119961D01*
X632530Y120057D01*
X632509Y120154D01*
X632491Y120253D01*
X632478Y120351D01*
X632468Y120451D01*
X632462Y120550D01*
X632460Y120650D01*
X632460Y163830D02*
X632462Y163930D01*
X632468Y164029D01*
X632478Y164129D01*
X632491Y164227D01*
X632509Y164326D01*
X632530Y164423D01*
X632555Y164519D01*
X632584Y164615D01*
X632617Y164709D01*
X632653Y164802D01*
X632693Y164893D01*
X632737Y164983D01*
X632784Y165071D01*
X632834Y165157D01*
X632888Y165241D01*
X632945Y165323D01*
X633005Y165402D01*
X633069Y165480D01*
X633135Y165554D01*
X633204Y165626D01*
X633276Y165695D01*
X633350Y165761D01*
X633428Y165825D01*
X633507Y165885D01*
X633589Y165942D01*
X633673Y165996D01*
X633759Y166046D01*
X633847Y166093D01*
X633937Y166137D01*
X634028Y166177D01*
X634121Y166213D01*
X634215Y166246D01*
X634311Y166275D01*
X634407Y166300D01*
X634504Y166321D01*
X634603Y166339D01*
X634701Y166352D01*
X634801Y166362D01*
X634900Y166368D01*
X635000Y166370D01*
X650240Y166370D01*
X650240Y118110D02*
X635000Y118110D01*
X652780Y120650D02*
X652780Y163830D01*
D12*
X662305Y111125D02*
X671195Y111125D01*
X662305Y111125D02*
X662205Y111123D01*
X662106Y111117D01*
X662006Y111107D01*
X661908Y111094D01*
X661809Y111076D01*
X661712Y111055D01*
X661616Y111030D01*
X661520Y111001D01*
X661426Y110968D01*
X661333Y110932D01*
X661242Y110892D01*
X661152Y110848D01*
X661064Y110801D01*
X660978Y110751D01*
X660894Y110697D01*
X660812Y110640D01*
X660733Y110580D01*
X660655Y110516D01*
X660581Y110450D01*
X660509Y110381D01*
X660440Y110309D01*
X660374Y110235D01*
X660310Y110157D01*
X660250Y110078D01*
X660193Y109996D01*
X660139Y109912D01*
X660089Y109826D01*
X660042Y109738D01*
X659998Y109648D01*
X659958Y109557D01*
X659922Y109464D01*
X659889Y109370D01*
X659860Y109274D01*
X659835Y109178D01*
X659814Y109081D01*
X659796Y108982D01*
X659783Y108884D01*
X659773Y108784D01*
X659767Y108685D01*
X659765Y108585D01*
X659765Y107315D01*
X659765Y117105D02*
X671195Y117105D01*
X671195Y120280D01*
X671193Y120391D01*
X671187Y120501D01*
X671178Y120612D01*
X671164Y120722D01*
X671147Y120831D01*
X671126Y120940D01*
X671101Y121048D01*
X671072Y121155D01*
X671040Y121261D01*
X671004Y121366D01*
X670964Y121469D01*
X670921Y121571D01*
X670874Y121672D01*
X670823Y121771D01*
X670770Y121868D01*
X670713Y121962D01*
X670652Y122055D01*
X670589Y122146D01*
X670522Y122235D01*
X670452Y122321D01*
X670379Y122404D01*
X670304Y122486D01*
X670226Y122564D01*
X670144Y122639D01*
X670061Y122712D01*
X669975Y122782D01*
X669886Y122849D01*
X669795Y122912D01*
X669702Y122973D01*
X669608Y123030D01*
X669511Y123083D01*
X669412Y123134D01*
X669311Y123181D01*
X669209Y123224D01*
X669106Y123264D01*
X669001Y123300D01*
X668895Y123332D01*
X668788Y123361D01*
X668680Y123386D01*
X668571Y123407D01*
X668462Y123424D01*
X668352Y123438D01*
X668241Y123447D01*
X668131Y123453D01*
X668020Y123455D01*
X667909Y123453D01*
X667799Y123447D01*
X667688Y123438D01*
X667578Y123424D01*
X667469Y123407D01*
X667360Y123386D01*
X667252Y123361D01*
X667145Y123332D01*
X667039Y123300D01*
X666934Y123264D01*
X666831Y123224D01*
X666729Y123181D01*
X666628Y123134D01*
X666529Y123083D01*
X666433Y123030D01*
X666338Y122973D01*
X666245Y122912D01*
X666154Y122849D01*
X666065Y122782D01*
X665979Y122712D01*
X665896Y122639D01*
X665814Y122564D01*
X665736Y122486D01*
X665661Y122404D01*
X665588Y122321D01*
X665518Y122235D01*
X665451Y122146D01*
X665388Y122055D01*
X665327Y121962D01*
X665270Y121867D01*
X665217Y121771D01*
X665166Y121672D01*
X665119Y121571D01*
X665076Y121469D01*
X665036Y121366D01*
X665000Y121261D01*
X664968Y121155D01*
X664939Y121048D01*
X664914Y120940D01*
X664893Y120831D01*
X664876Y120722D01*
X664862Y120612D01*
X664853Y120501D01*
X664847Y120391D01*
X664845Y120280D01*
X664845Y117105D01*
X671196Y131456D02*
X671194Y131560D01*
X671188Y131665D01*
X671179Y131769D01*
X671166Y131872D01*
X671148Y131975D01*
X671128Y132077D01*
X671103Y132179D01*
X671075Y132279D01*
X671043Y132379D01*
X671007Y132477D01*
X670968Y132574D01*
X670926Y132669D01*
X670880Y132763D01*
X670830Y132855D01*
X670778Y132945D01*
X670722Y133033D01*
X670662Y133119D01*
X670600Y133203D01*
X670535Y133284D01*
X670467Y133363D01*
X670395Y133440D01*
X670322Y133513D01*
X670245Y133585D01*
X670166Y133653D01*
X670085Y133718D01*
X670001Y133780D01*
X669915Y133840D01*
X669827Y133896D01*
X669737Y133948D01*
X669645Y133998D01*
X669551Y134044D01*
X669456Y134086D01*
X669359Y134125D01*
X669261Y134161D01*
X669161Y134193D01*
X669061Y134221D01*
X668959Y134246D01*
X668857Y134266D01*
X668754Y134284D01*
X668651Y134297D01*
X668547Y134306D01*
X668442Y134312D01*
X668338Y134314D01*
X671195Y131456D02*
X671193Y131338D01*
X671187Y131219D01*
X671178Y131101D01*
X671165Y130984D01*
X671147Y130867D01*
X671127Y130750D01*
X671102Y130634D01*
X671074Y130519D01*
X671041Y130406D01*
X671006Y130293D01*
X670966Y130181D01*
X670924Y130071D01*
X670877Y129962D01*
X670827Y129854D01*
X670774Y129749D01*
X670717Y129645D01*
X670657Y129543D01*
X670594Y129443D01*
X670527Y129345D01*
X670458Y129249D01*
X670385Y129156D01*
X670309Y129065D01*
X670231Y128976D01*
X670149Y128890D01*
X670065Y128807D01*
X669979Y128726D01*
X669889Y128649D01*
X669798Y128574D01*
X669704Y128502D01*
X669607Y128433D01*
X669509Y128368D01*
X669408Y128305D01*
X669305Y128246D01*
X669201Y128190D01*
X669095Y128138D01*
X668987Y128089D01*
X668878Y128044D01*
X668767Y128002D01*
X668655Y127964D01*
X666116Y133362D02*
X666191Y133438D01*
X666270Y133513D01*
X666351Y133584D01*
X666435Y133653D01*
X666521Y133718D01*
X666609Y133780D01*
X666699Y133840D01*
X666791Y133896D01*
X666886Y133949D01*
X666982Y133998D01*
X667080Y134044D01*
X667179Y134087D01*
X667280Y134126D01*
X667382Y134161D01*
X667485Y134193D01*
X667589Y134221D01*
X667694Y134246D01*
X667801Y134267D01*
X667907Y134284D01*
X668014Y134297D01*
X668122Y134306D01*
X668230Y134312D01*
X668338Y134314D01*
X666115Y133361D02*
X659765Y127964D01*
X659765Y134314D01*
D11*
X689610Y116840D02*
X717550Y116840D01*
X689610Y137160D02*
X689510Y137158D01*
X689411Y137152D01*
X689311Y137142D01*
X689213Y137129D01*
X689114Y137111D01*
X689017Y137090D01*
X688921Y137065D01*
X688825Y137036D01*
X688731Y137003D01*
X688638Y136967D01*
X688547Y136927D01*
X688457Y136883D01*
X688369Y136836D01*
X688283Y136786D01*
X688199Y136732D01*
X688117Y136675D01*
X688038Y136615D01*
X687960Y136551D01*
X687886Y136485D01*
X687814Y136416D01*
X687745Y136344D01*
X687679Y136270D01*
X687615Y136192D01*
X687555Y136113D01*
X687498Y136031D01*
X687444Y135947D01*
X687394Y135861D01*
X687347Y135773D01*
X687303Y135683D01*
X687263Y135592D01*
X687227Y135499D01*
X687194Y135405D01*
X687165Y135309D01*
X687140Y135213D01*
X687119Y135116D01*
X687101Y135017D01*
X687088Y134919D01*
X687078Y134819D01*
X687072Y134720D01*
X687070Y134620D01*
X717550Y137160D02*
X717650Y137158D01*
X717749Y137152D01*
X717849Y137142D01*
X717947Y137129D01*
X718046Y137111D01*
X718143Y137090D01*
X718239Y137065D01*
X718335Y137036D01*
X718429Y137003D01*
X718522Y136967D01*
X718613Y136927D01*
X718703Y136883D01*
X718791Y136836D01*
X718877Y136786D01*
X718961Y136732D01*
X719043Y136675D01*
X719122Y136615D01*
X719200Y136551D01*
X719274Y136485D01*
X719346Y136416D01*
X719415Y136344D01*
X719481Y136270D01*
X719545Y136192D01*
X719605Y136113D01*
X719662Y136031D01*
X719716Y135947D01*
X719766Y135861D01*
X719813Y135773D01*
X719857Y135683D01*
X719897Y135592D01*
X719933Y135499D01*
X719966Y135405D01*
X719995Y135309D01*
X720020Y135213D01*
X720041Y135116D01*
X720059Y135017D01*
X720072Y134919D01*
X720082Y134819D01*
X720088Y134720D01*
X720090Y134620D01*
X720090Y119380D02*
X720088Y119280D01*
X720082Y119181D01*
X720072Y119081D01*
X720059Y118983D01*
X720041Y118884D01*
X720020Y118787D01*
X719995Y118691D01*
X719966Y118595D01*
X719933Y118501D01*
X719897Y118408D01*
X719857Y118317D01*
X719813Y118227D01*
X719766Y118139D01*
X719716Y118053D01*
X719662Y117969D01*
X719605Y117887D01*
X719545Y117808D01*
X719481Y117730D01*
X719415Y117656D01*
X719346Y117584D01*
X719274Y117515D01*
X719200Y117449D01*
X719122Y117385D01*
X719043Y117325D01*
X718961Y117268D01*
X718877Y117214D01*
X718791Y117164D01*
X718703Y117117D01*
X718613Y117073D01*
X718522Y117033D01*
X718429Y116997D01*
X718335Y116964D01*
X718239Y116935D01*
X718143Y116910D01*
X718046Y116889D01*
X717947Y116871D01*
X717849Y116858D01*
X717749Y116848D01*
X717650Y116842D01*
X717550Y116840D01*
X689610Y116840D02*
X689510Y116842D01*
X689411Y116848D01*
X689311Y116858D01*
X689213Y116871D01*
X689114Y116889D01*
X689017Y116910D01*
X688921Y116935D01*
X688825Y116964D01*
X688731Y116997D01*
X688638Y117033D01*
X688547Y117073D01*
X688457Y117117D01*
X688369Y117164D01*
X688283Y117214D01*
X688199Y117268D01*
X688117Y117325D01*
X688038Y117385D01*
X687960Y117449D01*
X687886Y117515D01*
X687814Y117584D01*
X687745Y117656D01*
X687679Y117730D01*
X687615Y117808D01*
X687555Y117887D01*
X687498Y117969D01*
X687444Y118053D01*
X687394Y118139D01*
X687347Y118227D01*
X687303Y118317D01*
X687263Y118408D01*
X687227Y118501D01*
X687194Y118595D01*
X687165Y118691D01*
X687140Y118787D01*
X687119Y118884D01*
X687101Y118983D01*
X687088Y119081D01*
X687078Y119181D01*
X687072Y119280D01*
X687070Y119380D01*
X687070Y134620D01*
X720090Y134620D02*
X720090Y119380D01*
X717550Y137160D02*
X689610Y137160D01*
D12*
X713105Y141605D02*
X713107Y141505D01*
X713113Y141406D01*
X713123Y141306D01*
X713136Y141208D01*
X713154Y141109D01*
X713175Y141012D01*
X713200Y140916D01*
X713229Y140820D01*
X713262Y140726D01*
X713298Y140633D01*
X713338Y140542D01*
X713382Y140452D01*
X713429Y140364D01*
X713479Y140278D01*
X713533Y140194D01*
X713590Y140112D01*
X713650Y140033D01*
X713714Y139955D01*
X713780Y139881D01*
X713849Y139809D01*
X713921Y139740D01*
X713995Y139674D01*
X714073Y139610D01*
X714152Y139550D01*
X714234Y139493D01*
X714318Y139439D01*
X714404Y139389D01*
X714492Y139342D01*
X714582Y139298D01*
X714673Y139258D01*
X714766Y139222D01*
X714860Y139189D01*
X714956Y139160D01*
X715052Y139135D01*
X715149Y139114D01*
X715248Y139096D01*
X715346Y139083D01*
X715446Y139073D01*
X715545Y139067D01*
X715645Y139065D01*
X715786Y139067D01*
X715927Y139072D01*
X716068Y139082D01*
X716209Y139095D01*
X716349Y139111D01*
X716489Y139132D01*
X716628Y139156D01*
X716767Y139184D01*
X716904Y139215D01*
X717041Y139250D01*
X717177Y139288D01*
X717312Y139330D01*
X717445Y139376D01*
X717578Y139425D01*
X717709Y139478D01*
X717838Y139534D01*
X717967Y139593D01*
X718093Y139656D01*
X718218Y139722D01*
X718341Y139791D01*
X718462Y139864D01*
X718581Y139940D01*
X718699Y140019D01*
X718814Y140100D01*
X718926Y140185D01*
X719037Y140273D01*
X719145Y140364D01*
X719251Y140457D01*
X719354Y140554D01*
X719455Y140653D01*
X719138Y147955D02*
X719136Y148055D01*
X719130Y148154D01*
X719120Y148254D01*
X719107Y148352D01*
X719089Y148451D01*
X719068Y148548D01*
X719043Y148644D01*
X719014Y148740D01*
X718981Y148834D01*
X718945Y148927D01*
X718905Y149018D01*
X718861Y149108D01*
X718814Y149196D01*
X718764Y149282D01*
X718710Y149366D01*
X718653Y149448D01*
X718593Y149527D01*
X718529Y149605D01*
X718463Y149679D01*
X718394Y149751D01*
X718322Y149820D01*
X718248Y149886D01*
X718170Y149950D01*
X718091Y150010D01*
X718009Y150067D01*
X717925Y150121D01*
X717839Y150171D01*
X717751Y150218D01*
X717661Y150262D01*
X717570Y150302D01*
X717477Y150338D01*
X717383Y150371D01*
X717287Y150400D01*
X717191Y150425D01*
X717094Y150446D01*
X716995Y150464D01*
X716897Y150477D01*
X716797Y150487D01*
X716698Y150493D01*
X716598Y150495D01*
X716598Y150496D02*
X716465Y150494D01*
X716332Y150489D01*
X716199Y150479D01*
X716066Y150466D01*
X715934Y150449D01*
X715802Y150429D01*
X715671Y150405D01*
X715541Y150377D01*
X715411Y150346D01*
X715283Y150311D01*
X715155Y150272D01*
X715029Y150230D01*
X714904Y150184D01*
X714780Y150135D01*
X714657Y150083D01*
X714536Y150027D01*
X714417Y149967D01*
X714299Y149905D01*
X714184Y149839D01*
X714070Y149770D01*
X713958Y149697D01*
X713848Y149622D01*
X713740Y149543D01*
X717868Y145732D02*
X717952Y145784D01*
X718035Y145839D01*
X718115Y145898D01*
X718193Y145959D01*
X718268Y146023D01*
X718341Y146091D01*
X718412Y146161D01*
X718479Y146233D01*
X718544Y146308D01*
X718606Y146386D01*
X718665Y146466D01*
X718721Y146548D01*
X718773Y146632D01*
X718822Y146718D01*
X718868Y146806D01*
X718911Y146896D01*
X718950Y146987D01*
X718985Y147080D01*
X719017Y147174D01*
X719045Y147269D01*
X719070Y147365D01*
X719090Y147462D01*
X719108Y147560D01*
X719121Y147658D01*
X719130Y147757D01*
X719136Y147856D01*
X719138Y147955D01*
X714375Y143828D02*
X714291Y143776D01*
X714208Y143721D01*
X714128Y143662D01*
X714050Y143601D01*
X713975Y143537D01*
X713902Y143469D01*
X713831Y143399D01*
X713764Y143327D01*
X713699Y143252D01*
X713637Y143174D01*
X713578Y143094D01*
X713522Y143012D01*
X713470Y142928D01*
X713421Y142842D01*
X713375Y142754D01*
X713332Y142664D01*
X713293Y142573D01*
X713258Y142480D01*
X713226Y142386D01*
X713198Y142291D01*
X713173Y142195D01*
X713153Y142098D01*
X713135Y142000D01*
X713122Y141902D01*
X713113Y141803D01*
X713107Y141704D01*
X713105Y141605D01*
X714375Y143828D02*
X717868Y145733D01*
X705814Y141605D02*
X705814Y150495D01*
X705814Y141605D02*
X705816Y141505D01*
X705822Y141406D01*
X705832Y141306D01*
X705845Y141208D01*
X705863Y141109D01*
X705884Y141012D01*
X705909Y140916D01*
X705938Y140820D01*
X705971Y140726D01*
X706007Y140633D01*
X706047Y140542D01*
X706091Y140452D01*
X706138Y140364D01*
X706188Y140278D01*
X706242Y140194D01*
X706299Y140112D01*
X706359Y140033D01*
X706423Y139955D01*
X706489Y139881D01*
X706558Y139809D01*
X706630Y139740D01*
X706704Y139674D01*
X706782Y139610D01*
X706861Y139550D01*
X706943Y139493D01*
X707027Y139439D01*
X707113Y139389D01*
X707201Y139342D01*
X707291Y139298D01*
X707382Y139258D01*
X707475Y139222D01*
X707569Y139189D01*
X707665Y139160D01*
X707761Y139135D01*
X707858Y139114D01*
X707957Y139096D01*
X708055Y139083D01*
X708155Y139073D01*
X708254Y139067D01*
X708354Y139065D01*
X709624Y139065D01*
X700405Y147955D02*
X697230Y150495D01*
X697230Y139065D01*
X700405Y139065D02*
X694055Y139065D01*
M02*
