G04 EAGLE Gerber RS-274X export*
G75*
%MOMM*%
%FSLAX34Y34*%
%LPD*%
%INSoldermask Top*%
%IPPOS*%
%AMOC8*
5,1,8,0,0,1.08239X$1,22.5*%
G01*
%ADD10P,1.852186X8X112.500000*%
%ADD11R,0.532569X0.903509*%
%ADD12R,0.531500X0.902950*%
%ADD13R,0.534219X0.912209*%
%ADD14R,0.529544X0.910841*%
%ADD15R,0.527481X0.905869*%
%ADD16R,0.530262X0.902131*%
%ADD17R,0.527909X0.907900*%
%ADD18R,0.526250X0.905750*%
%ADD19R,1.908319X0.691791*%
%ADD20R,0.873200X1.153200*%
%ADD21R,1.553200X2.203200*%
%ADD22R,2.743200X1.473200*%
%ADD23P,1.852186X8X22.500000*%
%ADD24C,1.727200*%
%ADD25C,3.505200*%
%ADD26P,1.649562X8X292.500000*%
%ADD27C,1.711200*%
%ADD28C,1.411200*%
%ADD29C,4.303200*%
%ADD30R,1.676400X0.558800*%
%ADD31P,1.649562X8X202.500000*%
%ADD32P,1.649562X8X22.500000*%
%ADD33P,3.656530X8X22.500000*%
%ADD34C,2.603200*%
%ADD35C,0.959600*%


D10*
X142240Y220980D03*
X167640Y220980D03*
X142240Y246380D03*
X167640Y246380D03*
X142240Y271780D03*
X167640Y271780D03*
X142240Y297180D03*
X167640Y297180D03*
X142240Y322580D03*
X167640Y322580D03*
X142240Y347980D03*
X167640Y347980D03*
X142240Y373380D03*
X167640Y373380D03*
X142240Y398780D03*
X167640Y398780D03*
X142240Y424180D03*
X167640Y424180D03*
X142240Y449580D03*
X167640Y449580D03*
X142240Y474980D03*
X167640Y474980D03*
X142240Y500380D03*
X167640Y500380D03*
X142240Y525780D03*
X167640Y525780D03*
X142240Y551180D03*
X167640Y551180D03*
X142240Y576580D03*
X167640Y576580D03*
X142240Y601980D03*
X167640Y601980D03*
X142240Y627380D03*
X167640Y627380D03*
X142240Y652780D03*
X167640Y652780D03*
X142240Y678180D03*
X167640Y678180D03*
X142240Y703580D03*
X167640Y703580D03*
X142240Y728980D03*
X167640Y728980D03*
X838200Y220980D03*
X863600Y220980D03*
X838200Y246380D03*
X863600Y246380D03*
X838200Y271780D03*
X863600Y271780D03*
X838200Y297180D03*
X863600Y297180D03*
X838200Y322580D03*
X863600Y322580D03*
X838200Y347980D03*
X863600Y347980D03*
X838200Y373380D03*
X863600Y373380D03*
X838200Y398780D03*
X863600Y398780D03*
X838200Y424180D03*
X863600Y424180D03*
X838200Y449580D03*
X863600Y449580D03*
X838200Y474980D03*
X863600Y474980D03*
X838200Y500380D03*
X863600Y500380D03*
X838200Y525780D03*
X863600Y525780D03*
X838200Y551180D03*
X863600Y551180D03*
X838200Y576580D03*
X863600Y576580D03*
X838200Y601980D03*
X863600Y601980D03*
X838200Y627380D03*
X863600Y627380D03*
X838200Y652780D03*
X863600Y652780D03*
X838200Y678180D03*
X863600Y678180D03*
X838200Y703580D03*
X863600Y703580D03*
X838200Y728980D03*
X863600Y728980D03*
D11*
X520393Y909378D03*
D12*
X505788Y909375D03*
D13*
X495001Y909421D03*
D14*
X469578Y909414D03*
D15*
X444167Y909389D03*
D16*
X480381Y909371D03*
D17*
X454970Y909400D03*
D18*
X429561Y909389D03*
D19*
X531422Y779819D03*
D20*
X424680Y782110D03*
X435680Y782110D03*
X446680Y782110D03*
X457680Y782110D03*
X468680Y782110D03*
X479680Y782110D03*
X490680Y782110D03*
X501680Y782110D03*
X512680Y782110D03*
D21*
X536730Y821160D03*
X413230Y821160D03*
X536730Y897360D03*
X413230Y897360D03*
D22*
X551180Y820420D03*
X551180Y896620D03*
X398780Y820420D03*
X398780Y896620D03*
D23*
X190500Y63500D03*
X215900Y63500D03*
X241300Y63500D03*
X266700Y63500D03*
X292100Y63500D03*
X317500Y63500D03*
X342900Y63500D03*
X368300Y63500D03*
X393700Y63500D03*
X419100Y63500D03*
X444500Y63500D03*
X469900Y63500D03*
X495300Y63500D03*
X520700Y63500D03*
X546100Y63500D03*
X571500Y63500D03*
X596900Y63500D03*
X622300Y63500D03*
X647700Y63500D03*
X673100Y63500D03*
X698500Y63500D03*
X723900Y63500D03*
X749300Y63500D03*
X774700Y63500D03*
X800100Y63500D03*
X825500Y63500D03*
X190500Y-139700D03*
X215900Y-139700D03*
X241300Y-139700D03*
X266700Y-139700D03*
X292100Y-139700D03*
X317500Y-139700D03*
X342900Y-139700D03*
X368300Y-139700D03*
X393700Y-139700D03*
X419100Y-139700D03*
X444500Y-139700D03*
X469900Y-139700D03*
X495300Y-139700D03*
X520700Y-139700D03*
X546100Y-139700D03*
X571500Y-139700D03*
X596900Y-139700D03*
X622300Y-139700D03*
X647700Y-139700D03*
X673100Y-139700D03*
X698500Y-139700D03*
X723900Y-139700D03*
X749300Y-139700D03*
X774700Y-139700D03*
X800100Y-139700D03*
X825500Y-139700D03*
D24*
X292100Y505460D02*
X292100Y520700D01*
X317500Y520700D02*
X317500Y505460D01*
X342900Y505460D02*
X342900Y520700D01*
D25*
X317500Y662940D03*
D26*
X317500Y474980D03*
X317500Y424180D03*
X411480Y543560D03*
X411480Y492760D03*
D27*
X755320Y878310D02*
X755320Y893390D01*
X682320Y893390D02*
X682320Y878310D01*
D28*
X710820Y847350D03*
X718820Y835350D03*
X734820Y835350D03*
X702820Y835350D03*
X726820Y847350D03*
D29*
X50800Y-165100D03*
X952500Y863600D03*
X952500Y-165100D03*
X50800Y863600D03*
D30*
X397510Y215900D03*
X397510Y222504D03*
X397510Y229108D03*
X397510Y235458D03*
X397510Y242062D03*
X397510Y248412D03*
X397510Y255016D03*
X397510Y261620D03*
X339090Y261620D03*
X339090Y255016D03*
X339090Y248412D03*
X339090Y242062D03*
X339090Y235458D03*
X339090Y229108D03*
X339090Y222504D03*
X339090Y215900D03*
D26*
X728980Y782320D03*
X728980Y731520D03*
D31*
X292100Y238760D03*
X241300Y238760D03*
X292100Y149860D03*
X241300Y149860D03*
X317500Y302260D03*
X241300Y302260D03*
D32*
X444500Y137160D03*
X520700Y137160D03*
X444500Y187960D03*
X520700Y187960D03*
X444500Y238760D03*
X520700Y238760D03*
X444500Y289560D03*
X520700Y289560D03*
D33*
X165100Y896620D03*
X246380Y896620D03*
D26*
X208280Y855980D03*
X208280Y805180D03*
D30*
X651510Y480060D03*
X651510Y486664D03*
X651510Y493268D03*
X651510Y499618D03*
X651510Y506222D03*
X651510Y512572D03*
X651510Y519176D03*
X651510Y525780D03*
X593090Y525780D03*
X593090Y519176D03*
X593090Y512572D03*
X593090Y506222D03*
X593090Y499618D03*
X593090Y493268D03*
X593090Y486664D03*
X593090Y480060D03*
D31*
X553720Y528320D03*
X502920Y528320D03*
X553720Y477520D03*
X502920Y477520D03*
D32*
X571500Y617220D03*
X647700Y617220D03*
D26*
X642620Y264160D03*
X642620Y187960D03*
D32*
X693420Y439420D03*
X769620Y439420D03*
X693420Y490220D03*
X769620Y490220D03*
X693420Y541020D03*
X769620Y541020D03*
X693420Y591820D03*
X769620Y591820D03*
X571500Y566420D03*
X647700Y566420D03*
D34*
X63500Y251460D03*
X911860Y-40640D03*
D31*
X317500Y350520D03*
X241300Y350520D03*
D34*
X73660Y-38100D03*
X962660Y734060D03*
D35*
X398780Y858520D03*
X551180Y855980D03*
X436880Y767080D03*
X255524Y609092D03*
X668020Y493776D03*
X378968Y242824D03*
X179832Y433832D03*
X361696Y249936D03*
X375920Y264160D03*
X657352Y147320D03*
X641096Y454152D03*
X375920Y188976D03*
X635000Y30480D03*
X626872Y476504D03*
X633984Y426720D03*
M02*
