G04 EAGLE Gerber RS-274X export*
G75*
%MOMM*%
%FSLAX34Y34*%
%LPD*%
%INTop Copper*%
%IPPOS*%
%AMOC8*
5,1,8,0,0,1.08239X$1,22.5*%
G01*
%ADD10P,1.732040X8X292.500000*%
%ADD11C,1.524000*%
%ADD12P,1.649562X8X202.500000*%
%ADD13C,1.508000*%
%ADD14C,1.208000*%
%ADD15P,1.429621X8X202.500000*%
%ADD16C,2.400000*%
%ADD17P,1.632244X8X22.500000*%
%ADD18C,0.457200*%
%ADD19C,0.152400*%
%ADD20C,0.756400*%


D10*
X336550Y406400D03*
X336550Y381000D03*
X336550Y508000D03*
X336550Y482600D03*
D11*
X204470Y425450D02*
X189230Y425450D01*
X189230Y450850D02*
X204470Y450850D01*
X204470Y476250D02*
X189230Y476250D01*
D12*
X622300Y622300D03*
X622300Y647700D03*
X596900Y622300D03*
X596900Y647700D03*
X571500Y622300D03*
X571500Y647700D03*
X546100Y622300D03*
X546100Y647700D03*
X520700Y622300D03*
X520700Y647700D03*
X495300Y622300D03*
X495300Y647700D03*
X469900Y622300D03*
X469900Y647700D03*
X444500Y622300D03*
X444500Y647700D03*
X419100Y622300D03*
X419100Y647700D03*
X393700Y622300D03*
X393700Y647700D03*
X368300Y622300D03*
X368300Y647700D03*
X342900Y622300D03*
X342900Y647700D03*
X317500Y622300D03*
X317500Y647700D03*
X292100Y622300D03*
X292100Y647700D03*
X266700Y622300D03*
X266700Y647700D03*
X241300Y622300D03*
X241300Y647700D03*
X215900Y622300D03*
X215900Y647700D03*
X190500Y622300D03*
X190500Y647700D03*
X165100Y622300D03*
X165100Y647700D03*
X139700Y622300D03*
X139700Y647700D03*
D13*
X713210Y414350D02*
X728290Y414350D01*
X728290Y487350D02*
X713210Y487350D01*
D14*
X682250Y458850D03*
X670250Y450850D03*
X670250Y434850D03*
X670250Y466850D03*
X682250Y442850D03*
D15*
X527050Y393700D03*
X450850Y393700D03*
X527050Y495300D03*
X450850Y495300D03*
D16*
X147320Y-73660D03*
X596900Y-73660D03*
X38100Y543560D03*
X723900Y551180D03*
X723900Y317500D03*
D17*
X139700Y228600D03*
X165100Y228600D03*
X190500Y228600D03*
X215900Y228600D03*
X241300Y228600D03*
X266700Y228600D03*
X292100Y228600D03*
X317500Y228600D03*
X342900Y228600D03*
X368300Y228600D03*
X393700Y228600D03*
X419100Y228600D03*
X444500Y228600D03*
X469900Y228600D03*
X495300Y228600D03*
X520700Y228600D03*
X546100Y228600D03*
X571500Y228600D03*
X596900Y228600D03*
X622300Y228600D03*
X647700Y228600D03*
X139700Y0D03*
X165100Y0D03*
X190500Y0D03*
X215900Y0D03*
X241300Y0D03*
X266700Y0D03*
X292100Y0D03*
X317500Y0D03*
X342900Y0D03*
X368300Y0D03*
X393700Y0D03*
X419100Y0D03*
X444500Y0D03*
X469900Y0D03*
X495300Y0D03*
X520700Y0D03*
X546100Y0D03*
X571500Y0D03*
X596900Y0D03*
X622300Y0D03*
X647700Y0D03*
D18*
X323850Y476250D02*
X196850Y476250D01*
X323850Y476250D02*
X323850Y495300D01*
X336550Y508000D01*
X641350Y463550D02*
X666750Y438150D01*
X641350Y463550D02*
X641350Y628650D01*
X622300Y647700D01*
X666750Y438150D02*
X670250Y434850D01*
X177800Y38100D02*
X139700Y0D01*
X177800Y38100D02*
X177800Y431800D01*
X196850Y450850D01*
X323850Y419100D02*
X336550Y406400D01*
X323850Y419100D02*
X323850Y444500D01*
X317500Y450850D01*
X196850Y450850D01*
X450850Y495300D02*
X450850Y393700D01*
X457200Y165100D02*
X622300Y0D01*
X457200Y165100D02*
X457200Y387350D01*
X450850Y393700D01*
D19*
X412750Y234950D02*
X419100Y228600D01*
X412750Y234950D02*
X412750Y400050D01*
X387350Y425450D01*
X387350Y546100D01*
X323850Y609600D01*
D20*
X323850Y609600D03*
D19*
X463550Y234950D02*
X469900Y228600D01*
X463550Y234950D02*
X463550Y533400D01*
X431800Y565150D01*
D20*
X431800Y565150D03*
D19*
X444500Y25400D02*
X469900Y0D01*
X444500Y25400D02*
X444500Y184150D01*
X406400Y222250D01*
X406400Y336550D01*
X438150Y368300D02*
X438150Y387350D01*
X406400Y419100D01*
X406400Y590550D01*
X381000Y615950D01*
X381000Y635000D01*
X368300Y647700D01*
D20*
X406400Y336550D03*
X438150Y368300D03*
D19*
X438150Y6350D02*
X444500Y0D01*
X438150Y6350D02*
X438150Y165100D01*
X381000Y222250D01*
X381000Y539750D01*
X393700Y552450D02*
X355600Y590550D01*
X355600Y635000D01*
X342900Y647700D01*
D20*
X381000Y539750D03*
X393700Y552450D03*
D19*
X501650Y609600D02*
X501650Y360680D01*
D20*
X501650Y609600D03*
D19*
X501650Y360680D02*
X528320Y334010D01*
X528320Y330200D01*
D20*
X528320Y330200D03*
D19*
X571500Y349250D02*
X527050Y393700D01*
X508000Y654050D02*
X501650Y660400D01*
X508000Y654050D02*
X508000Y412750D01*
X527050Y393700D01*
D20*
X501650Y660400D03*
D19*
X571500Y349250D02*
X571500Y342900D01*
D20*
X571500Y342900D03*
D19*
X123190Y666750D02*
X111760Y655320D01*
X111760Y563880D01*
D20*
X111760Y563880D03*
D19*
X123190Y666750D02*
X213360Y666750D01*
X222250Y666750D02*
X241300Y647700D01*
X222250Y666750D02*
X213360Y666750D01*
X444500Y387350D02*
X444500Y228600D01*
X444500Y387350D02*
X425450Y406400D01*
X425450Y584200D01*
X406400Y603250D01*
X406400Y654050D01*
X400050Y660400D01*
X304800Y660400D01*
X304800Y641350D01*
X298450Y635000D01*
X284480Y635000D01*
X279400Y629920D02*
X279400Y615950D01*
X273050Y609600D01*
X228600Y614680D02*
X228600Y628650D01*
X222250Y635000D01*
X195580Y635000D01*
X228600Y614680D02*
X233680Y609600D01*
X273050Y609600D01*
X279400Y629920D02*
X284480Y635000D01*
X190500Y640080D02*
X190500Y647700D01*
X190500Y640080D02*
X195580Y635000D01*
X450850Y44450D02*
X495300Y0D01*
X450850Y44450D02*
X450850Y203200D01*
X431800Y222250D01*
X431800Y387350D01*
X400050Y419100D01*
X400050Y590550D01*
X368300Y622300D01*
X361950Y255270D02*
X368300Y248920D01*
X361950Y255270D02*
X361950Y558800D01*
X317500Y603250D01*
X317500Y622300D01*
D20*
X368300Y248920D03*
D19*
X469900Y247650D02*
X476250Y241300D01*
X469900Y247650D02*
X469900Y577850D01*
X431800Y615950D01*
X431800Y654050D01*
X419100Y666750D01*
X279400Y662940D02*
X279400Y641350D01*
X266700Y628650D01*
X266700Y622300D01*
D20*
X476250Y241300D03*
D19*
X279400Y662940D02*
X283210Y666750D01*
X419100Y666750D01*
X527050Y495300D02*
X527050Y406400D01*
X596900Y336550D01*
X527050Y590550D02*
X514350Y603250D01*
X527050Y590550D02*
X527050Y495300D01*
D20*
X514350Y603250D03*
D19*
X596900Y336550D02*
X596900Y330200D01*
D20*
X596900Y330200D03*
D19*
X279400Y38100D02*
X241300Y0D01*
X279400Y38100D02*
X279400Y419100D01*
X298450Y438150D01*
X317500Y438150D01*
X317500Y406400D01*
X330200Y393700D01*
X349250Y393700D01*
X349250Y431800D01*
X317500Y463550D01*
X177800Y463550D01*
X177800Y584200D01*
X215900Y622300D01*
X127000Y565150D02*
X127000Y563880D01*
X127000Y565150D02*
X177800Y615950D01*
X177800Y654050D01*
X184150Y660400D01*
D20*
X127000Y563880D03*
D19*
X215900Y647700D02*
X203200Y660400D01*
X184150Y660400D01*
X488950Y215900D02*
X609600Y215900D01*
X609600Y590550D01*
X584200Y615950D01*
X584200Y654050D01*
X577850Y660400D01*
X566420Y660400D01*
X558800Y652780D02*
X558800Y641350D01*
X552450Y635000D01*
X533400Y635000D01*
D20*
X488950Y215900D03*
D19*
X558800Y652780D02*
X566420Y660400D01*
X533400Y635000D02*
X520700Y647700D01*
X539750Y450850D02*
X533400Y444500D01*
X539750Y450850D02*
X539750Y603250D01*
X520700Y622300D01*
D20*
X533400Y444500D03*
D19*
X482600Y222250D02*
X469900Y209550D01*
X482600Y222250D02*
X482600Y654050D01*
X495300Y666750D01*
X546100Y662940D02*
X546100Y647700D01*
D20*
X469900Y209550D03*
D19*
X546100Y662940D02*
X542290Y666750D01*
X495300Y666750D01*
X546100Y444500D02*
X533400Y431800D01*
X546100Y444500D02*
X546100Y622300D01*
D20*
X533400Y431800D03*
D19*
X561340Y383540D02*
X561340Y637540D01*
X571500Y647700D01*
D20*
X561340Y383540D03*
D19*
X570230Y417830D02*
X571500Y419100D01*
X571500Y622300D01*
D20*
X570230Y417830D03*
D19*
X349250Y222250D02*
X342900Y228600D01*
X349250Y222250D02*
X349250Y38100D01*
X355600Y31750D01*
X386080Y12700D02*
X426720Y12700D01*
X431800Y7620D02*
X431800Y-8890D01*
X440690Y-17780D01*
X622300Y-17780D01*
X635000Y-5080D02*
X635000Y590550D01*
X609600Y615950D01*
X609600Y635000D01*
X596900Y647700D01*
X374015Y-12065D02*
X363220Y-12065D01*
X374015Y-12065D02*
X381000Y-5080D01*
X622300Y-17780D02*
X635000Y-5080D01*
X363220Y-12065D02*
X355600Y-4445D01*
X355600Y31750D01*
X426720Y12700D02*
X431800Y7620D01*
X386080Y12700D02*
X381000Y7620D01*
X381000Y-5080D01*
X368300Y228600D02*
X374650Y234950D01*
X374650Y495300D01*
D20*
X374650Y495300D03*
D19*
X488950Y234950D02*
X495300Y228600D01*
X488950Y234950D02*
X488950Y609600D01*
D20*
X488950Y609600D03*
D19*
X304800Y38100D02*
X342900Y0D01*
X304800Y38100D02*
X304800Y431800D01*
X304800Y488950D02*
X292100Y501650D01*
X292100Y622300D01*
D20*
X304800Y431800D03*
X304800Y488950D03*
D19*
X368300Y27940D02*
X368300Y0D01*
X368300Y27940D02*
X355600Y40640D01*
X355600Y558800D01*
X304800Y609600D01*
X304800Y628650D01*
D20*
X304800Y628650D03*
M02*
