G04 EAGLE Gerber RS-274X export*
G75*
%MOMM*%
%FSLAX34Y34*%
%LPD*%
%IN*%
%IPPOS*%
%AMOC8*
5,1,8,0,0,1.08239X$1,22.5*%
G01*
%ADD10C,0.254000*%


D10*
X0Y-101600D02*
X761800Y-101600D01*
X761800Y682500D01*
X0Y682500D01*
X0Y-101600D01*
X710750Y487350D02*
X710678Y486998D01*
X710637Y486640D01*
X710627Y486281D01*
X710649Y485922D01*
X710702Y485566D01*
X710786Y485216D01*
X710900Y484875D01*
X711043Y484545D01*
X711214Y484229D01*
X711413Y483929D01*
X711637Y483647D01*
X711884Y483386D01*
X712153Y483147D01*
X712442Y482933D01*
X712749Y482745D01*
X713071Y482584D01*
X713405Y482452D01*
X713750Y482350D01*
X725750Y482350D01*
X726186Y482369D01*
X726618Y482426D01*
X727044Y482520D01*
X727460Y482652D01*
X727863Y482818D01*
X728250Y483020D01*
X728618Y483254D01*
X728964Y483520D01*
X729286Y483814D01*
X729580Y484136D01*
X729846Y484482D01*
X730080Y484850D01*
X730282Y485237D01*
X730448Y485640D01*
X730580Y486056D01*
X730674Y486482D01*
X730731Y486914D01*
X730750Y487350D01*
X730731Y487786D01*
X730674Y488218D01*
X730580Y488644D01*
X730448Y489060D01*
X730282Y489463D01*
X730080Y489850D01*
X729846Y490218D01*
X729580Y490564D01*
X729286Y490886D01*
X728964Y491180D01*
X728618Y491446D01*
X728250Y491680D01*
X727863Y491882D01*
X727460Y492048D01*
X727044Y492180D01*
X726618Y492274D01*
X726186Y492331D01*
X725750Y492350D01*
X715750Y492350D01*
X715314Y492331D01*
X714882Y492274D01*
X714456Y492180D01*
X714040Y492048D01*
X713637Y491882D01*
X713250Y491680D01*
X712882Y491446D01*
X712536Y491180D01*
X712214Y490886D01*
X711920Y490564D01*
X711654Y490218D01*
X711420Y489850D01*
X711218Y489463D01*
X711052Y489060D01*
X710920Y488644D01*
X710826Y488218D01*
X710769Y487786D01*
X710750Y487350D01*
X710750Y414350D02*
X710769Y413914D01*
X710826Y413482D01*
X710920Y413056D01*
X711052Y412640D01*
X711218Y412237D01*
X711420Y411850D01*
X711654Y411482D01*
X711920Y411136D01*
X712214Y410814D01*
X712536Y410520D01*
X712882Y410254D01*
X713250Y410020D01*
X713637Y409818D01*
X714040Y409652D01*
X714456Y409520D01*
X714882Y409426D01*
X715314Y409369D01*
X715750Y409350D01*
X725750Y409350D01*
X726186Y409369D01*
X726618Y409426D01*
X727044Y409520D01*
X727460Y409652D01*
X727863Y409818D01*
X728250Y410020D01*
X728618Y410254D01*
X728964Y410520D01*
X729286Y410814D01*
X729580Y411136D01*
X729846Y411482D01*
X730080Y411850D01*
X730282Y412237D01*
X730448Y412640D01*
X730580Y413056D01*
X730674Y413482D01*
X730731Y413914D01*
X730750Y414350D01*
X730731Y414786D01*
X730674Y415218D01*
X730580Y415644D01*
X730448Y416060D01*
X730282Y416463D01*
X730080Y416850D01*
X729846Y417218D01*
X729580Y417564D01*
X729286Y417886D01*
X728964Y418180D01*
X728618Y418446D01*
X728250Y418680D01*
X727863Y418882D01*
X727460Y419048D01*
X727044Y419180D01*
X726618Y419274D01*
X726186Y419331D01*
X725750Y419350D01*
X715750Y419350D01*
X715314Y419331D01*
X714882Y419274D01*
X714456Y419180D01*
X714040Y419048D01*
X713637Y418882D01*
X713250Y418680D01*
X712882Y418446D01*
X712536Y418180D01*
X712214Y417886D01*
X711920Y417564D01*
X711654Y417218D01*
X711420Y416850D01*
X711218Y416463D01*
X711052Y416060D01*
X710920Y415644D01*
X710826Y415218D01*
X710769Y414786D01*
X710750Y414350D01*
X47530Y467360D02*
X48609Y467289D01*
X49681Y467148D01*
X50741Y466937D01*
X51785Y466658D01*
X52809Y466310D01*
X53807Y465896D01*
X54777Y465418D01*
X55713Y464878D01*
X56612Y464277D01*
X57469Y463619D01*
X58282Y462907D01*
X59047Y462142D01*
X59759Y461329D01*
X60417Y460472D01*
X61018Y459573D01*
X61558Y458637D01*
X62036Y457667D01*
X62450Y456669D01*
X62798Y455645D01*
X63077Y454601D01*
X63288Y453541D01*
X63429Y452469D01*
X63500Y451390D01*
X63500Y450310D01*
X63429Y449231D01*
X63288Y448159D01*
X63077Y447099D01*
X62798Y446055D01*
X62450Y445031D01*
X62036Y444033D01*
X61558Y443063D01*
X61018Y442127D01*
X60417Y441228D01*
X59759Y440371D01*
X59047Y439558D01*
X58282Y438794D01*
X57469Y438081D01*
X56612Y437423D01*
X55713Y436822D01*
X54777Y436282D01*
X53807Y435804D01*
X52809Y435390D01*
X51785Y435042D01*
X50741Y434763D01*
X49681Y434552D01*
X48609Y434411D01*
X47530Y434340D01*
X46450Y434340D01*
X45371Y434411D01*
X44299Y434552D01*
X43239Y434763D01*
X42195Y435042D01*
X41171Y435390D01*
X40173Y435804D01*
X39203Y436282D01*
X38267Y436822D01*
X37368Y437423D01*
X36511Y438081D01*
X35698Y438794D01*
X34934Y439558D01*
X34221Y440371D01*
X33563Y441228D01*
X32962Y442127D01*
X32422Y443063D01*
X31944Y444033D01*
X31530Y445031D01*
X31182Y446055D01*
X30903Y447099D01*
X30692Y448159D01*
X30551Y449231D01*
X30480Y450310D01*
X30480Y451390D01*
X30551Y452469D01*
X30692Y453541D01*
X30903Y454601D01*
X31182Y455645D01*
X31530Y456669D01*
X31944Y457667D01*
X32422Y458637D01*
X32962Y459573D01*
X33563Y460472D01*
X34221Y461329D01*
X34934Y462142D01*
X35698Y462907D01*
X36511Y463619D01*
X37368Y464277D01*
X38267Y464878D01*
X39203Y465418D01*
X40173Y465896D01*
X41171Y466310D01*
X42195Y466658D01*
X43239Y466937D01*
X44299Y467148D01*
X45371Y467289D01*
X46450Y467360D01*
X47530Y467360D01*
X65800Y634464D02*
X65724Y633396D01*
X65571Y632335D01*
X65343Y631288D01*
X65041Y630260D01*
X64667Y629256D01*
X64222Y628281D01*
X63708Y627341D01*
X63129Y626440D01*
X62487Y625582D01*
X61785Y624772D01*
X61028Y624015D01*
X60218Y623313D01*
X59360Y622671D01*
X58459Y622092D01*
X57519Y621578D01*
X56544Y621133D01*
X55540Y620759D01*
X54512Y620457D01*
X53465Y620229D01*
X52404Y620076D01*
X51336Y620000D01*
X50264Y620000D01*
X49196Y620076D01*
X48135Y620229D01*
X47088Y620457D01*
X46060Y620759D01*
X45056Y621133D01*
X44081Y621578D01*
X43141Y622092D01*
X42240Y622671D01*
X41382Y623313D01*
X40572Y624015D01*
X39815Y624772D01*
X39113Y625582D01*
X38471Y626440D01*
X37892Y627341D01*
X37378Y628281D01*
X36933Y629256D01*
X36559Y630260D01*
X36257Y631288D01*
X36029Y632335D01*
X35876Y633396D01*
X35800Y634464D01*
X35800Y635536D01*
X35876Y636604D01*
X36029Y637665D01*
X36257Y638712D01*
X36559Y639740D01*
X36933Y640744D01*
X37378Y641719D01*
X37892Y642659D01*
X38471Y643560D01*
X39113Y644418D01*
X39815Y645228D01*
X40572Y645985D01*
X41382Y646687D01*
X42240Y647329D01*
X43141Y647908D01*
X44081Y648422D01*
X45056Y648867D01*
X46060Y649241D01*
X47088Y649543D01*
X48135Y649771D01*
X49196Y649924D01*
X50264Y650000D01*
X51336Y650000D01*
X52404Y649924D01*
X53465Y649771D01*
X54512Y649543D01*
X55540Y649241D01*
X56544Y648867D01*
X57519Y648422D01*
X58459Y647908D01*
X59360Y647329D01*
X60218Y646687D01*
X61028Y645985D01*
X61785Y645228D01*
X62487Y644418D01*
X63129Y643560D01*
X63708Y642659D01*
X64222Y641719D01*
X64667Y640744D01*
X65041Y639740D01*
X65343Y638712D01*
X65571Y637665D01*
X65724Y636604D01*
X65800Y635536D01*
X65800Y634464D01*
X726200Y634464D02*
X726124Y633396D01*
X725971Y632335D01*
X725743Y631288D01*
X725441Y630260D01*
X725067Y629256D01*
X724622Y628281D01*
X724108Y627341D01*
X723529Y626440D01*
X722887Y625582D01*
X722185Y624772D01*
X721428Y624015D01*
X720618Y623313D01*
X719760Y622671D01*
X718859Y622092D01*
X717919Y621578D01*
X716944Y621133D01*
X715940Y620759D01*
X714912Y620457D01*
X713865Y620229D01*
X712804Y620076D01*
X711736Y620000D01*
X710664Y620000D01*
X709596Y620076D01*
X708535Y620229D01*
X707488Y620457D01*
X706460Y620759D01*
X705456Y621133D01*
X704481Y621578D01*
X703541Y622092D01*
X702640Y622671D01*
X701782Y623313D01*
X700972Y624015D01*
X700215Y624772D01*
X699513Y625582D01*
X698871Y626440D01*
X698292Y627341D01*
X697778Y628281D01*
X697333Y629256D01*
X696959Y630260D01*
X696657Y631288D01*
X696429Y632335D01*
X696276Y633396D01*
X696200Y634464D01*
X696200Y635536D01*
X696276Y636604D01*
X696429Y637665D01*
X696657Y638712D01*
X696959Y639740D01*
X697333Y640744D01*
X697778Y641719D01*
X698292Y642659D01*
X698871Y643560D01*
X699513Y644418D01*
X700215Y645228D01*
X700972Y645985D01*
X701782Y646687D01*
X702640Y647329D01*
X703541Y647908D01*
X704481Y648422D01*
X705456Y648867D01*
X706460Y649241D01*
X707488Y649543D01*
X708535Y649771D01*
X709596Y649924D01*
X710664Y650000D01*
X711736Y650000D01*
X712804Y649924D01*
X713865Y649771D01*
X714912Y649543D01*
X715940Y649241D01*
X716944Y648867D01*
X717919Y648422D01*
X718859Y647908D01*
X719760Y647329D01*
X720618Y646687D01*
X721428Y645985D01*
X722185Y645228D01*
X722887Y644418D01*
X723529Y643560D01*
X724108Y642659D01*
X724622Y641719D01*
X725067Y640744D01*
X725441Y639740D01*
X725743Y638712D01*
X725971Y637665D01*
X726124Y636604D01*
X726200Y635536D01*
X726200Y634464D01*
X65800Y-51336D02*
X65724Y-52404D01*
X65571Y-53465D01*
X65343Y-54512D01*
X65041Y-55540D01*
X64667Y-56544D01*
X64222Y-57519D01*
X63708Y-58459D01*
X63129Y-59360D01*
X62487Y-60218D01*
X61785Y-61028D01*
X61028Y-61785D01*
X60218Y-62487D01*
X59360Y-63129D01*
X58459Y-63708D01*
X57519Y-64222D01*
X56544Y-64667D01*
X55540Y-65041D01*
X54512Y-65343D01*
X53465Y-65571D01*
X52404Y-65724D01*
X51336Y-65800D01*
X50264Y-65800D01*
X49196Y-65724D01*
X48135Y-65571D01*
X47088Y-65343D01*
X46060Y-65041D01*
X45056Y-64667D01*
X44081Y-64222D01*
X43141Y-63708D01*
X42240Y-63129D01*
X41382Y-62487D01*
X40572Y-61785D01*
X39815Y-61028D01*
X39113Y-60218D01*
X38471Y-59360D01*
X37892Y-58459D01*
X37378Y-57519D01*
X36933Y-56544D01*
X36559Y-55540D01*
X36257Y-54512D01*
X36029Y-53465D01*
X35876Y-52404D01*
X35800Y-51336D01*
X35800Y-50264D01*
X35876Y-49196D01*
X36029Y-48135D01*
X36257Y-47088D01*
X36559Y-46060D01*
X36933Y-45056D01*
X37378Y-44081D01*
X37892Y-43141D01*
X38471Y-42240D01*
X39113Y-41382D01*
X39815Y-40572D01*
X40572Y-39815D01*
X41382Y-39113D01*
X42240Y-38471D01*
X43141Y-37892D01*
X44081Y-37378D01*
X45056Y-36933D01*
X46060Y-36559D01*
X47088Y-36257D01*
X48135Y-36029D01*
X49196Y-35876D01*
X50264Y-35800D01*
X51336Y-35800D01*
X52404Y-35876D01*
X53465Y-36029D01*
X54512Y-36257D01*
X55540Y-36559D01*
X56544Y-36933D01*
X57519Y-37378D01*
X58459Y-37892D01*
X59360Y-38471D01*
X60218Y-39113D01*
X61028Y-39815D01*
X61785Y-40572D01*
X62487Y-41382D01*
X63129Y-42240D01*
X63708Y-43141D01*
X64222Y-44081D01*
X64667Y-45056D01*
X65041Y-46060D01*
X65343Y-47088D01*
X65571Y-48135D01*
X65724Y-49196D01*
X65800Y-50264D01*
X65800Y-51336D01*
X726200Y-51336D02*
X726124Y-52404D01*
X725971Y-53465D01*
X725743Y-54512D01*
X725441Y-55540D01*
X725067Y-56544D01*
X724622Y-57519D01*
X724108Y-58459D01*
X723529Y-59360D01*
X722887Y-60218D01*
X722185Y-61028D01*
X721428Y-61785D01*
X720618Y-62487D01*
X719760Y-63129D01*
X718859Y-63708D01*
X717919Y-64222D01*
X716944Y-64667D01*
X715940Y-65041D01*
X714912Y-65343D01*
X713865Y-65571D01*
X712804Y-65724D01*
X711736Y-65800D01*
X710664Y-65800D01*
X709596Y-65724D01*
X708535Y-65571D01*
X707488Y-65343D01*
X706460Y-65041D01*
X705456Y-64667D01*
X704481Y-64222D01*
X703541Y-63708D01*
X702640Y-63129D01*
X701782Y-62487D01*
X700972Y-61785D01*
X700215Y-61028D01*
X699513Y-60218D01*
X698871Y-59360D01*
X698292Y-58459D01*
X697778Y-57519D01*
X697333Y-56544D01*
X696959Y-55540D01*
X696657Y-54512D01*
X696429Y-53465D01*
X696276Y-52404D01*
X696200Y-51336D01*
X696200Y-50264D01*
X696276Y-49196D01*
X696429Y-48135D01*
X696657Y-47088D01*
X696959Y-46060D01*
X697333Y-45056D01*
X697778Y-44081D01*
X698292Y-43141D01*
X698871Y-42240D01*
X699513Y-41382D01*
X700215Y-40572D01*
X700972Y-39815D01*
X701782Y-39113D01*
X702640Y-38471D01*
X703541Y-37892D01*
X704481Y-37378D01*
X705456Y-36933D01*
X706460Y-36559D01*
X707488Y-36257D01*
X708535Y-36029D01*
X709596Y-35876D01*
X710664Y-35800D01*
X711736Y-35800D01*
X712804Y-35876D01*
X713865Y-36029D01*
X714912Y-36257D01*
X715940Y-36559D01*
X716944Y-36933D01*
X717919Y-37378D01*
X718859Y-37892D01*
X719760Y-38471D01*
X720618Y-39113D01*
X721428Y-39815D01*
X722185Y-40572D01*
X722887Y-41382D01*
X723529Y-42240D01*
X724108Y-43141D01*
X724622Y-44081D01*
X725067Y-45056D01*
X725441Y-46060D01*
X725743Y-47088D01*
X725971Y-48135D01*
X726124Y-49196D01*
X726200Y-50264D01*
X726200Y-51336D01*
M02*
