G04 EAGLE Gerber RS-274X export*
G75*
%MOMM*%
%FSLAX34Y34*%
%LPD*%
%INSilkscreen Bottom*%
%IPPOS*%
%AMOC8*
5,1,8,0,0,1.08239X$1,22.5*%
G01*
%ADD10C,0.152400*%
%ADD11C,0.127000*%


D10*
X635000Y615950D02*
X628650Y609600D01*
X615950Y609600D01*
X609600Y615950D01*
X603250Y609600D01*
X590550Y609600D01*
X584200Y615950D01*
X577850Y609600D01*
X565150Y609600D01*
X558800Y615950D01*
X552450Y609600D01*
X539750Y609600D01*
X533400Y615950D01*
X527050Y609600D01*
X514350Y609600D01*
X508000Y615950D01*
X501650Y609600D01*
X488950Y609600D01*
X482600Y615950D01*
X635000Y615950D02*
X635000Y654050D01*
X628650Y660400D01*
X615950Y660400D01*
X609600Y654050D01*
X603250Y660400D01*
X590550Y660400D01*
X584200Y654050D01*
X577850Y660400D01*
X565150Y660400D01*
X558800Y654050D01*
X552450Y660400D01*
X539750Y660400D01*
X533400Y654050D01*
X527050Y660400D01*
X514350Y660400D01*
X508000Y654050D01*
X501650Y660400D01*
X488950Y660400D01*
X482600Y654050D01*
X476250Y660400D01*
X463550Y660400D01*
X457200Y654050D01*
X450850Y660400D01*
X438150Y660400D01*
X431800Y654050D01*
X425450Y660400D01*
X412750Y660400D01*
X406400Y654050D01*
X400050Y660400D01*
X387350Y660400D01*
X381000Y654050D01*
X374650Y660400D01*
X361950Y660400D01*
X355600Y654050D01*
X349250Y660400D01*
X336550Y660400D01*
X330200Y654050D01*
X323850Y660400D01*
X311150Y660400D01*
X304800Y654050D01*
X298450Y660400D01*
X285750Y660400D01*
X279400Y654050D01*
X273050Y660400D01*
X260350Y660400D01*
X254000Y654050D01*
X247650Y660400D01*
X234950Y660400D01*
X228600Y654050D01*
X222250Y660400D01*
X209550Y660400D01*
X203200Y654050D01*
X196850Y660400D01*
X184150Y660400D01*
X177800Y654050D01*
X171450Y660400D01*
X158750Y660400D01*
X152400Y654050D01*
X152400Y615950D02*
X158750Y609600D01*
X171450Y609600D01*
X177800Y615950D01*
X184150Y609600D01*
X196850Y609600D01*
X203200Y615950D01*
X209550Y609600D01*
X222250Y609600D01*
X228600Y615950D01*
X234950Y609600D01*
X247650Y609600D01*
X254000Y615950D01*
X260350Y609600D01*
X273050Y609600D01*
X279400Y615950D01*
X285750Y609600D01*
X298450Y609600D01*
X304800Y615950D01*
X311150Y609600D01*
X323850Y609600D01*
X330200Y615950D01*
X336550Y609600D01*
X349250Y609600D01*
X355600Y615950D01*
X361950Y609600D01*
X374650Y609600D01*
X381000Y615950D01*
X387350Y609600D01*
X400050Y609600D01*
X406400Y615950D01*
X412750Y609600D01*
X425450Y609600D01*
X431800Y615950D01*
X438150Y609600D01*
X450850Y609600D01*
X457200Y615950D01*
X463550Y609600D01*
X476250Y609600D01*
X482600Y615950D01*
X609600Y615950D02*
X609600Y654050D01*
X584200Y654050D02*
X584200Y615950D01*
X558800Y615950D02*
X558800Y654050D01*
X533400Y654050D02*
X533400Y615950D01*
X508000Y615950D02*
X508000Y654050D01*
X482600Y654050D02*
X482600Y615950D01*
X457200Y615950D02*
X457200Y654050D01*
X431800Y654050D02*
X431800Y615950D01*
X406400Y615950D02*
X406400Y654050D01*
X381000Y654050D02*
X381000Y615950D01*
X355600Y615950D02*
X355600Y654050D01*
X330200Y654050D02*
X330200Y615950D01*
X304800Y615950D02*
X304800Y654050D01*
X279400Y654050D02*
X279400Y615950D01*
X254000Y615950D02*
X254000Y654050D01*
X228600Y654050D02*
X228600Y615950D01*
X203200Y615950D02*
X203200Y654050D01*
X177800Y654050D02*
X177800Y615950D01*
X152400Y615950D02*
X152400Y654050D01*
X146050Y660400D01*
X133350Y660400D01*
X127000Y654050D01*
X127000Y615950D02*
X133350Y609600D01*
X146050Y609600D01*
X152400Y615950D01*
X127000Y615950D02*
X127000Y654050D01*
D11*
X120015Y601345D02*
X111125Y601345D01*
X111025Y601343D01*
X110926Y601337D01*
X110826Y601327D01*
X110728Y601314D01*
X110629Y601296D01*
X110532Y601275D01*
X110436Y601250D01*
X110340Y601221D01*
X110246Y601188D01*
X110153Y601152D01*
X110062Y601112D01*
X109972Y601068D01*
X109884Y601021D01*
X109798Y600971D01*
X109714Y600917D01*
X109632Y600860D01*
X109553Y600800D01*
X109475Y600736D01*
X109401Y600670D01*
X109329Y600601D01*
X109260Y600529D01*
X109194Y600455D01*
X109130Y600377D01*
X109070Y600298D01*
X109013Y600216D01*
X108959Y600132D01*
X108909Y600046D01*
X108862Y599958D01*
X108818Y599868D01*
X108778Y599777D01*
X108742Y599684D01*
X108709Y599590D01*
X108680Y599494D01*
X108655Y599398D01*
X108634Y599301D01*
X108616Y599202D01*
X108603Y599104D01*
X108593Y599004D01*
X108587Y598905D01*
X108585Y598805D01*
X108585Y597535D01*
X108585Y607325D02*
X120015Y607325D01*
X120015Y610500D01*
X120013Y610611D01*
X120007Y610721D01*
X119998Y610832D01*
X119984Y610942D01*
X119967Y611051D01*
X119946Y611160D01*
X119921Y611268D01*
X119892Y611375D01*
X119860Y611481D01*
X119824Y611586D01*
X119784Y611689D01*
X119741Y611791D01*
X119694Y611892D01*
X119643Y611991D01*
X119590Y612088D01*
X119533Y612182D01*
X119472Y612275D01*
X119409Y612366D01*
X119342Y612455D01*
X119272Y612541D01*
X119199Y612624D01*
X119124Y612706D01*
X119046Y612784D01*
X118964Y612859D01*
X118881Y612932D01*
X118795Y613002D01*
X118706Y613069D01*
X118615Y613132D01*
X118522Y613193D01*
X118428Y613250D01*
X118331Y613303D01*
X118232Y613354D01*
X118131Y613401D01*
X118029Y613444D01*
X117926Y613484D01*
X117821Y613520D01*
X117715Y613552D01*
X117608Y613581D01*
X117500Y613606D01*
X117391Y613627D01*
X117282Y613644D01*
X117172Y613658D01*
X117061Y613667D01*
X116951Y613673D01*
X116840Y613675D01*
X116729Y613673D01*
X116619Y613667D01*
X116508Y613658D01*
X116398Y613644D01*
X116289Y613627D01*
X116180Y613606D01*
X116072Y613581D01*
X115965Y613552D01*
X115859Y613520D01*
X115754Y613484D01*
X115651Y613444D01*
X115549Y613401D01*
X115448Y613354D01*
X115349Y613303D01*
X115253Y613250D01*
X115158Y613193D01*
X115065Y613132D01*
X114974Y613069D01*
X114885Y613002D01*
X114799Y612932D01*
X114716Y612859D01*
X114634Y612784D01*
X114556Y612706D01*
X114481Y612624D01*
X114408Y612541D01*
X114338Y612455D01*
X114271Y612366D01*
X114208Y612275D01*
X114147Y612182D01*
X114090Y612088D01*
X114037Y611991D01*
X113986Y611892D01*
X113939Y611791D01*
X113896Y611689D01*
X113856Y611586D01*
X113820Y611481D01*
X113788Y611375D01*
X113759Y611268D01*
X113734Y611160D01*
X113713Y611051D01*
X113696Y610942D01*
X113682Y610832D01*
X113673Y610721D01*
X113667Y610611D01*
X113665Y610500D01*
X113665Y607325D01*
X120016Y621676D02*
X120014Y621780D01*
X120008Y621885D01*
X119999Y621989D01*
X119986Y622092D01*
X119968Y622195D01*
X119948Y622297D01*
X119923Y622399D01*
X119895Y622499D01*
X119863Y622599D01*
X119827Y622697D01*
X119788Y622794D01*
X119746Y622889D01*
X119700Y622983D01*
X119650Y623075D01*
X119598Y623165D01*
X119542Y623253D01*
X119482Y623339D01*
X119420Y623423D01*
X119355Y623504D01*
X119287Y623583D01*
X119215Y623660D01*
X119142Y623733D01*
X119065Y623805D01*
X118986Y623873D01*
X118905Y623938D01*
X118821Y624000D01*
X118735Y624060D01*
X118647Y624116D01*
X118557Y624168D01*
X118465Y624218D01*
X118371Y624264D01*
X118276Y624306D01*
X118179Y624345D01*
X118081Y624381D01*
X117981Y624413D01*
X117881Y624441D01*
X117779Y624466D01*
X117677Y624486D01*
X117574Y624504D01*
X117471Y624517D01*
X117367Y624526D01*
X117262Y624532D01*
X117158Y624534D01*
X120015Y621676D02*
X120013Y621558D01*
X120007Y621439D01*
X119998Y621321D01*
X119985Y621204D01*
X119967Y621087D01*
X119947Y620970D01*
X119922Y620854D01*
X119894Y620739D01*
X119861Y620626D01*
X119826Y620513D01*
X119786Y620401D01*
X119744Y620291D01*
X119697Y620182D01*
X119647Y620074D01*
X119594Y619969D01*
X119537Y619865D01*
X119477Y619763D01*
X119414Y619663D01*
X119347Y619565D01*
X119278Y619469D01*
X119205Y619376D01*
X119129Y619285D01*
X119051Y619196D01*
X118969Y619110D01*
X118885Y619027D01*
X118799Y618946D01*
X118709Y618869D01*
X118618Y618794D01*
X118524Y618722D01*
X118427Y618653D01*
X118329Y618588D01*
X118228Y618525D01*
X118125Y618466D01*
X118021Y618410D01*
X117915Y618358D01*
X117807Y618309D01*
X117698Y618264D01*
X117587Y618222D01*
X117475Y618184D01*
X114936Y623582D02*
X115011Y623658D01*
X115090Y623733D01*
X115171Y623804D01*
X115255Y623873D01*
X115341Y623938D01*
X115429Y624000D01*
X115519Y624060D01*
X115611Y624116D01*
X115706Y624169D01*
X115802Y624218D01*
X115900Y624264D01*
X115999Y624307D01*
X116100Y624346D01*
X116202Y624381D01*
X116305Y624413D01*
X116409Y624441D01*
X116514Y624466D01*
X116621Y624487D01*
X116727Y624504D01*
X116834Y624517D01*
X116942Y624526D01*
X117050Y624532D01*
X117158Y624534D01*
X114935Y623581D02*
X108585Y618184D01*
X108585Y624534D01*
X107315Y629106D02*
X107315Y634186D01*
X108585Y641171D02*
X120015Y641171D01*
X120015Y637996D02*
X120015Y644346D01*
X120015Y649070D02*
X108585Y649070D01*
X120015Y649070D02*
X120015Y654150D01*
X114935Y654150D02*
X114935Y649070D01*
X120015Y660983D02*
X108585Y660983D01*
X120015Y657808D02*
X120015Y664158D01*
M02*
