G04 EAGLE Gerber RS-274X export*
G75*
%MOMM*%
%FSLAX34Y34*%
%LPD*%
%INSoldermask Top*%
%IPPOS*%
%AMOC8*
5,1,8,0,0,1.08239X$1,22.5*%
G01*
%ADD10P,1.951982X8X292.500000*%
%ADD11C,1.727200*%
%ADD12C,3.505200*%
%ADD13P,1.869504X8X202.500000*%
%ADD14C,1.711200*%
%ADD15C,1.411200*%
%ADD16P,1.649562X8X202.500000*%
%ADD17C,3.203200*%
%ADD18C,2.603200*%
%ADD19P,1.852186X8X22.500000*%
%ADD20C,0.959600*%


D10*
X336550Y406400D03*
X336550Y381000D03*
X336550Y508000D03*
X336550Y482600D03*
D11*
X204470Y425450D02*
X189230Y425450D01*
X189230Y450850D02*
X204470Y450850D01*
X204470Y476250D02*
X189230Y476250D01*
D12*
X46990Y450850D03*
D13*
X622300Y622300D03*
X622300Y647700D03*
X596900Y622300D03*
X596900Y647700D03*
X571500Y622300D03*
X571500Y647700D03*
X546100Y622300D03*
X546100Y647700D03*
X520700Y622300D03*
X520700Y647700D03*
X495300Y622300D03*
X495300Y647700D03*
X469900Y622300D03*
X469900Y647700D03*
X444500Y622300D03*
X444500Y647700D03*
X419100Y622300D03*
X419100Y647700D03*
X393700Y622300D03*
X393700Y647700D03*
X368300Y622300D03*
X368300Y647700D03*
X342900Y622300D03*
X342900Y647700D03*
X317500Y622300D03*
X317500Y647700D03*
X292100Y622300D03*
X292100Y647700D03*
X266700Y622300D03*
X266700Y647700D03*
X241300Y622300D03*
X241300Y647700D03*
X215900Y622300D03*
X215900Y647700D03*
X190500Y622300D03*
X190500Y647700D03*
X165100Y622300D03*
X165100Y647700D03*
X139700Y622300D03*
X139700Y647700D03*
D14*
X713210Y414350D02*
X728290Y414350D01*
X728290Y487350D02*
X713210Y487350D01*
D15*
X682250Y458850D03*
X670250Y450850D03*
X670250Y434850D03*
X670250Y466850D03*
X682250Y442850D03*
D16*
X527050Y393700D03*
X450850Y393700D03*
X527050Y495300D03*
X450850Y495300D03*
D17*
X50800Y635000D03*
X711200Y635000D03*
X50800Y-50800D03*
X711200Y-50800D03*
D18*
X147320Y-73660D03*
X596900Y-73660D03*
X38100Y543560D03*
X723900Y551180D03*
X723900Y317500D03*
D19*
X139700Y228600D03*
X165100Y228600D03*
X190500Y228600D03*
X215900Y228600D03*
X241300Y228600D03*
X266700Y228600D03*
X292100Y228600D03*
X317500Y228600D03*
X342900Y228600D03*
X368300Y228600D03*
X393700Y228600D03*
X419100Y228600D03*
X444500Y228600D03*
X469900Y228600D03*
X495300Y228600D03*
X520700Y228600D03*
X546100Y228600D03*
X571500Y228600D03*
X596900Y228600D03*
X622300Y228600D03*
X647700Y228600D03*
X139700Y0D03*
X165100Y0D03*
X190500Y0D03*
X215900Y0D03*
X241300Y0D03*
X266700Y0D03*
X292100Y0D03*
X317500Y0D03*
X342900Y0D03*
X368300Y0D03*
X393700Y0D03*
X419100Y0D03*
X444500Y0D03*
X469900Y0D03*
X495300Y0D03*
X520700Y0D03*
X546100Y0D03*
X571500Y0D03*
X596900Y0D03*
X622300Y0D03*
X647700Y0D03*
D20*
X323850Y609600D03*
X431800Y565150D03*
X406400Y336550D03*
X438150Y368300D03*
X381000Y539750D03*
X393700Y552450D03*
X501650Y609600D03*
X528320Y330200D03*
X501650Y660400D03*
X571500Y342900D03*
X111760Y563880D03*
X368300Y248920D03*
X476250Y241300D03*
X514350Y603250D03*
X596900Y330200D03*
X127000Y563880D03*
X488950Y215900D03*
X533400Y444500D03*
X469900Y209550D03*
X533400Y431800D03*
X561340Y383540D03*
X570230Y417830D03*
X374650Y495300D03*
X488950Y609600D03*
X304800Y431800D03*
X304800Y488950D03*
X304800Y628650D03*
M02*
